SplineFontDB: 3.0
FontName: Srisakdi-Bold
FullName: Srisakdi Bold
FamilyName: Srisakdi
Weight: Bold
Copyright: Copyright 2018 The Srisakdi Project Authors (https://github.com/cadsondemak/Srisakdi)
Version: 1.000; ttfautohint (v1.6)
ItalicAngle: 0
UnderlinePosition: -100
UnderlineWidth: 50
Ascent: 600
Descent: 200
InvalidEm: 0
sfntRevision: 0x00010000
LayerCount: 2
Layer: 0 1 "Back" 1
Layer: 1 1 "Fore" 0
XUID: [1021 318 -2145553614 1262]
StyleMap: 0x0020
FSType: 0
OS2Version: 4
OS2_WeightWidthSlopeOnly: 0
OS2_UseTypoMetrics: 1
CreationTime: 1533376487
ModificationTime: 1564237636
PfmFamily: 81
TTFWeight: 700
TTFWidth: 5
LineGap: 0
VLineGap: 0
Panose: 0 0 8 0 0 0 0 0 0 0
OS2TypoAscent: 950
OS2TypoAOffset: 0
OS2TypoDescent: -250
OS2TypoDOffset: 0
OS2TypoLinegap: 0
OS2WinAscent: 1484
OS2WinAOffset: 0
OS2WinDescent: 664
OS2WinDOffset: 0
HheadAscent: 950
HheadAOffset: 0
HheadDescent: -250
HheadDOffset: 0
OS2SubXSize: 650
OS2SubYSize: 600
OS2SubXOff: 0
OS2SubYOff: 75
OS2SupXSize: 650
OS2SupYSize: 600
OS2SupXOff: 0
OS2SupYOff: 350
OS2StrikeYSize: 50
OS2StrikeYPos: 282
OS2CapHeight: 700
OS2XHeight: 470
OS2Vendor: 'CDK '
OS2CodePages: 20010193.00000000
OS2UnicodeRanges: 21000007.00000001.00000000.00000000
Lookup: 1 0 0 "'aalt' Access All Alternates lookup 0" { "'aalt' Access All Alternates lookup 0 subtable"  } ['aalt' ('DFLT' <'dflt' > 'latn' <'CAT ' 'MOL ' 'ROM ' 'dflt' > 'thai' <'dflt' > ) ]
Lookup: 3 0 0 "'aalt' Access All Alternates lookup 1" { "'aalt' Access All Alternates lookup 1 subtable"  } ['aalt' ('DFLT' <'dflt' > 'latn' <'CAT ' 'MOL ' 'ROM ' 'dflt' > 'thai' <'dflt' > ) ]
Lookup: 6 0 0 "'ccmp' Glyph Composition/Decomposition in Latin lookup 2" { "'ccmp' Glyph Composition/Decomposition in Latin lookup 2 contextual 0"  "'ccmp' Glyph Composition/Decomposition in Latin lookup 2 contextual 1"  } ['ccmp' ('latn' <'dflt' > ) ]

StartChar: .notdef
Encoding: 65536 -1 0
Width: 624
VWidth: 1000
Flags: W
LayerCount: 2
Fore
SplineSet
79 867 m 1,0,-1
 544 867 l 1,1,-1
 544 0 l 1,2,-1
 79 0 l 1,3,-1
 79 867 l 1,0,-1
502 44 m 1,4,-1
 502 824 l 1,5,-1
 121 824 l 1,6,-1
 121 44 l 1,7,-1
 502 44 l 1,4,-1
EndSplineSet
EndChar

StartChar: A
Encoding: 65 65 4
Width: 760
VWidth: 1000
GlyphClass: 2
Flags: W
AnchorPoint: "Anchor-6" 0 0 basechar 0
AnchorPoint: "Anchor-5" 496 700 basechar 0
AnchorPoint: "Anchor-4" 512 10 basechar 0
AnchorPoint: "Anchor-3" 321 0 basechar 0
LayerCount: 2
Fore
SplineSet
752 671.5 m 128,-1,1
 822 633 822 633 822 565 c 0,2,3
 822 525 822 525 799 488.5 c 128,-1,4
 776 452 776 452 738 427.5 c 128,-1,5
 700 403 700 403 658 397 c 1,6,7
 689 426 689 426 707.5 458 c 128,-1,8
 726 490 726 490 726 521 c 0,9,10
 726 575 726 575 674 606.5 c 128,-1,11
 622 638 622 638 536 638 c 0,12,13
 344 638 344 638 248 502 c 128,-1,14
 152 366 152 366 145 134 c 1,15,16
 192 64 192 64 274 64 c 0,17,18
 380 64 380 64 490 172 c 1,19,-1
 529 328 l 2,20,21
 542 380 542 380 555 412 c 1,22,-1
 552 414 l 1,23,24
 522 379 522 379 472 354 c 128,-1,25
 422 329 422 329 371 329 c 0,26,27
 324 329 324 329 297.5 351 c 128,-1,28
 271 373 271 373 271 410 c 0,29,30
 271 440 271 440 285 467.5 c 128,-1,31
 299 495 299 495 324 512 c 128,-1,32
 349 529 349 529 378 529 c 0,33,34
 404 529 404 529 418 515 c 128,-1,35
 432 501 432 501 432 479 c 0,36,37
 432 470 432 470 431 465 c 1,38,39
 420 485 420 485 400 485 c 256,40,41
 380 485 380 485 367 471 c 128,-1,42
 354 457 354 457 354 436 c 0,43,44
 354 419 354 419 367.5 409 c 128,-1,45
 381 399 381 399 406 399 c 0,46,47
 504 399 504 399 643 563 c 1,48,-1
 675 563 l 1,49,-1
 558 92 l 2,50,51
 545 38 545 38 545 14 c 0,52,53
 545 6 545 6 547 0 c 1,54,-1
 435 0 l 1,55,56
 446 14 446 14 453 32 c 128,-1,57
 460 50 460 50 470 92 c 2,58,-1
 471 96 l 1,59,-1
 468 96 l 1,60,61
 360 -10 360 -10 252 -10 c 0,62,63
 192 -10 192 -10 141.5 20.5 c 128,-1,64
 91 51 91 51 67 107 c 1,65,66
 61 142 61 142 61 183 c 0,67,68
 61 336 61 336 123 455.5 c 128,-1,69
 185 575 185 575 299.5 642.5 c 128,-1,70
 414 710 414 710 565 710 c 0,71,0
 682 710 682 710 752 671.5 c 128,-1,1
EndSplineSet
Substitution2: "Single Substitution lookup 19 subtable" ordfeminine
Substitution2: "'aalt' Access All Alternates lookup 0 subtable" ordfeminine
EndChar

StartChar: Aogonek
Encoding: 260 260 24
Width: 760
VWidth: 1000
GlyphClass: 2
Flags: W
AnchorPoint: "Anchor-6" 0 0 basechar 0
AnchorPoint: "Anchor-5" 496 700 basechar 0
AnchorPoint: "Anchor-4" 512 10 basechar 0
AnchorPoint: "Anchor-3" 321 0 basechar 0
LayerCount: 2
Fore
SplineSet
752 671.5 m 128,-1,1
 822 633 822 633 822 565 c 0,2,3
 822 525 822 525 799 488.5 c 128,-1,4
 776 452 776 452 738 427.5 c 128,-1,5
 700 403 700 403 658 397 c 1,6,7
 689 426 689 426 707.5 458 c 128,-1,8
 726 490 726 490 726 521 c 0,9,10
 726 575 726 575 674 606.5 c 128,-1,11
 622 638 622 638 536 638 c 0,12,13
 344 638 344 638 248 502 c 128,-1,14
 152 366 152 366 145 134 c 1,15,16
 192 64 192 64 274 64 c 0,17,18
 380 64 380 64 490 172 c 1,19,-1
 529 328 l 2,20,21
 542 380 542 380 555 412 c 1,22,-1
 552 414 l 1,23,24
 522 379 522 379 472 354 c 128,-1,25
 422 329 422 329 371 329 c 0,26,27
 324 329 324 329 297.5 351 c 128,-1,28
 271 373 271 373 271 410 c 0,29,30
 271 440 271 440 285 467.5 c 128,-1,31
 299 495 299 495 324 512 c 128,-1,32
 349 529 349 529 378 529 c 0,33,34
 404 529 404 529 418 515 c 128,-1,35
 432 501 432 501 432 479 c 0,36,37
 432 470 432 470 431 465 c 1,38,39
 420 485 420 485 400 485 c 256,40,41
 380 485 380 485 367 471 c 128,-1,42
 354 457 354 457 354 436 c 0,43,44
 354 419 354 419 367.5 409 c 128,-1,45
 381 399 381 399 406 399 c 0,46,47
 504 399 504 399 643 563 c 1,48,-1
 675 563 l 1,49,-1
 558 92 l 2,50,51
 545 38 545 38 545 14 c 0,52,53
 545 6 545 6 547 0 c 1,54,-1
 523 0 l 1,55,56
 494 -19 494 -19 475 -43 c 128,-1,57
 456 -67 456 -67 456 -91 c 0,58,59
 456 -106 456 -106 464.5 -114.5 c 128,-1,60
 473 -123 473 -123 489 -123 c 256,61,62
 505 -123 505 -123 523 -113 c 1,63,64
 489 -175 489 -175 436 -175 c 0,65,66
 410 -175 410 -175 394 -159.5 c 128,-1,67
 378 -144 378 -144 378 -119 c 0,68,69
 378 -54 378 -54 473 0 c 1,70,-1
 435 0 l 1,71,72
 446 14 446 14 453 32 c 128,-1,73
 460 50 460 50 470 92 c 2,74,-1
 471 96 l 1,75,-1
 468 96 l 1,76,77
 360 -10 360 -10 252 -10 c 0,78,79
 192 -10 192 -10 141.5 20.5 c 128,-1,80
 91 51 91 51 67 107 c 1,81,82
 61 142 61 142 61 183 c 0,83,84
 61 336 61 336 123 455.5 c 128,-1,85
 185 575 185 575 299.5 642.5 c 128,-1,86
 414 710 414 710 565 710 c 0,87,0
 682 710 682 710 752 671.5 c 128,-1,1
EndSplineSet
EndChar

StartChar: AE
Encoding: 198 198 28
Width: 1114
VWidth: 1000
GlyphClass: 2
Flags: W
AnchorPoint: "Anchor-6" 0 0 basechar 0
AnchorPoint: "Anchor-5" 673 700 basechar 0
AnchorPoint: "Anchor-4" 0 0 basechar 0
AnchorPoint: "Anchor-3" 509 0 basechar 0
LayerCount: 2
Fore
SplineSet
1028.5 613.5 m 128,-1,1
 1002 618 1002 618 978 624 c 0,2,3
 956 629 956 629 932.5 633.5 c 128,-1,4
 909 638 909 638 890 638 c 0,5,6
 849 638 849 638 808 620 c 1,7,8
 822 594 822 594 822 565 c 0,9,10
 822 543 822 543 814 519 c 1,11,-1
 864 560 l 1,12,-1
 896 560 l 1,13,-1
 847 362 l 1,14,-1
 851 362 l 1,15,16
 877 402 877 402 914 427.5 c 128,-1,17
 951 453 951 453 987 453 c 0,18,19
 1021 453 1021 453 1040 430 c 128,-1,20
 1059 407 1059 407 1059 369 c 0,21,22
 1059 355 1059 355 1058 348 c 1,23,24
 1033 385 1033 385 988 385 c 0,25,26
 941 385 941 385 901 350 c 128,-1,27
 861 315 861 315 820 252 c 1,28,-1
 815 232 l 2,29,30
 802 178 802 178 802 154 c 0,31,32
 802 146 802 146 804 140 c 1,33,-1
 694 140 l 1,34,35
 705 154 705 154 712 172 c 128,-1,36
 719 190 719 190 729 232 c 2,37,-1
 754 335 l 2,38,39
 765 381 765 381 781 419 c 1,40,-1
 778 421 l 1,41,42
 678 346 678 346 611 304 c 1,43,44
 600 241 600 241 600 183 c 0,45,46
 600 168 600 168 602 142 c 1,47,48
 628 106 628 106 683.5 84 c 128,-1,49
 739 62 739 62 811 62 c 256,50,51
 883 62 883 62 946.5 87 c 128,-1,52
 1010 112 1010 112 1085 166 c 1,53,54
 1011 85 1011 85 937.5 37.5 c 128,-1,55
 864 -10 864 -10 776 -10 c 0,56,57
 710 -10 710 -10 653 17.5 c 128,-1,58
 596 45 596 45 559 95 c 1,59,-1
 558 92 l 1,60,61
 545 38 545 38 545 14 c 0,62,63
 545 6 545 6 547 0 c 1,64,-1
 435 0 l 1,65,66
 446 14 446 14 453 32 c 128,-1,67
 460 50 460 50 470 92 c 2,68,-1
 471 96 l 1,69,-1
 468 96 l 1,70,71
 360 -10 360 -10 252 -10 c 0,72,73
 192 -10 192 -10 141.5 20.5 c 128,-1,74
 91 51 91 51 67 107 c 1,75,76
 61 142 61 142 61 183 c 0,77,78
 61 336 61 336 123 455.5 c 128,-1,79
 185 575 185 575 299.5 642.5 c 128,-1,80
 414 710 414 710 565 710 c 0,81,82
 683 710 683 710 753 671 c 1,83,84
 823 710 823 710 898 710 c 0,85,86
 940 710 940 710 1002 695 c 0,87,88
 1034 688 1034 688 1056.5 684.5 c 128,-1,89
 1079 681 1079 681 1104 681 c 0,90,91
 1164 681 1164 681 1231 706 c 1,92,93
 1204 658 1204 658 1168 633.5 c 128,-1,94
 1132 609 1132 609 1078 609 c 0,95,0
 1055 609 1055 609 1028.5 613.5 c 128,-1,1
509 247 m 1,96,97
 409 199 409 199 321 199 c 0,98,99
 266 199 266 199 238.5 219.5 c 128,-1,100
 211 240 211 240 211 277 c 0,101,102
 211 311 211 311 228.5 341.5 c 128,-1,103
 246 372 246 372 274 387 c 1,104,105
 271 398 271 398 271 410 c 0,106,107
 271 440 271 440 285 467.5 c 128,-1,108
 299 495 299 495 324 512 c 128,-1,109
 349 529 349 529 378 529 c 0,110,111
 404 529 404 529 418 515 c 128,-1,112
 432 501 432 501 432 479 c 0,113,114
 432 470 432 470 431 465 c 1,115,116
 420 485 420 485 400 485 c 256,117,118
 380 485 380 485 367 471 c 128,-1,119
 354 457 354 457 354 436 c 0,120,121
 354 419 354 419 367.5 409 c 128,-1,122
 381 399 381 399 406 399 c 0,123,124
 489 399 489 399 604 519 c 1,125,126
 632 566 632 566 672 607 c 1,127,128
 621 638 621 638 536 638 c 0,129,130
 344 638 344 638 248 502 c 128,-1,131
 152 366 152 366 145 134 c 1,132,133
 192 64 192 64 274 64 c 0,134,135
 380 64 380 64 490 172 c 1,136,-1
 509 247 l 1,96,97
664 403 m 1,137,138
 693 431 693 431 709.5 461.5 c 128,-1,139
 726 492 726 492 726 521 c 0,140,141
 726 535 726 535 721 552 c 1,142,143
 664 487 664 487 630 379 c 1,144,-1
 664 403 l 1,137,138
294 306 m 0,146,147
 294 288 294 288 310 278.5 c 128,-1,148
 326 269 326 269 357 269 c 0,149,150
 434 269 434 269 526 315 c 1,151,-1
 529 328 l 1,152,-1
 538 363 l 1,153,-1
 553 413 l 1,154,-1
 552 414 l 1,155,156
 522 379 522 379 472 354 c 128,-1,157
 422 329 422 329 371 329 c 0,158,159
 335 329 335 329 310 343 c 1,160,145
 294 327 294 327 294 306 c 0,146,147
EndSplineSet
EndChar

StartChar: B
Encoding: 66 66 30
Width: 745
VWidth: 1000
GlyphClass: 2
Flags: W
AnchorPoint: "Anchor-6" 0 0 basechar 0
AnchorPoint: "Anchor-5" 489 700 basechar 0
AnchorPoint: "Anchor-4" 0 0 basechar 0
AnchorPoint: "Anchor-3" 314 0 basechar 0
LayerCount: 2
Fore
SplineSet
708 364 m 0,1,2
 718 347 718 347 718 308 c 0,3,4
 718 231 718 231 686 157.5 c 128,-1,5
 654 84 654 84 596.5 37.5 c 128,-1,6
 539 -9 539 -9 468 -9 c 0,7,8
 415 -9 415 -9 382.5 19 c 128,-1,9
 350 47 350 47 337 97 c 1,10,11
 351 83 351 83 384.5 72 c 128,-1,12
 418 61 418 61 453 61 c 0,13,14
 507 61 507 61 547 95 c 128,-1,15
 587 129 587 129 608.5 183 c 128,-1,16
 630 237 630 237 630 296 c 0,17,18
 630 318 630 318 626 331 c 1,19,20
 560 278 560 278 486 278 c 0,21,22
 446 278 446 278 423.5 295 c 128,-1,23
 401 312 401 312 401 342 c 0,24,25
 401 390 401 390 437.5 422 c 128,-1,26
 474 454 474 454 526 454 c 0,27,28
 572 454 572 454 622 429 c 1,29,30
 639 463 639 463 649 500 c 128,-1,31
 659 537 659 537 659 568 c 0,32,33
 659 590 659 590 650 605 c 1,34,35
 599 642 599 642 523 642 c 0,36,37
 428 642 428 642 362 588 c 128,-1,38
 296 534 296 534 268 437 c 1,39,40
 328 479 328 479 396 560 c 1,41,-1
 428 560 l 1,42,-1
 312 92 l 2,43,44
 299 38 299 38 299 14 c 0,45,46
 299 6 299 6 301 0 c 1,47,-1
 189 0 l 1,48,49
 200 14 200 14 207 32 c 128,-1,50
 214 50 214 50 224 92 c 2,51,-1
 282 325 l 2,52,53
 293 371 293 371 309 409 c 1,54,-1
 305 411 l 1,55,56
 282 384 282 384 254 367 c 1,57,58
 252 329 252 329 253 306 c 1,59,60
 239 327 239 327 228 352 c 1,61,62
 176 326 176 326 122 326 c 0,63,64
 75 326 75 326 48.5 348 c 128,-1,65
 22 370 22 370 22 407 c 0,66,67
 22 436 22 436 36.5 463.5 c 128,-1,68
 51 491 51 491 75.5 508.5 c 128,-1,69
 100 526 100 526 129 526 c 0,70,71
 155 526 155 526 169 512 c 128,-1,72
 183 498 183 498 183 476 c 0,73,74
 183 467 183 467 182 462 c 1,75,76
 171 482 171 482 151 482 c 0,77,78
 132 482 132 482 118.5 468.5 c 128,-1,79
 105 455 105 455 105 432 c 0,80,81
 105 415 105 415 118.5 405.5 c 128,-1,82
 132 396 132 396 157 396 c 256,83,84
 182 396 182 396 212 407 c 1,85,86
 209 425 209 425 209 445 c 0,87,88
 209 525 209 525 252 585 c 128,-1,89
 295 645 295 645 369 677.5 c 128,-1,90
 443 710 443 710 532 710 c 0,91,92
 600 710 600 710 647 690 c 128,-1,93
 694 670 694 670 730 623 c 1,94,95
 746 595 746 595 746 567 c 0,96,97
 746 521 746 521 729.5 475 c 128,-1,98
 713 429 713 429 683 389 c 1,99,0
 696 377 696 377 708 364 c 0,1,2
585 375 m 1,101,102
 552 396 552 396 525 396 c 0,103,104
 503 396 503 396 489 385.5 c 128,-1,105
 475 375 475 375 475 359 c 0,106,107
 475 348 475 348 484.5 342 c 128,-1,108
 494 336 494 336 510 336 c 0,109,100
 549 336 549 336 585 375 c 1,101,102
EndSplineSet
EndChar

StartChar: C
Encoding: 67 67 31
Width: 766
VWidth: 1000
GlyphClass: 2
Flags: W
AnchorPoint: "Anchor-6" 0 0 basechar 0
AnchorPoint: "Anchor-5" 559 700 basechar 0
AnchorPoint: "Anchor-4" 0 0 basechar 0
AnchorPoint: "Anchor-3" 413 0 basechar 0
LayerCount: 2
Fore
SplineSet
400 578 m 128,-1,1
 338 518 338 518 300 420 c 1,2,3
 353 442 353 442 409 477.5 c 128,-1,4
 465 513 465 513 516 560 c 1,5,-1
 548 560 l 1,6,-1
 467 232 l 2,7,8
 454 178 454 178 454 154 c 0,9,10
 454 146 454 146 456 140 c 1,11,-1
 346 140 l 1,12,13
 357 154 357 154 364 172 c 128,-1,14
 371 190 371 190 381 232 c 2,15,-1
 406 335 l 2,16,17
 417 381 417 381 433 419 c 1,18,-1
 430 421 l 1,19,20
 360 375 360 375 277 347 c 1,21,22
 257 264 257 264 257 183 c 0,23,24
 257 168 257 168 259 142 c 1,25,26
 286 106 286 106 339 84 c 128,-1,27
 392 62 392 62 463 62 c 0,28,29
 535 62 535 62 598.5 87 c 128,-1,30
 662 112 662 112 737 166 c 1,31,32
 663 85 663 85 589.5 37.5 c 128,-1,33
 516 -10 516 -10 428 -10 c 0,34,35
 345 -10 345 -10 278 33 c 128,-1,36
 211 76 211 76 179 150 c 1,37,38
 172 192 172 192 172 224 c 0,39,40
 172 278 172 278 182 325 c 1,41,42
 154 323 154 323 143 323 c 0,43,44
 88 323 88 323 60.5 343.5 c 128,-1,45
 33 364 33 364 33 401 c 0,46,47
 33 431 33 431 47.5 459.5 c 128,-1,48
 62 488 62 488 86.5 505.5 c 128,-1,49
 111 523 111 523 140 523 c 0,50,51
 166 523 166 523 180 509 c 128,-1,52
 194 495 194 495 194 473 c 0,53,54
 194 464 194 464 193 459 c 1,55,56
 182 479 182 479 162 479 c 256,57,58
 142 479 142 479 129 463.5 c 128,-1,59
 116 448 116 448 116 430 c 256,60,61
 116 412 116 412 132 402.5 c 128,-1,62
 148 393 148 393 179 393 c 0,63,64
 192 393 192 393 199 394 c 1,65,66
 227 481 227 481 278.5 553 c 128,-1,67
 330 625 330 625 400 667.5 c 128,-1,68
 470 710 470 710 550 710 c 0,69,70
 592 710 592 710 654 695 c 0,71,72
 686 688 686 688 708.5 684.5 c 128,-1,73
 731 681 731 681 756 681 c 0,74,75
 816 681 816 681 883 706 c 1,76,77
 856 658 856 658 820 633.5 c 128,-1,78
 784 609 784 609 730 609 c 0,79,80
 707 609 707 609 680.5 613.5 c 128,-1,81
 654 618 654 618 630 624 c 0,82,83
 608 629 608 629 584.5 633.5 c 128,-1,84
 561 638 561 638 542 638 c 0,85,0
 462 638 462 638 400 578 c 128,-1,1
EndSplineSet
EndChar

StartChar: Ccedilla
Encoding: 199 199 34
Width: 766
VWidth: 1000
GlyphClass: 2
Flags: W
AnchorPoint: "Anchor-6" 0 0 basechar 0
AnchorPoint: "Anchor-5" 0 0 basechar 0
AnchorPoint: "Anchor-4" 0 0 basechar 0
AnchorPoint: "Anchor-3" 341 -195 basechar 0
LayerCount: 2
Fore
SplineSet
400 578 m 128,-1,1
 338 518 338 518 300 420 c 1,2,3
 353 442 353 442 409 477.5 c 128,-1,4
 465 513 465 513 516 560 c 1,5,-1
 548 560 l 1,6,-1
 467 232 l 2,7,8
 454 178 454 178 454 154 c 0,9,10
 454 146 454 146 456 140 c 1,11,-1
 346 140 l 1,12,13
 357 154 357 154 364 172 c 128,-1,14
 371 190 371 190 381 232 c 2,15,-1
 406 335 l 2,16,17
 417 381 417 381 433 419 c 1,18,-1
 430 421 l 1,19,20
 360 375 360 375 277 347 c 1,21,22
 257 264 257 264 257 183 c 0,23,24
 257 168 257 168 259 142 c 1,25,26
 286 106 286 106 339 84 c 128,-1,27
 392 62 392 62 463 62 c 0,28,29
 535 62 535 62 598.5 87 c 128,-1,30
 662 112 662 112 737 166 c 1,31,32
 663 85 663 85 589.5 37.5 c 128,-1,33
 516 -10 516 -10 428 -10 c 2,34,-1
 426 -10 l 1,35,-1
 383 -51 l 1,36,37
 421 -51 421 -51 442 -65.5 c 128,-1,38
 463 -80 463 -80 463 -105 c 0,39,40
 463 -146 463 -146 435 -170.5 c 128,-1,41
 407 -195 407 -195 370 -195 c 0,42,43
 334 -195 334 -195 309 -180.5 c 128,-1,44
 284 -166 284 -166 273 -138 c 1,45,46
 299 -151 299 -151 341 -151 c 0,47,48
 395 -151 395 -151 395 -111 c 0,49,50
 395 -100 395 -100 385 -93 c 128,-1,51
 375 -86 375 -86 359 -86 c 0,52,53
 345 -86 345 -86 323 -91 c 1,54,-1
 313 -74 l 1,55,-1
 384 -7 l 1,56,57
 315 4 315 4 260.5 45.5 c 128,-1,58
 206 87 206 87 179 150 c 1,59,60
 172 192 172 192 172 224 c 0,61,62
 172 278 172 278 182 325 c 1,63,64
 154 323 154 323 143 323 c 0,65,66
 88 323 88 323 60.5 343.5 c 128,-1,67
 33 364 33 364 33 401 c 0,68,69
 33 431 33 431 47.5 459.5 c 128,-1,70
 62 488 62 488 86.5 505.5 c 128,-1,71
 111 523 111 523 140 523 c 0,72,73
 166 523 166 523 180 509 c 128,-1,74
 194 495 194 495 194 473 c 0,75,76
 194 464 194 464 193 459 c 1,77,78
 182 479 182 479 162 479 c 256,79,80
 142 479 142 479 129 463.5 c 128,-1,81
 116 448 116 448 116 430 c 256,82,83
 116 412 116 412 132 402.5 c 128,-1,84
 148 393 148 393 179 393 c 0,85,86
 192 393 192 393 199 394 c 1,87,88
 227 481 227 481 278.5 553 c 128,-1,89
 330 625 330 625 400 667.5 c 128,-1,90
 470 710 470 710 550 710 c 0,91,92
 592 710 592 710 654 695 c 0,93,94
 686 688 686 688 708.5 684.5 c 128,-1,95
 731 681 731 681 756 681 c 0,96,97
 816 681 816 681 883 706 c 1,98,99
 856 658 856 658 820 633.5 c 128,-1,100
 784 609 784 609 730 609 c 0,101,102
 707 609 707 609 680.5 613.5 c 128,-1,103
 654 618 654 618 630 624 c 0,104,105
 608 629 608 629 584.5 633.5 c 128,-1,106
 561 638 561 638 542 638 c 0,107,0
 462 638 462 638 400 578 c 128,-1,1
EndSplineSet
EndChar

StartChar: D
Encoding: 68 68 37
Width: 837
VWidth: 1000
GlyphClass: 2
Flags: W
AnchorPoint: "Anchor-6" 0 0 basechar 0
AnchorPoint: "Anchor-5" 535 700 basechar 0
AnchorPoint: "Anchor-4" 0 0 basechar 0
AnchorPoint: "Anchor-3" 360 0 basechar 0
LayerCount: 2
Fore
SplineSet
849 486 m 0,1,2
 849 362 849 362 786.5 247 c 128,-1,3
 724 132 724 132 619.5 61 c 128,-1,4
 515 -10 515 -10 394 -10 c 0,5,6
 301 -10 301 -10 247 30 c 128,-1,7
 193 70 193 70 167 146 c 1,8,9
 201 109 201 109 265 85.5 c 128,-1,10
 329 62 329 62 393 62 c 0,11,12
 493 62 493 62 576 123 c 128,-1,13
 659 184 659 184 707 281 c 128,-1,14
 755 378 755 378 755 482 c 0,15,16
 755 524 755 524 745 574 c 1,17,18
 669 638 669 638 552 638 c 0,19,20
 477 638 477 638 413.5 610.5 c 128,-1,21
 350 583 350 583 311 533 c 128,-1,22
 272 483 272 483 268 418 c 1,23,24
 356 455 356 455 468 560 c 1,25,-1
 500 560 l 1,26,-1
 419 234 l 2,27,28
 406 182 406 182 406 156 c 0,29,30
 406 148 406 148 408 142 c 1,31,-1
 298 142 l 1,32,33
 309 155 309 155 315.5 173 c 128,-1,34
 322 191 322 191 333 234 c 2,35,-1
 344 280 l 1,36,37
 268 292 268 292 233 343 c 1,38,39
 182 326 182 326 134 326 c 0,40,41
 79 326 79 326 51.5 346.5 c 128,-1,42
 24 367 24 367 24 404 c 0,43,44
 24 434 24 434 38.5 462.5 c 128,-1,45
 53 491 53 491 77.5 508.5 c 128,-1,46
 102 526 102 526 131 526 c 0,47,48
 157 526 157 526 171 512 c 128,-1,49
 185 498 185 498 185 476 c 0,50,51
 185 467 185 467 184 462 c 1,52,53
 173 482 173 482 153 482 c 0,54,55
 134 482 134 482 120.5 468.5 c 128,-1,56
 107 455 107 455 107 433 c 0,57,58
 107 415 107 415 122.5 405.5 c 128,-1,59
 138 396 138 396 169 396 c 0,60,61
 191 396 191 396 210 400 c 1,62,63
 207 415 207 415 207 431 c 0,64,65
 207 511 207 511 255 575 c 128,-1,66
 303 639 303 639 382 674.5 c 128,-1,67
 461 710 461 710 551 710 c 0,68,69
 650 710 650 710 726 671.5 c 128,-1,70
 802 633 802 633 838 566 c 1,71,0
 849 525 849 525 849 486 c 0,1,2
382 421 m 1,72,73
 325 383 325 383 276 360 c 1,74,75
 292 315 292 315 345 283 c 1,76,-1
 358 335 l 2,77,78
 369 381 369 381 385 419 c 1,79,-1
 382 421 l 1,72,73
EndSplineSet
EndChar

StartChar: Eth
Encoding: 208 208 38
Width: 837
VWidth: 1000
GlyphClass: 2
Flags: W
AnchorPoint: "Anchor-6" 0 0 basechar 0
AnchorPoint: "Anchor-5" 535 700 basechar 0
AnchorPoint: "Anchor-4" 0 0 basechar 0
AnchorPoint: "Anchor-3" 360 0 basechar 0
LayerCount: 2
Fore
SplineSet
849 486 m 0,1,2
 849 362 849 362 786.5 247 c 128,-1,3
 724 132 724 132 619.5 61 c 128,-1,4
 515 -10 515 -10 394 -10 c 0,5,6
 301 -10 301 -10 247 30 c 128,-1,7
 193 70 193 70 167 146 c 1,8,9
 201 109 201 109 265 85.5 c 128,-1,10
 329 62 329 62 393 62 c 0,11,12
 493 62 493 62 576 123 c 128,-1,13
 659 184 659 184 707 281 c 128,-1,14
 755 378 755 378 755 482 c 0,15,16
 755 524 755 524 745 574 c 1,17,18
 669 638 669 638 552 638 c 0,19,20
 477 638 477 638 413.5 610.5 c 128,-1,21
 350 583 350 583 311 533 c 128,-1,22
 272 483 272 483 268 418 c 1,23,24
 356 455 356 455 468 560 c 1,25,-1
 500 560 l 1,26,-1
 431 282 l 1,27,-1
 573 282 l 1,28,-1
 558 222 l 1,29,-1
 416 222 l 1,30,31
 406 177 406 177 406 157 c 0,32,33
 406 150 406 150 408 142 c 1,34,-1
 298 142 l 1,35,36
 308 155 308 155 314.5 170.5 c 128,-1,37
 321 186 321 186 330 222 c 1,38,-1
 149 222 l 1,39,-1
 163 282 l 1,40,-1
 332 282 l 1,41,42
 267 297 267 297 233 343 c 1,43,44
 182 326 182 326 134 326 c 0,45,46
 79 326 79 326 51.5 346.5 c 128,-1,47
 24 367 24 367 24 404 c 0,48,49
 24 434 24 434 38.5 462.5 c 128,-1,50
 53 491 53 491 77.5 508.5 c 128,-1,51
 102 526 102 526 131 526 c 0,52,53
 157 526 157 526 171 512 c 128,-1,54
 185 498 185 498 185 476 c 0,55,56
 185 467 185 467 184 462 c 1,57,58
 173 482 173 482 153 482 c 0,59,60
 134 482 134 482 120.5 468.5 c 128,-1,61
 107 455 107 455 107 433 c 0,62,63
 107 415 107 415 122.5 405.5 c 128,-1,64
 138 396 138 396 169 396 c 0,65,66
 191 396 191 396 210 400 c 1,67,68
 207 415 207 415 207 431 c 0,69,70
 207 511 207 511 255 575 c 128,-1,71
 303 639 303 639 382 674.5 c 128,-1,72
 461 710 461 710 551 710 c 0,73,74
 650 710 650 710 726 671.5 c 128,-1,75
 802 633 802 633 838 566 c 1,76,0
 849 525 849 525 849 486 c 0,1,2
382 421 m 1,77,78
 325 383 325 383 276 360 c 1,79,80
 292 315 292 315 345 283 c 1,81,-1
 358 335 l 2,82,83
 369 381 369 381 385 419 c 1,84,-1
 382 421 l 1,77,78
EndSplineSet
EndChar

StartChar: Dcroat
Encoding: 272 272 40
Width: 837
VWidth: 1000
GlyphClass: 2
Flags: W
AnchorPoint: "Anchor-6" 0 0 basechar 0
AnchorPoint: "Anchor-5" 535 700 basechar 0
AnchorPoint: "Anchor-4" 0 0 basechar 0
AnchorPoint: "Anchor-3" 360 0 basechar 0
LayerCount: 2
Fore
SplineSet
849 486 m 0,1,2
 849 362 849 362 786.5 247 c 128,-1,3
 724 132 724 132 619.5 61 c 128,-1,4
 515 -10 515 -10 394 -10 c 0,5,6
 301 -10 301 -10 247 30 c 128,-1,7
 193 70 193 70 167 146 c 1,8,9
 201 109 201 109 265 85.5 c 128,-1,10
 329 62 329 62 393 62 c 0,11,12
 493 62 493 62 576 123 c 128,-1,13
 659 184 659 184 707 281 c 128,-1,14
 755 378 755 378 755 482 c 0,15,16
 755 524 755 524 745 574 c 1,17,18
 669 638 669 638 552 638 c 0,19,20
 477 638 477 638 413.5 610.5 c 128,-1,21
 350 583 350 583 311 533 c 128,-1,22
 272 483 272 483 268 418 c 1,23,24
 356 455 356 455 468 560 c 1,25,-1
 500 560 l 1,26,-1
 431 282 l 1,27,-1
 573 282 l 1,28,-1
 558 222 l 1,29,-1
 416 222 l 1,30,31
 406 177 406 177 406 157 c 0,32,33
 406 150 406 150 408 142 c 1,34,-1
 298 142 l 1,35,36
 308 155 308 155 314.5 170.5 c 128,-1,37
 321 186 321 186 330 222 c 1,38,-1
 149 222 l 1,39,-1
 163 282 l 1,40,-1
 332 282 l 1,41,42
 267 297 267 297 233 343 c 1,43,44
 182 326 182 326 134 326 c 0,45,46
 79 326 79 326 51.5 346.5 c 128,-1,47
 24 367 24 367 24 404 c 0,48,49
 24 434 24 434 38.5 462.5 c 128,-1,50
 53 491 53 491 77.5 508.5 c 128,-1,51
 102 526 102 526 131 526 c 0,52,53
 157 526 157 526 171 512 c 128,-1,54
 185 498 185 498 185 476 c 0,55,56
 185 467 185 467 184 462 c 1,57,58
 173 482 173 482 153 482 c 0,59,60
 134 482 134 482 120.5 468.5 c 128,-1,61
 107 455 107 455 107 433 c 0,62,63
 107 415 107 415 122.5 405.5 c 128,-1,64
 138 396 138 396 169 396 c 0,65,66
 191 396 191 396 210 400 c 1,67,68
 207 415 207 415 207 431 c 0,69,70
 207 511 207 511 255 575 c 128,-1,71
 303 639 303 639 382 674.5 c 128,-1,72
 461 710 461 710 551 710 c 0,73,74
 650 710 650 710 726 671.5 c 128,-1,75
 802 633 802 633 838 566 c 1,76,0
 849 525 849 525 849 486 c 0,1,2
382 421 m 1,77,78
 325 383 325 383 276 360 c 1,79,80
 292 315 292 315 345 283 c 1,81,-1
 358 335 l 2,82,83
 369 381 369 381 385 419 c 1,84,-1
 382 421 l 1,77,78
EndSplineSet
EndChar

StartChar: E
Encoding: 69 69 43
Width: 766
VWidth: 1000
GlyphClass: 2
Flags: W
AnchorPoint: "Anchor-6" 0 0 basechar 0
AnchorPoint: "Anchor-5" 559 700 basechar 0
AnchorPoint: "Anchor-4" 587 55 basechar 0
AnchorPoint: "Anchor-3" 394 0 basechar 0
LayerCount: 2
Fore
SplineSet
400 578 m 128,-1,1
 338 518 338 518 300 420 c 1,2,3
 353 442 353 442 409 477.5 c 128,-1,4
 465 513 465 513 516 560 c 1,5,-1
 548 560 l 1,6,-1
 499 362 l 1,7,-1
 503 362 l 1,8,9
 529 402 529 402 566 427.5 c 128,-1,10
 603 453 603 453 639 453 c 0,11,12
 673 453 673 453 692 430 c 128,-1,13
 711 407 711 407 711 369 c 0,14,15
 711 355 711 355 710 348 c 1,16,17
 685 385 685 385 640 385 c 0,18,19
 593 385 593 385 553 350 c 128,-1,20
 513 315 513 315 472 252 c 1,21,-1
 467 232 l 2,22,23
 454 178 454 178 454 154 c 0,24,25
 454 146 454 146 456 140 c 1,26,-1
 346 140 l 1,27,28
 357 154 357 154 364 172 c 128,-1,29
 371 190 371 190 381 232 c 2,30,-1
 406 335 l 2,31,32
 417 381 417 381 433 419 c 1,33,-1
 430 421 l 1,34,35
 360 375 360 375 277 347 c 1,36,37
 257 264 257 264 257 183 c 0,38,39
 257 168 257 168 259 142 c 1,40,41
 286 106 286 106 339 84 c 128,-1,42
 392 62 392 62 463 62 c 0,43,44
 535 62 535 62 598.5 87 c 128,-1,45
 662 112 662 112 737 166 c 1,46,47
 663 85 663 85 589.5 37.5 c 128,-1,48
 516 -10 516 -10 428 -10 c 0,49,50
 345 -10 345 -10 278 33 c 128,-1,51
 211 76 211 76 179 150 c 1,52,53
 172 192 172 192 172 224 c 0,54,55
 172 278 172 278 182 325 c 1,56,57
 154 323 154 323 143 323 c 0,58,59
 88 323 88 323 60.5 343.5 c 128,-1,60
 33 364 33 364 33 401 c 0,61,62
 33 431 33 431 47.5 459.5 c 128,-1,63
 62 488 62 488 86.5 505.5 c 128,-1,64
 111 523 111 523 140 523 c 0,65,66
 166 523 166 523 180 509 c 128,-1,67
 194 495 194 495 194 473 c 0,68,69
 194 464 194 464 193 459 c 1,70,71
 182 479 182 479 162 479 c 256,72,73
 142 479 142 479 129 463.5 c 128,-1,74
 116 448 116 448 116 430 c 256,75,76
 116 412 116 412 132 402.5 c 128,-1,77
 148 393 148 393 179 393 c 0,78,79
 192 393 192 393 199 394 c 1,80,81
 227 481 227 481 278.5 553 c 128,-1,82
 330 625 330 625 400 667.5 c 128,-1,83
 470 710 470 710 550 710 c 0,84,85
 592 710 592 710 654 695 c 0,86,87
 686 688 686 688 708.5 684.5 c 128,-1,88
 731 681 731 681 756 681 c 0,89,90
 816 681 816 681 883 706 c 1,91,92
 856 658 856 658 820 633.5 c 128,-1,93
 784 609 784 609 730 609 c 0,94,95
 707 609 707 609 680.5 613.5 c 128,-1,96
 654 618 654 618 630 624 c 0,97,98
 608 629 608 629 584.5 633.5 c 128,-1,99
 561 638 561 638 542 638 c 0,100,0
 462 638 462 638 400 578 c 128,-1,1
EndSplineSet
EndChar

StartChar: Eogonek
Encoding: 280 280 59
Width: 766
VWidth: 1000
GlyphClass: 2
Flags: W
AnchorPoint: "Anchor-6" 0 0 basechar 0
AnchorPoint: "Anchor-5" 559 700 basechar 0
AnchorPoint: "Anchor-4" 587 55 basechar 0
AnchorPoint: "Anchor-3" 394 0 basechar 0
LayerCount: 2
Fore
SplineSet
400 578 m 128,-1,1
 338 518 338 518 300 420 c 1,2,3
 353 442 353 442 409 477.5 c 128,-1,4
 465 513 465 513 516 560 c 1,5,-1
 548 560 l 1,6,-1
 499 362 l 1,7,-1
 503 362 l 1,8,9
 529 402 529 402 566 427.5 c 128,-1,10
 603 453 603 453 639 453 c 0,11,12
 673 453 673 453 692 430 c 128,-1,13
 711 407 711 407 711 369 c 0,14,15
 711 355 711 355 710 348 c 1,16,17
 685 385 685 385 640 385 c 0,18,19
 593 385 593 385 553 350 c 128,-1,20
 513 315 513 315 472 252 c 1,21,-1
 467 232 l 2,22,23
 454 178 454 178 454 154 c 0,24,25
 454 146 454 146 456 140 c 1,26,-1
 346 140 l 1,27,28
 357 154 357 154 364 172 c 128,-1,29
 371 190 371 190 381 232 c 2,30,-1
 406 335 l 2,31,32
 417 381 417 381 433 419 c 1,33,-1
 430 421 l 1,34,35
 360 375 360 375 277 347 c 1,36,37
 257 264 257 264 257 183 c 0,38,39
 257 168 257 168 259 142 c 1,40,41
 286 106 286 106 339 84 c 128,-1,42
 392 62 392 62 463 62 c 0,43,44
 535 62 535 62 598.5 87 c 128,-1,45
 662 112 662 112 737 166 c 1,46,47
 696 122 696 122 658.5 88.5 c 128,-1,48
 621 55 621 55 580 32 c 1,49,50
 531 -9 531 -9 531 -46 c 0,51,52
 531 -61 531 -61 539.5 -69.5 c 128,-1,53
 548 -78 548 -78 564 -78 c 256,54,55
 580 -78 580 -78 598 -68 c 1,56,57
 564 -130 564 -130 511 -130 c 0,58,59
 485 -130 485 -130 469 -114.5 c 128,-1,60
 453 -99 453 -99 453 -74 c 0,61,62
 453 -37 453 -37 483 -5 c 1,63,64
 453 -10 453 -10 428 -10 c 0,65,66
 345 -10 345 -10 278 33 c 128,-1,67
 211 76 211 76 179 150 c 1,68,69
 172 192 172 192 172 224 c 0,70,71
 172 278 172 278 182 325 c 1,72,73
 154 323 154 323 143 323 c 0,74,75
 88 323 88 323 60.5 343.5 c 128,-1,76
 33 364 33 364 33 401 c 0,77,78
 33 431 33 431 47.5 459.5 c 128,-1,79
 62 488 62 488 86.5 505.5 c 128,-1,80
 111 523 111 523 140 523 c 0,81,82
 166 523 166 523 180 509 c 128,-1,83
 194 495 194 495 194 473 c 0,84,85
 194 464 194 464 193 459 c 1,86,87
 182 479 182 479 162 479 c 256,88,89
 142 479 142 479 129 463.5 c 128,-1,90
 116 448 116 448 116 430 c 256,91,92
 116 412 116 412 132 402.5 c 128,-1,93
 148 393 148 393 179 393 c 0,94,95
 192 393 192 393 199 394 c 1,96,97
 227 481 227 481 278.5 553 c 128,-1,98
 330 625 330 625 400 667.5 c 128,-1,99
 470 710 470 710 550 710 c 0,100,101
 592 710 592 710 654 695 c 0,102,103
 686 688 686 688 708.5 684.5 c 128,-1,104
 731 681 731 681 756 681 c 0,105,106
 816 681 816 681 883 706 c 1,107,108
 856 658 856 658 820 633.5 c 128,-1,109
 784 609 784 609 730 609 c 0,110,111
 707 609 707 609 680.5 613.5 c 128,-1,112
 654 618 654 618 630 624 c 0,113,114
 608 629 608 629 584.5 633.5 c 128,-1,115
 561 638 561 638 542 638 c 0,116,0
 462 638 462 638 400 578 c 128,-1,1
EndSplineSet
EndChar

StartChar: F
Encoding: 70 70 61
Width: 722
VWidth: 1000
GlyphClass: 2
Flags: W
AnchorPoint: "Anchor-6" 0 0 basechar 0
AnchorPoint: "Anchor-5" 477 700 basechar 0
AnchorPoint: "Anchor-4" 0 0 basechar 0
AnchorPoint: "Anchor-3" 302 0 basechar 0
LayerCount: 2
Fore
SplineSet
839 706 m 1,1,2
 812 658 812 658 775 633.5 c 128,-1,3
 738 609 738 609 684 609 c 0,4,5
 645 609 645 609 587 624 c 0,6,7
 565 629 565 629 541 633.5 c 128,-1,8
 517 638 517 638 496 638 c 0,9,10
 438 638 438 638 387.5 607.5 c 128,-1,11
 337 577 337 577 305 526.5 c 128,-1,12
 273 476 273 476 267 419 c 1,13,14
 347 454 347 454 462 560 c 1,15,-1
 494 560 l 1,16,-1
 440 342 l 1,17,-1
 444 342 l 1,18,19
 470 382 470 382 508 407.5 c 128,-1,20
 546 433 546 433 585 433 c 0,21,22
 621 433 621 433 641.5 410 c 128,-1,23
 662 387 662 387 662 350 c 0,24,25
 662 344 662 344 660 328 c 1,26,27
 636 365 636 365 586 365 c 256,28,29
 536 365 536 365 495 330.5 c 128,-1,30
 454 296 454 296 412 232 c 1,31,-1
 377 92 l 2,32,33
 364 40 364 40 364 14 c 0,34,35
 364 6 364 6 366 0 c 1,36,-1
 256 0 l 1,37,38
 267 13 267 13 273.5 31 c 128,-1,39
 280 49 280 49 291 92 c 2,40,-1
 352 335 l 2,41,42
 363 381 363 381 379 419 c 1,43,-1
 375 421 l 1,44,45
 318 383 318 383 269 360 c 1,46,47
 274 334 274 334 289 306 c 1,48,49
 267 324 267 324 248 350 c 1,50,51
 189 326 189 326 134 326 c 256,52,53
 79 326 79 326 51.5 346.5 c 128,-1,54
 24 367 24 367 24 404 c 0,55,56
 24 435 24 435 38 463 c 128,-1,57
 52 491 52 491 76.5 508.5 c 128,-1,58
 101 526 101 526 131 526 c 0,59,60
 157 526 157 526 171 512 c 128,-1,61
 185 498 185 498 185 476 c 0,62,63
 185 467 185 467 184 462 c 1,64,65
 173 482 173 482 153 482 c 0,66,67
 134 482 134 482 120.5 468 c 128,-1,68
 107 454 107 454 107 434 c 0,69,70
 107 396 107 396 169 396 c 0,71,72
 196 396 196 396 221 403 c 1,73,74
 213 432 213 432 213 457 c 0,75,76
 213 527 213 527 254.5 585 c 128,-1,77
 296 643 296 643 363.5 676.5 c 128,-1,78
 431 710 431 710 506 710 c 0,79,80
 549 710 549 710 609 695 c 0,81,82
 641 688 641 688 663.5 684.5 c 128,-1,83
 686 681 686 681 711 681 c 0,84,0
 772 681 772 681 839 706 c 1,1,2
EndSplineSet
EndChar

StartChar: G
Encoding: 71 71 62
Width: 860
VWidth: 1000
GlyphClass: 2
Flags: W
AnchorPoint: "Anchor-6" 0 0 basechar 0
AnchorPoint: "Anchor-5" 586 700 basechar 0
AnchorPoint: "Anchor-4" 0 0 basechar 0
AnchorPoint: "Anchor-3" 441 0 basechar 0
LayerCount: 2
Fore
SplineSet
408 579 m 128,-1,1
 342 520 342 520 302 422 c 1,2,3
 407 467 407 467 507 560 c 1,4,-1
 539 560 l 1,5,-1
 500 403 l 1,6,-1
 504 403 l 1,7,8
 533 444 533 444 578 469 c 128,-1,9
 623 494 623 494 675 494 c 0,10,11
 783 494 783 494 840 383 c 0,12,13
 850 355 850 355 850 328 c 0,14,15
 850 233 850 233 795 155.5 c 128,-1,16
 740 78 740 78 648.5 34 c 128,-1,17
 557 -10 557 -10 453 -10 c 0,18,19
 248 -10 248 -10 179 150 c 1,20,21
 172 192 172 192 172 224 c 0,22,23
 172 278 172 278 182 325 c 1,24,25
 156 323 156 323 143 323 c 0,26,27
 88 323 88 323 60.5 343.5 c 128,-1,28
 33 364 33 364 33 401 c 0,29,30
 33 431 33 431 47.5 459.5 c 128,-1,31
 62 488 62 488 86.5 505.5 c 128,-1,32
 111 523 111 523 140 523 c 0,33,34
 166 523 166 523 180 509 c 128,-1,35
 194 495 194 495 194 473 c 0,36,37
 194 464 194 464 193 459 c 1,38,39
 182 479 182 479 162 479 c 256,40,41
 142 479 142 479 129 463.5 c 128,-1,42
 116 448 116 448 116 430 c 256,43,44
 116 412 116 412 132 402.5 c 128,-1,45
 148 393 148 393 179 393 c 0,46,47
 193 393 193 393 200 394 c 1,48,49
 229 482 229 482 283.5 554 c 128,-1,50
 338 626 338 626 412 668 c 128,-1,51
 486 710 486 710 569 710 c 0,52,53
 613 710 613 710 675 695 c 0,54,55
 737 681 737 681 776 681 c 0,56,57
 836 681 836 681 903 706 c 1,58,59
 878 660 878 660 832 634.5 c 128,-1,60
 786 609 786 609 729 609 c 0,61,62
 691 609 691 609 642 624 c 0,63,64
 615 631 615 631 598 634.5 c 128,-1,65
 581 638 581 638 560 638 c 0,66,0
 474 638 474 638 408 579 c 128,-1,1
278 349 m 1,68,69
 257 268 257 268 257 183 c 0,70,71
 257 168 257 168 259 142 c 1,72,73
 286 106 286 106 339 84 c 128,-1,74
 392 62 392 62 463 62 c 0,75,76
 548 62 548 62 616 97.5 c 128,-1,77
 684 133 684 133 722.5 195.5 c 128,-1,78
 761 258 761 258 761 336 c 0,79,80
 761 360 761 360 754 391 c 1,81,82
 713 426 713 426 658 426 c 0,83,84
 556 426 556 426 475 303 c 1,85,-1
 458 232 l 2,86,87
 445 178 445 178 445 154 c 0,88,89
 445 146 445 146 447 140 c 1,90,-1
 337 140 l 1,91,92
 348 154 348 154 355 172 c 128,-1,93
 362 190 362 190 372 232 c 2,94,-1
 397 335 l 2,95,96
 408 381 408 381 424 419 c 1,97,-1
 421 421 l 1,98,67
 346 373 346 373 278 349 c 1,68,69
EndSplineSet
EndChar

StartChar: H
Encoding: 72 72 69
Width: 821
VWidth: 1000
GlyphClass: 2
Flags: W
AnchorPoint: "Anchor-6" 0 0 basechar 0
AnchorPoint: "Anchor-5" 547 700 basechar 0
AnchorPoint: "Anchor-4" 0 0 basechar 0
AnchorPoint: "Anchor-3" 322 0 basechar 0
LayerCount: 2
Fore
SplineSet
795 383 m 0,1,2
 804 358 804 358 804 329 c 0,3,4
 804 252 804 252 774.5 173.5 c 128,-1,5
 745 95 745 95 684.5 43 c 128,-1,6
 624 -9 624 -9 537 -9 c 0,7,8
 490 -9 490 -9 459 19 c 128,-1,9
 428 47 428 47 415 97 c 1,10,11
 460 61 460 61 514 61 c 0,12,13
 570 61 570 61 616.5 102.5 c 128,-1,14
 663 144 663 144 689 208.5 c 128,-1,15
 715 273 715 273 715 338 c 0,16,17
 715 366 715 366 709 391 c 1,18,19
 668 426 668 426 613 426 c 0,20,21
 511 426 511 426 430 303 c 1,22,-1
 378 92 l 2,23,24
 365 38 365 38 365 14 c 0,25,26
 365 6 365 6 367 0 c 1,27,-1
 257 0 l 1,28,29
 268 14 268 14 275 32 c 128,-1,30
 282 50 282 50 292 92 c 2,31,-1
 352 335 l 2,32,33
 363 381 363 381 379 419 c 1,34,-1
 376 421 l 1,35,36
 315 381 315 381 269 359 c 1,37,38
 274 334 274 334 289 306 c 1,39,40
 264 326 264 326 248 350 c 1,41,42
 189 326 189 326 134 326 c 256,43,44
 79 326 79 326 51.5 346.5 c 128,-1,45
 24 367 24 367 24 404 c 0,46,47
 24 434 24 434 38.5 462.5 c 128,-1,48
 53 491 53 491 77.5 508.5 c 128,-1,49
 102 526 102 526 131 526 c 0,50,51
 157 526 157 526 171 512 c 128,-1,52
 185 498 185 498 185 476 c 0,53,54
 185 467 185 467 184 462 c 1,55,56
 173 482 173 482 153 482 c 0,57,58
 134 482 134 482 120.5 468.5 c 128,-1,59
 107 455 107 455 107 433 c 0,60,61
 107 415 107 415 122.5 405.5 c 128,-1,62
 138 396 138 396 169 396 c 0,63,64
 196 396 196 396 221 403 c 1,65,66
 213 432 213 432 213 457 c 0,67,68
 213 527 213 527 254.5 585 c 128,-1,69
 296 643 296 643 363.5 676.5 c 128,-1,70
 431 710 431 710 506 710 c 0,71,72
 549 710 549 710 609 695 c 0,73,74
 641 688 641 688 663.5 684.5 c 128,-1,75
 686 681 686 681 711 681 c 0,76,77
 772 681 772 681 839 706 c 1,78,79
 812 658 812 658 775 633.5 c 128,-1,80
 738 609 738 609 684 609 c 0,81,82
 645 609 645 609 587 624 c 0,83,84
 565 629 565 629 541 633.5 c 128,-1,85
 517 638 517 638 496 638 c 0,86,87
 438 638 438 638 387.5 607.5 c 128,-1,88
 337 577 337 577 305 526.5 c 128,-1,89
 273 476 273 476 267 419 c 1,90,91
 347 454 347 454 462 560 c 1,92,-1
 494 560 l 1,93,-1
 455 403 l 1,94,-1
 459 403 l 1,95,96
 488 444 488 444 533 469 c 128,-1,97
 578 494 578 494 630 494 c 0,98,0
 738 494 738 494 795 383 c 0,1,2
EndSplineSet
EndChar

StartChar: Hbar
Encoding: 294 294 70
Width: 821
VWidth: 1000
GlyphClass: 2
Flags: W
AnchorPoint: "Anchor-6" 0 0 basechar 0
AnchorPoint: "Anchor-5" 547 700 basechar 0
AnchorPoint: "Anchor-4" 0 0 basechar 0
AnchorPoint: "Anchor-3" 322 0 basechar 0
LayerCount: 2
Fore
SplineSet
485 522 m 1,0,-1
 455 403 l 1,1,-1
 459 403 l 1,2,3
 488 444 488 444 533 469 c 128,-1,4
 578 494 578 494 630 494 c 0,5,6
 738 494 738 494 795 383 c 0,7,8
 804 358 804 358 804 329 c 0,9,10
 804 252 804 252 774.5 173.5 c 128,-1,11
 745 95 745 95 684.5 43 c 128,-1,12
 624 -9 624 -9 537 -9 c 0,13,14
 490 -9 490 -9 459 19 c 128,-1,15
 428 47 428 47 415 97 c 1,16,17
 460 61 460 61 514 61 c 0,18,19
 570 61 570 61 616.5 102.5 c 128,-1,20
 663 144 663 144 689 208.5 c 128,-1,21
 715 273 715 273 715 338 c 0,22,23
 715 366 715 366 709 391 c 1,24,25
 668 426 668 426 613 426 c 0,26,27
 511 426 511 426 430 303 c 1,28,-1
 378 92 l 2,29,30
 365 38 365 38 365 14 c 0,31,32
 365 6 365 6 367 0 c 1,33,-1
 257 0 l 1,34,35
 268 14 268 14 275 32 c 128,-1,36
 282 50 282 50 292 92 c 2,37,-1
 352 335 l 2,38,39
 363 381 363 381 379 419 c 1,40,-1
 376 421 l 1,41,42
 315 381 315 381 269 359 c 1,43,44
 274 334 274 334 289 306 c 1,45,46
 264 326 264 326 248 350 c 1,47,48
 189 326 189 326 134 326 c 256,49,50
 79 326 79 326 51.5 346.5 c 128,-1,51
 24 367 24 367 24 404 c 0,52,53
 24 434 24 434 38.5 462.5 c 128,-1,54
 53 491 53 491 77.5 508.5 c 128,-1,55
 102 526 102 526 131 526 c 0,56,57
 157 526 157 526 171 512 c 128,-1,58
 185 498 185 498 185 476 c 0,59,60
 185 467 185 467 184 462 c 1,61,62
 173 482 173 482 153 482 c 0,63,64
 134 482 134 482 120.5 468.5 c 128,-1,65
 107 455 107 455 107 433 c 0,66,67
 107 415 107 415 122.5 405.5 c 128,-1,68
 138 396 138 396 169 396 c 0,69,70
 196 396 196 396 221 403 c 1,71,72
 213 432 213 432 213 457 c 0,73,74
 213 492 213 492 223 522 c 1,75,-1
 179 522 l 1,76,-1
 193 582 l 1,77,-1
 252 582 l 1,78,79
 292 641 292 641 361 675.5 c 128,-1,80
 430 710 430 710 506 710 c 0,81,82
 549 710 549 710 609 695 c 0,83,84
 641 688 641 688 663.5 684.5 c 128,-1,85
 686 681 686 681 711 681 c 0,86,87
 772 681 772 681 839 706 c 1,88,89
 812 658 812 658 775 633.5 c 128,-1,90
 738 609 738 609 684 609 c 0,91,92
 645 609 645 609 587 624 c 0,93,94
 565 629 565 629 541 633.5 c 128,-1,95
 517 638 517 638 496 638 c 0,96,97
 457 638 457 638 420 623 c 128,-1,98
 383 608 383 608 353 582 c 1,99,-1
 813 582 l 1,100,-1
 798 522 l 1,101,-1
 485 522 l 1,0,-1
419 522 m 1,103,-1
 302 522 l 1,104,105
 273 475 273 475 267 419 c 1,106,102
 333 448 333 448 419 522 c 1,103,-1
EndSplineSet
EndChar

StartChar: I
Encoding: 73 73 74
Width: 541
VWidth: 1000
GlyphClass: 2
Flags: W
AnchorPoint: "Anchor-6" 0 0 basechar 0
AnchorPoint: "Anchor-5" 387 700 basechar 0
AnchorPoint: "Anchor-4" 212 10 basechar 0
AnchorPoint: "Anchor-3" 212 0 basechar 0
LayerCount: 2
Fore
SplineSet
561 116 m 1,1,2
 529 162 529 162 469 194 c 1,3,4
 431 99 431 99 349.5 44.5 c 128,-1,5
 268 -10 268 -10 161 -10 c 0,6,7
 97 -10 97 -10 50 10.5 c 128,-1,8
 3 31 3 31 -14 66 c 0,9,10
 -17 77 -17 77 -17 90 c 0,11,12
 -17 158 -17 158 17 209.5 c 128,-1,13
 51 261 51 261 111 288.5 c 128,-1,14
 171 316 171 316 246 316 c 0,15,16
 335 316 335 316 407 279 c 1,17,-1
 457 481 l 2,18,19
 468 527 468 527 484 565 c 1,20,-1
 481 567 l 1,21,22
 404 517 404 517 349 494.5 c 128,-1,23
 294 472 294 472 239 472 c 256,24,25
 184 472 184 472 156.5 492.5 c 128,-1,26
 129 513 129 513 129 550 c 0,27,28
 129 580 129 580 143.5 608.5 c 128,-1,29
 158 637 158 637 182.5 654.5 c 128,-1,30
 207 672 207 672 236 672 c 0,31,32
 262 672 262 672 276 658 c 128,-1,33
 290 644 290 644 290 622 c 0,34,35
 290 613 290 613 289 608 c 1,36,37
 278 628 278 628 258 628 c 0,38,39
 239 628 239 628 225.5 614.5 c 128,-1,40
 212 601 212 601 212 579 c 0,41,42
 212 561 212 561 227.5 551.5 c 128,-1,43
 243 542 243 542 274 542 c 0,44,45
 336 542 336 542 406.5 582.5 c 128,-1,46
 477 623 477 623 567 706 c 1,47,-1
 599 706 l 1,48,-1
 483 239 l 1,49,-1
 480 228 l 1,50,0
 531 180 531 180 561 116 c 1,1,2
311.5 105.5 m 128,-1,52
 370 149 370 149 393 225 c 1,53,54
 328 244 328 244 262 244 c 0,55,56
 171 244 171 244 122 206.5 c 128,-1,57
 73 169 73 169 73 91 c 1,58,59
 82 78 82 78 110 70 c 128,-1,60
 138 62 138 62 173 62 c 0,61,51
 253 62 253 62 311.5 105.5 c 128,-1,52
EndSplineSet
EndChar

StartChar: Iogonek
Encoding: 302 302 86
Width: 541
VWidth: 1000
GlyphClass: 2
Flags: W
AnchorPoint: "Anchor-6" 0 0 basechar 0
AnchorPoint: "Anchor-5" 387 700 basechar 0
AnchorPoint: "Anchor-4" 212 10 basechar 0
AnchorPoint: "Anchor-3" 212 0 basechar 0
LayerCount: 2
Fore
SplineSet
561 116 m 1,1,2
 529 162 529 162 469 194 c 1,3,4
 436 111 436 111 369 59 c 128,-1,5
 302 7 302 7 214 -6 c 1,6,7
 188 -25 188 -25 172 -47 c 128,-1,8
 156 -69 156 -69 156 -91 c 0,9,10
 156 -106 156 -106 164.5 -114.5 c 128,-1,11
 173 -123 173 -123 189 -123 c 256,12,13
 205 -123 205 -123 223 -113 c 1,14,15
 189 -175 189 -175 136 -175 c 0,16,17
 110 -175 110 -175 94 -159.5 c 128,-1,18
 78 -144 78 -144 78 -119 c 0,19,20
 78 -86 78 -86 100.5 -58.5 c 128,-1,21
 123 -31 123 -31 157 -10 c 1,22,23
 95 -9 95 -9 49 11.5 c 128,-1,24
 3 32 3 32 -14 66 c 0,25,26
 -17 77 -17 77 -17 90 c 0,27,28
 -17 158 -17 158 17 209.5 c 128,-1,29
 51 261 51 261 111 288.5 c 128,-1,30
 171 316 171 316 246 316 c 0,31,32
 335 316 335 316 407 279 c 1,33,-1
 457 481 l 2,34,35
 468 527 468 527 484 565 c 1,36,-1
 481 567 l 1,37,38
 404 517 404 517 349 494.5 c 128,-1,39
 294 472 294 472 239 472 c 256,40,41
 184 472 184 472 156.5 492.5 c 128,-1,42
 129 513 129 513 129 550 c 0,43,44
 129 580 129 580 143.5 608.5 c 128,-1,45
 158 637 158 637 182.5 654.5 c 128,-1,46
 207 672 207 672 236 672 c 0,47,48
 262 672 262 672 276 658 c 128,-1,49
 290 644 290 644 290 622 c 0,50,51
 290 613 290 613 289 608 c 1,52,53
 278 628 278 628 258 628 c 0,54,55
 239 628 239 628 225.5 614.5 c 128,-1,56
 212 601 212 601 212 579 c 0,57,58
 212 561 212 561 227.5 551.5 c 128,-1,59
 243 542 243 542 274 542 c 0,60,61
 336 542 336 542 406.5 582.5 c 128,-1,62
 477 623 477 623 567 706 c 1,63,-1
 599 706 l 1,64,-1
 483 239 l 1,65,-1
 480 228 l 1,66,0
 531 180 531 180 561 116 c 1,1,2
311.5 105.5 m 128,-1,68
 370 149 370 149 393 225 c 1,69,70
 328 244 328 244 262 244 c 0,71,72
 171 244 171 244 122 206.5 c 128,-1,73
 73 169 73 169 73 91 c 1,74,75
 82 78 82 78 110 70 c 128,-1,76
 138 62 138 62 173 62 c 0,77,67
 253 62 253 62 311.5 105.5 c 128,-1,68
EndSplineSet
EndChar

StartChar: J
Encoding: 74 74 88
Width: 541
VWidth: 1000
GlyphClass: 2
Flags: W
AnchorPoint: "Anchor-6" 0 0 basechar 0
AnchorPoint: "Anchor-5" 387 700 basechar 0
AnchorPoint: "Anchor-4" 0 0 basechar 0
AnchorPoint: "Anchor-3" 212 0 basechar 0
LayerCount: 2
Fore
SplineSet
499 -134 m 1,1,2
 467 -88 467 -88 407 -56 c 1,3,4
 369 -151 369 -151 287.5 -205.5 c 128,-1,5
 206 -260 206 -260 99 -260 c 0,6,7
 35 -260 35 -260 -12 -239.5 c 128,-1,8
 -59 -219 -59 -219 -76 -184 c 0,9,10
 -79 -174 -79 -174 -79 -160 c 0,11,12
 -79 -92 -79 -92 -45 -40.5 c 128,-1,13
 -11 11 -11 11 49 38.5 c 128,-1,14
 109 66 109 66 184 66 c 0,15,16
 273 66 273 66 345 29 c 1,17,-1
 457 481 l 2,18,19
 472 536 472 536 484 565 c 1,20,-1
 481 567 l 1,21,22
 404 517 404 517 349 494.5 c 128,-1,23
 294 472 294 472 239 472 c 256,24,25
 184 472 184 472 156.5 492.5 c 128,-1,26
 129 513 129 513 129 550 c 0,27,28
 129 580 129 580 143.5 608.5 c 128,-1,29
 158 637 158 637 182.5 654.5 c 128,-1,30
 207 672 207 672 236 672 c 0,31,32
 262 672 262 672 276 658 c 128,-1,33
 290 644 290 644 290 622 c 0,34,35
 290 613 290 613 289 608 c 1,36,37
 278 628 278 628 258 628 c 0,38,39
 239 628 239 628 225.5 614.5 c 128,-1,40
 212 601 212 601 212 579 c 0,41,42
 212 561 212 561 228 551.5 c 128,-1,43
 244 542 244 542 275 542 c 0,44,45
 337 542 337 542 407 582.5 c 128,-1,46
 477 623 477 623 567 706 c 1,47,-1
 599 706 l 1,48,-1
 421 -11 l 1,49,-1
 418 -22 l 1,50,0
 467 -68 467 -68 499 -134 c 1,1,2
249.5 -144.5 m 128,-1,52
 308 -101 308 -101 331 -25 c 1,53,54
 266 -6 266 -6 200 -6 c 0,55,56
 11 -6 11 -6 11 -159 c 1,57,58
 20 -172 20 -172 48 -180 c 128,-1,59
 76 -188 76 -188 111 -188 c 0,60,51
 191 -188 191 -188 249.5 -144.5 c 128,-1,52
EndSplineSet
EndChar

StartChar: K
Encoding: 75 75 90
Width: 764
VWidth: 1000
GlyphClass: 2
Flags: W
AnchorPoint: "Anchor-6" 0 0 basechar 0
AnchorPoint: "Anchor-5" 498 700 basechar 0
AnchorPoint: "Anchor-4" 0 0 basechar 0
AnchorPoint: "Anchor-3" 423 0 basechar 0
LayerCount: 2
Fore
SplineSet
832 690.5 m 128,-1,1
 862 671 862 671 862 635 c 0,2,3
 862 602 862 602 845.5 574.5 c 128,-1,4
 829 547 829 547 800 530.5 c 128,-1,5
 771 514 771 514 737 514 c 0,6,7
 696 514 696 514 673 535 c 128,-1,8
 650 556 650 556 654 588 c 1,9,10
 665 581 665 581 687.5 576.5 c 128,-1,11
 710 572 710 572 728 572 c 0,12,13
 756 572 756 572 771.5 585.5 c 128,-1,14
 787 599 787 599 787 619 c 0,15,16
 787 635 787 635 773.5 643.5 c 128,-1,17
 760 652 760 652 737 652 c 0,18,19
 703 652 703 652 667.5 630.5 c 128,-1,20
 632 609 632 609 585.5 556.5 c 128,-1,21
 539 504 539 504 473 410 c 1,22,23
 524 237 524 237 687 -121 c 1,24,25
 569 37 569 37 502.5 135 c 128,-1,26
 436 233 436 233 399 302 c 1,27,28
 369 258 369 258 313 172 c 1,29,-1
 293 92 l 2,30,31
 280 38 280 38 280 14 c 0,32,33
 280 6 280 6 282 0 c 1,34,-1
 170 0 l 1,35,36
 181 14 181 14 188 32 c 128,-1,37
 195 50 195 50 205 92 c 2,38,-1
 298 465 l 2,39,40
 311 517 311 517 324 549 c 1,41,-1
 321 551 l 1,42,43
 249 466 249 466 158 466 c 0,44,45
 110 466 110 466 83 488 c 128,-1,46
 56 510 56 510 56 548 c 0,47,48
 56 577 56 577 70 604.5 c 128,-1,49
 84 632 84 632 109 649 c 128,-1,50
 134 666 134 666 163 666 c 0,51,52
 189 666 189 666 203 652 c 128,-1,53
 217 638 217 638 217 616 c 0,54,55
 217 607 217 607 216 602 c 1,56,57
 205 622 205 622 185 622 c 256,58,59
 165 622 165 622 152 608 c 128,-1,60
 139 594 139 594 139 573 c 0,61,62
 139 556 139 556 152 546 c 128,-1,63
 165 536 165 536 190 536 c 0,64,65
 238 536 238 536 292.5 576.5 c 128,-1,66
 347 617 347 617 412 700 c 1,67,-1
 444 700 l 1,68,-1
 366 385 l 1,69,70
 451 511 451 511 511 580 c 128,-1,71
 571 649 571 649 626.5 679.5 c 128,-1,72
 682 710 682 710 747 710 c 0,73,0
 802 710 802 710 832 690.5 c 128,-1,1
EndSplineSet
EndChar

StartChar: L
Encoding: 76 76 92
Width: 712
VWidth: 1000
GlyphClass: 2
Flags: W
AnchorPoint: "Anchor-6" 808 700 basechar 0
AnchorPoint: "Anchor-5" 572 700 basechar 0
AnchorPoint: "Anchor-4" 0 0 basechar 0
AnchorPoint: "Anchor-3" 297 0 basechar 0
LayerCount: 2
Fore
SplineSet
358 355 m 2,0,1
 331 247 331 247 283 161 c 1,2,-1
 329 136 l 2,3,4
 393 100 393 100 437.5 82 c 128,-1,5
 482 64 482 64 531 64 c 0,6,7
 607 64 607 64 681 111 c 1,8,9
 653 48 653 48 605 19 c 128,-1,10
 557 -10 557 -10 503 -10 c 0,11,12
 455 -10 455 -10 408 10 c 128,-1,13
 361 30 361 30 298 68 c 2,14,-1
 242 99 l 1,15,16
 202 46 202 46 153.5 18 c 128,-1,17
 105 -10 105 -10 52 -10 c 0,18,19
 8 -10 8 -10 -15.5 9.5 c 128,-1,20
 -39 29 -39 29 -39 62 c 0,21,22
 -39 104 -39 104 -16.5 136.5 c 128,-1,23
 6 169 6 169 45 187.5 c 128,-1,24
 84 206 84 206 130 206 c 0,25,26
 168 206 168 206 209 193 c 1,27,28
 245 266 245 266 266 353 c 2,29,-1
 293 461 l 1,30,-1
 296 472 l 1,31,32
 248 519 248 519 216 584 c 1,33,34
 249 538 249 538 307 505 c 1,35,36
 342 600 342 600 416 655 c 128,-1,37
 490 710 490 710 584 710 c 0,38,39
 642 710 642 710 689 689.5 c 128,-1,40
 736 669 736 669 759 634 c 1,41,42
 762 622 762 622 762 606 c 0,43,44
 762 542 762 542 728.5 491.5 c 128,-1,45
 695 441 695 441 638 412.5 c 128,-1,46
 581 384 581 384 512 384 c 0,47,48
 440 384 440 384 374 417 c 1,49,-1
 358 355 l 2,0,1
460 592.5 m 128,-1,51
 409 547 409 547 388 471 c 1,52,53
 438 456 438 456 490 456 c 0,54,55
 577 456 577 456 622.5 494 c 128,-1,56
 668 532 668 532 672 609 c 1,57,58
 630 638 630 638 578 638 c 0,59,50
 511 638 511 638 460 592.5 c 128,-1,51
172 129 m 1,61,62
 144 138 144 138 115 138 c 0,63,64
 78 138 78 138 57 122.5 c 128,-1,65
 36 107 36 107 36 83 c 0,66,67
 36 71 36 71 44.5 64.5 c 128,-1,68
 53 58 53 58 69 58 c 0,69,60
 120 58 120 58 172 129 c 1,61,62
EndSplineSet
EndChar

StartChar: Lslash
Encoding: 321 321 100
Width: 712
VWidth: 1000
GlyphClass: 2
Flags: W
AnchorPoint: "Anchor-6" 808 700 basechar 0
AnchorPoint: "Anchor-5" 572 700 basechar 0
AnchorPoint: "Anchor-4" 0 0 basechar 0
AnchorPoint: "Anchor-3" 297 0 basechar 0
LayerCount: 2
Fore
SplineSet
358 355 m 1,0,-1
 351 328 l 1,1,-1
 569 378 l 1,2,-1
 561 323 l 1,3,-1
 333 271 l 1,4,5
 312 212 312 212 283 161 c 1,6,-1
 329 136 l 2,7,8
 393 100 393 100 437.5 82 c 128,-1,9
 482 64 482 64 531 64 c 0,10,11
 607 64 607 64 681 111 c 1,12,13
 653 48 653 48 605 19 c 128,-1,14
 557 -10 557 -10 503 -10 c 0,15,16
 455 -10 455 -10 408 10 c 128,-1,17
 361 30 361 30 298 68 c 2,18,-1
 242 99 l 1,19,20
 202 46 202 46 153.5 18 c 128,-1,21
 105 -10 105 -10 52 -10 c 0,22,23
 8 -10 8 -10 -15.5 9.5 c 128,-1,24
 -39 29 -39 29 -39 62 c 0,25,26
 -39 104 -39 104 -16.5 136.5 c 128,-1,27
 6 169 6 169 45 187.5 c 128,-1,28
 84 206 84 206 130 206 c 0,29,30
 168 206 168 206 209 193 c 1,31,32
 223 219 223 219 233 248 c 1,33,-1
 81 213 l 1,34,-1
 89 268 l 1,35,-1
 253 306 l 1,36,-1
 266 353 l 1,37,-1
 293 461 l 1,38,-1
 296 472 l 1,39,40
 248 519 248 519 216 584 c 1,41,42
 249 538 249 538 307 505 c 1,43,44
 342 600 342 600 416 655 c 128,-1,45
 490 710 490 710 584 710 c 0,46,47
 642 710 642 710 689 689.5 c 128,-1,48
 736 669 736 669 759 634 c 1,49,50
 762 622 762 622 762 606 c 0,51,52
 762 542 762 542 728.5 491.5 c 128,-1,53
 695 441 695 441 638 412.5 c 128,-1,54
 581 384 581 384 512 384 c 0,55,56
 440 384 440 384 374 417 c 1,57,-1
 358 355 l 1,0,-1
460 592.5 m 128,-1,59
 409 547 409 547 388 471 c 1,60,61
 438 456 438 456 490 456 c 0,62,63
 577 456 577 456 622.5 494 c 128,-1,64
 668 532 668 532 672 609 c 1,65,66
 630 638 630 638 578 638 c 0,67,58
 511 638 511 638 460 592.5 c 128,-1,59
172 129 m 1,69,70
 144 138 144 138 115 138 c 0,71,72
 78 138 78 138 57 122.5 c 128,-1,73
 36 107 36 107 36 83 c 0,74,75
 36 71 36 71 44.5 64.5 c 128,-1,76
 53 58 53 58 69 58 c 0,77,68
 120 58 120 58 172 129 c 1,69,70
EndSplineSet
EndChar

StartChar: M
Encoding: 77 77 101
Width: 1080
VWidth: 1000
GlyphClass: 2
Flags: W
AnchorPoint: "Anchor-6" 0 0 basechar 0
AnchorPoint: "Anchor-5" 726 700 basechar 0
AnchorPoint: "Anchor-4" 0 0 basechar 0
AnchorPoint: "Anchor-3" 560 0 basechar 0
LayerCount: 2
Fore
SplineSet
976 516 m 1,1,2
 940 442 940 442 917 353 c 128,-1,3
 894 264 894 264 894 199 c 0,4,5
 894 132 894 132 918.5 97 c 128,-1,6
 943 62 943 62 989 62 c 0,7,8
 1040 62 1040 62 1086 102 c 1,9,10
 1055 48 1055 48 1014 19 c 128,-1,11
 973 -10 973 -10 927 -10 c 0,12,13
 866 -10 866 -10 833 39.5 c 128,-1,14
 800 89 800 89 800 178 c 0,15,16
 800 263 800 263 824.5 357 c 128,-1,17
 849 451 849 451 892 529 c 1,18,19
 835 543 835 543 737 580 c 0,20,21
 655 610 655 610 604 624 c 128,-1,22
 553 638 553 638 500 638 c 0,23,24
 402 638 402 638 344 580.5 c 128,-1,25
 286 523 286 523 282 428 c 1,26,27
 349 465 349 465 452 560 c 1,28,-1
 484 560 l 1,29,-1
 424 317 l 1,30,31
 480 324 480 324 540.5 363 c 128,-1,32
 601 402 601 402 685 480 c 1,33,-1
 717 480 l 1,34,-1
 621 92 l 2,35,36
 608 38 608 38 608 14 c 0,37,38
 608 6 608 6 610 0 c 1,39,-1
 498 0 l 1,40,41
 509 14 509 14 516 32 c 128,-1,42
 523 50 523 50 533 92 c 2,43,-1
 573 255 l 2,44,45
 588 310 588 310 600 339 c 1,46,-1
 597 341 l 1,47,48
 543 298 543 298 498.5 275.5 c 128,-1,49
 454 253 454 253 407 248 c 1,50,-1
 368 92 l 2,51,52
 355 38 355 38 355 14 c 0,53,54
 355 6 355 6 357 0 c 1,55,-1
 245 0 l 1,56,57
 256 14 256 14 263 32 c 128,-1,58
 270 50 270 50 280 92 c 2,59,-1
 320 253 l 1,60,61
 257 268 257 268 215 323 c 0,62,63
 213 328 213 328 211 338 c 1,64,65
 173 326 173 326 134 326 c 0,66,67
 79 326 79 326 51.5 346.5 c 128,-1,68
 24 367 24 367 24 404 c 0,69,70
 24 434 24 434 38.5 462.5 c 128,-1,71
 53 491 53 491 77.5 508.5 c 128,-1,72
 102 526 102 526 131 526 c 0,73,74
 157 526 157 526 171 512 c 128,-1,75
 185 498 185 498 185 476 c 0,76,77
 185 467 185 467 184 462 c 1,78,79
 173 482 173 482 153 482 c 0,80,81
 134 482 134 482 120.5 468.5 c 128,-1,82
 107 455 107 455 107 433 c 0,83,84
 107 415 107 415 122.5 405.5 c 128,-1,85
 138 396 138 396 169 396 c 0,86,87
 186 396 186 396 202 399 c 1,88,-1
 202 406 l 2,89,90
 202 490 202 490 243.5 559.5 c 128,-1,91
 285 629 285 629 357.5 669.5 c 128,-1,92
 430 710 430 710 517 710 c 0,93,94
 579 710 579 710 636 692.5 c 128,-1,95
 693 675 693 675 776 640 c 0,96,97
 826 619 826 619 859.5 606.5 c 128,-1,98
 893 594 893 594 928 585 c 1,99,100
 970 644 970 644 1021.5 677 c 128,-1,101
 1073 710 1073 710 1129 710 c 0,102,103
 1172 710 1172 710 1197 692 c 128,-1,104
 1222 674 1222 674 1222 642 c 0,105,106
 1222 581 1222 581 1160 547.5 c 128,-1,107
 1098 514 1098 514 1013 514 c 0,108,0
 1000 514 1000 514 976 516 c 1,1,2
1008 573 m 1,110,111
 1015 572 1015 572 1028 572 c 0,112,113
 1081 572 1081 572 1114.5 587 c 128,-1,114
 1148 602 1148 602 1148 627 c 0,115,116
 1148 638 1148 638 1139 645 c 128,-1,117
 1130 652 1130 652 1114 652 c 0,118,109
 1062 652 1062 652 1008 573 c 1,110,111
364 421 m 1,119,-1
 341 406 l 2,120,121
 310 386 310 386 285 372 c 1,122,-1
 287 358 l 1,123,124
 310 338 310 338 338 327 c 1,125,-1
 340 335 l 2,126,127
 351 381 351 381 367 419 c 1,128,-1
 364 421 l 1,119,-1
EndSplineSet
EndChar

StartChar: N
Encoding: 78 78 103
Width: 850
VWidth: 1000
GlyphClass: 2
Flags: W
AnchorPoint: "Anchor-6" 0 0 basechar 0
AnchorPoint: "Anchor-5" 591 700 basechar 0
AnchorPoint: "Anchor-4" 0 0 basechar 0
AnchorPoint: "Anchor-3" 487 0 basechar 0
LayerCount: 2
Fore
SplineSet
685 347 m 0,1,2
 664 260 664 260 664 199 c 0,3,4
 664 132 664 132 688.5 97 c 128,-1,5
 713 62 713 62 759 62 c 0,6,7
 810 62 810 62 856 102 c 1,8,9
 825 48 825 48 784 19 c 128,-1,10
 743 -10 743 -10 697 -10 c 0,11,12
 637 -10 637 -10 603 40 c 128,-1,13
 569 90 569 90 569 180 c 0,14,15
 569 251 569 251 591 339 c 0,16,17
 623 466 623 466 680 554 c 1,18,-1
 645 575 l 2,19,20
 596 606 596 606 558 622 c 128,-1,21
 520 638 520 638 469 638 c 0,22,23
 383 638 383 638 334 579 c 128,-1,24
 285 520 285 520 282 428 c 1,25,26
 349 465 349 465 452 560 c 1,27,-1
 484 560 l 1,28,-1
 425 320 l 1,29,30
 488 332 488 332 542 372 c 1,31,32
 511 324 511 324 478.5 295 c 128,-1,33
 446 266 446 266 408 254 c 1,34,-1
 368 92 l 2,35,36
 355 38 355 38 355 14 c 0,37,38
 355 6 355 6 357 0 c 1,39,-1
 245 0 l 1,40,41
 256 14 256 14 263 32 c 128,-1,42
 270 50 270 50 280 92 c 2,43,-1
 319 249 l 1,44,45
 237 263 237 263 211 338 c 1,46,47
 173 326 173 326 134 326 c 0,48,49
 79 326 79 326 51.5 346.5 c 128,-1,50
 24 367 24 367 24 404 c 0,51,52
 24 434 24 434 38.5 462.5 c 128,-1,53
 53 491 53 491 77.5 508.5 c 128,-1,54
 102 526 102 526 131 526 c 0,55,56
 157 526 157 526 171 512 c 128,-1,57
 185 498 185 498 185 476 c 0,58,59
 185 467 185 467 184 462 c 1,60,61
 173 482 173 482 153 482 c 0,62,63
 134 482 134 482 120.5 468.5 c 128,-1,64
 107 455 107 455 107 433 c 0,65,66
 107 415 107 415 122.5 405.5 c 128,-1,67
 138 396 138 396 169 396 c 0,68,69
 186 396 186 396 202 399 c 1,70,-1
 202 401 l 2,71,72
 202 484 202 484 238.5 555 c 128,-1,73
 275 626 275 626 340 668 c 128,-1,74
 405 710 405 710 487 710 c 0,75,76
 548 710 548 710 590 690.5 c 128,-1,77
 632 671 632 671 682 634 c 0,78,79
 706 616 706 616 719 608 c 1,80,81
 761 657 761 657 809.5 683.5 c 128,-1,82
 858 710 858 710 909 710 c 0,83,84
 950 710 950 710 971.5 693 c 128,-1,85
 993 676 993 676 993 646 c 0,86,87
 993 586 993 586 943.5 550 c 128,-1,88
 894 514 894 514 822 514 c 0,89,90
 786 514 786 514 751 524 c 1,91,0
 710 445 710 445 685 347 c 0,1,2
784 578 m 1,93,94
 805 572 805 572 830 572 c 0,95,96
 872 572 872 572 895 589 c 128,-1,97
 918 606 918 606 918 630 c 0,98,99
 918 652 918 652 889 652 c 0,100,92
 839 652 839 652 784 578 c 1,93,94
364 421 m 1,101,102
 328 397 328 397 288 374 c 1,103,104
 300 336 300 336 337 323 c 1,105,-1
 340 335 l 2,106,107
 351 381 351 381 367 419 c 1,108,-1
 364 421 l 1,101,102
EndSplineSet
EndChar

StartChar: Eng
Encoding: 330 330 109
Width: 850
VWidth: 1000
GlyphClass: 2
Flags: W
AnchorPoint: "Anchor-6" 0 0 basechar 0
AnchorPoint: "Anchor-5" 541 700 basechar 0
AnchorPoint: "Anchor-4" 0 0 basechar 0
AnchorPoint: "Anchor-3" 324 -357 basechar 0
LayerCount: 2
Fore
SplineSet
971.5 693 m 128,-1,1
 993 676 993 676 993 646 c 0,2,3
 993 586 993 586 943.5 550 c 128,-1,4
 894 514 894 514 822 514 c 0,5,6
 787 514 787 514 750 524 c 1,7,8
 712 451 712 451 685 347 c 2,9,-1
 573 -102 l 1,10,-1
 569 -118 l 1,11,12
 631 -144 631 -144 689 -192 c 1,13,14
 672 -182 672 -182 636.5 -172 c 128,-1,15
 601 -162 601 -162 557 -155 c 1,16,17
 523 -255 523 -255 464.5 -306 c 128,-1,18
 406 -357 406 -357 324 -357 c 0,19,20
 223 -357 223 -357 171 -281 c 1,21,22
 160 -254 160 -254 160 -226 c 0,23,24
 160 -184 160 -184 191.5 -151 c 128,-1,25
 223 -118 223 -118 276 -99 c 128,-1,26
 329 -80 329 -80 393 -80 c 0,27,28
 433 -80 433 -80 485 -90 c 1,29,-1
 591 339 l 2,30,31
 623 466 623 466 680 554 c 1,32,-1
 645 575 l 2,33,34
 596 606 596 606 558 622 c 128,-1,35
 520 638 520 638 469 638 c 0,36,37
 383 638 383 638 334 579 c 128,-1,38
 285 520 285 520 282 428 c 1,39,40
 349 465 349 465 452 560 c 1,41,-1
 484 560 l 1,42,-1
 425 320 l 1,43,44
 488 332 488 332 542 372 c 1,45,46
 511 324 511 324 478.5 295 c 128,-1,47
 446 266 446 266 408 254 c 1,48,-1
 368 92 l 2,49,50
 355 38 355 38 355 14 c 0,51,52
 355 6 355 6 357 0 c 1,53,-1
 245 0 l 1,54,55
 256 14 256 14 263 32 c 128,-1,56
 270 50 270 50 280 92 c 2,57,-1
 319 249 l 1,58,59
 237 263 237 263 211 338 c 1,60,61
 173 326 173 326 134 326 c 0,62,63
 79 326 79 326 51.5 346.5 c 128,-1,64
 24 367 24 367 24 404 c 0,65,66
 24 434 24 434 38.5 462.5 c 128,-1,67
 53 491 53 491 77.5 508.5 c 128,-1,68
 102 526 102 526 131 526 c 0,69,70
 157 526 157 526 171 512 c 128,-1,71
 185 498 185 498 185 476 c 0,72,73
 185 467 185 467 184 462 c 1,74,75
 173 482 173 482 153 482 c 0,76,77
 134 482 134 482 120.5 468.5 c 128,-1,78
 107 455 107 455 107 433 c 0,79,80
 107 415 107 415 122.5 405.5 c 128,-1,81
 138 396 138 396 169 396 c 0,82,83
 186 396 186 396 202 399 c 1,84,-1
 202 401 l 2,85,86
 202 484 202 484 238.5 555 c 128,-1,87
 275 626 275 626 340 668 c 128,-1,88
 405 710 405 710 487 710 c 0,89,90
 548 710 548 710 590 690.5 c 128,-1,91
 632 671 632 671 682 634 c 0,92,93
 706 616 706 616 719 608 c 1,94,95
 761 657 761 657 809.5 683.5 c 128,-1,96
 858 710 858 710 909 710 c 0,97,0
 950 710 950 710 971.5 693 c 128,-1,1
895 589 m 128,-1,99
 918 606 918 606 918 630 c 0,100,101
 918 652 918 652 889 652 c 0,102,103
 863 652 863 652 836 633 c 128,-1,104
 809 614 809 614 784 578 c 1,105,106
 805 572 805 572 830 572 c 0,107,98
 872 572 872 572 895 589 c 128,-1,99
364 421 m 1,108,109
 328 397 328 397 288 374 c 1,110,111
 300 336 300 336 337 323 c 1,112,-1
 340 335 l 2,113,114
 351 381 351 381 367 419 c 1,115,-1
 364 421 l 1,108,109
406.5 -255.5 m 128,-1,117
 445 -220 445 -220 469 -147 c 1,118,119
 459 -146 459 -146 439 -146 c 0,120,121
 343 -146 343 -146 292.5 -172 c 128,-1,122
 242 -198 242 -198 242 -241 c 0,123,124
 242 -250 242 -250 243.5 -258 c 128,-1,125
 245 -266 245 -266 247 -270 c 0,126,127
 266 -291 266 -291 312 -291 c 0,128,116
 368 -291 368 -291 406.5 -255.5 c 128,-1,117
EndSplineSet
EndChar

StartChar: O
Encoding: 79 79 112
Width: 774
VWidth: 1000
GlyphClass: 2
Flags: W
AnchorPoint: "Anchor-6" 741 456 basechar 0
AnchorPoint: "Anchor-5" 503 700 basechar 0
AnchorPoint: "Anchor-4" 342 10 basechar 0
AnchorPoint: "Anchor-3" 328 0 basechar 0
LayerCount: 2
Fore
SplineSet
173 23 m 128,-1,1
 115 56 115 56 75 111 c 1,2,3
 58 167 58 167 58 235 c 0,4,5
 58 387 58 387 145.5 499.5 c 128,-1,6
 233 612 233 612 387 682 c 1,7,8
 278 601 278 601 214 481 c 128,-1,9
 150 361 150 361 150 231 c 0,10,11
 150 192 150 192 157 139 c 1,12,13
 232 64 232 64 344 64 c 0,14,15
 447 64 447 64 523 120.5 c 128,-1,16
 599 177 599 177 639.5 272.5 c 128,-1,17
 680 368 680 368 680 484 c 0,18,19
 680 528 680 528 675 573 c 1,20,21
 648 604 648 604 615 622 c 128,-1,22
 582 640 582 640 546 640 c 0,23,24
 505 640 505 640 475 614.5 c 128,-1,25
 445 589 445 589 429 548.5 c 128,-1,26
 413 508 413 508 413 465 c 0,27,28
 413 421 413 421 434 386 c 128,-1,29
 455 351 455 351 498 328 c 1,30,31
 425 337 425 337 379 383 c 128,-1,32
 333 429 333 429 333 497 c 0,33,34
 333 556 333 556 363 604.5 c 128,-1,35
 393 653 393 653 444 681.5 c 128,-1,36
 495 710 495 710 556 710 c 0,37,38
 679 710 679 710 760 589 c 1,39,40
 773 534 773 534 773 477 c 0,41,42
 773 344 773 344 716 232.5 c 128,-1,43
 659 121 659 121 556.5 55.5 c 128,-1,44
 454 -10 454 -10 325 -10 c 0,45,0
 231 -10 231 -10 173 23 c 128,-1,1
EndSplineSet
Substitution2: "Single Substitution lookup 19 subtable" ordmasculine
Substitution2: "'aalt' Access All Alternates lookup 0 subtable" ordmasculine
EndChar

StartChar: Ohorn
Encoding: 416 416 126
Width: 774
VWidth: 1000
GlyphClass: 2
Flags: W
AnchorPoint: "Anchor-6" 741 456 basechar 0
AnchorPoint: "Anchor-5" 503 700 basechar 0
AnchorPoint: "Anchor-4" 342 10 basechar 0
AnchorPoint: "Anchor-3" 328 0 basechar 0
LayerCount: 2
Fore
SplineSet
893 536.5 m 128,-1,1
 850 488 850 488 773 465 c 1,2,3
 771 334 771 334 713 225.5 c 128,-1,4
 655 117 655 117 553.5 53.5 c 128,-1,5
 452 -10 452 -10 325 -10 c 0,6,7
 231 -10 231 -10 173 23 c 128,-1,8
 115 56 115 56 75 111 c 1,9,10
 58 167 58 167 58 235 c 0,11,12
 58 387 58 387 145.5 499.5 c 128,-1,13
 233 612 233 612 387 682 c 1,14,15
 278 601 278 601 214 481 c 128,-1,16
 150 361 150 361 150 231 c 0,17,18
 150 192 150 192 157 139 c 1,19,20
 232 64 232 64 344 64 c 0,21,22
 447 64 447 64 523 120.5 c 128,-1,23
 599 177 599 177 639.5 272.5 c 128,-1,24
 680 368 680 368 680 484 c 0,25,26
 680 528 680 528 675 573 c 1,27,28
 648 604 648 604 615 622 c 128,-1,29
 582 640 582 640 546 640 c 0,30,31
 505 640 505 640 475 614.5 c 128,-1,32
 445 589 445 589 429 548.5 c 128,-1,33
 413 508 413 508 413 465 c 0,34,35
 413 421 413 421 434 386 c 128,-1,36
 455 351 455 351 498 328 c 1,37,38
 425 337 425 337 379 383 c 128,-1,39
 333 429 333 429 333 497 c 0,40,41
 333 556 333 556 363 604.5 c 128,-1,42
 393 653 393 653 444 681.5 c 128,-1,43
 495 710 495 710 556 710 c 0,44,45
 679 710 679 710 760 589 c 1,46,47
 772 539 772 539 773 492 c 1,48,49
 818 511 818 511 846 539 c 128,-1,50
 874 567 874 567 874 596 c 1,51,52
 849 596 849 596 832.5 612.5 c 128,-1,53
 816 629 816 629 816 653 c 256,54,55
 816 677 816 677 832.5 693.5 c 128,-1,56
 849 710 849 710 874 710 c 0,57,58
 901 710 901 710 918.5 692.5 c 128,-1,59
 936 675 936 675 936 636 c 0,60,0
 936 585 936 585 893 536.5 c 128,-1,1
EndSplineSet
EndChar

StartChar: Oslash
Encoding: 216 216 134
Width: 774
VWidth: 1000
GlyphClass: 2
Flags: W
AnchorPoint: "Anchor-6" 741 456 basechar 0
AnchorPoint: "Anchor-5" 503 700 basechar 0
AnchorPoint: "Anchor-4" 342 10 basechar 0
AnchorPoint: "Anchor-3" 328 0 basechar 0
LayerCount: 2
Fore
SplineSet
773 477 m 0,1,2
 773 344 773 344 716 232.5 c 128,-1,3
 659 121 659 121 556.5 55.5 c 128,-1,4
 454 -10 454 -10 325 -10 c 0,5,6
 252 -10 252 -10 197 12 c 1,7,-1
 183 -7 l 2,8,9
 148 -53 148 -53 73 -60 c 1,10,-1
 146 39 l 1,11,12
 108 65 108 65 75 111 c 1,13,14
 58 167 58 167 58 235 c 0,15,16
 58 387 58 387 145.5 499.5 c 128,-1,17
 233 612 233 612 387 682 c 1,18,19
 278 601 278 601 214 481 c 128,-1,20
 150 361 150 361 150 231 c 0,21,22
 150 192 150 192 157 139 c 1,23,24
 177 119 177 119 197 107 c 1,25,-1
 392 371 l 1,26,27
 364 394 364 394 348.5 426.5 c 128,-1,28
 333 459 333 459 333 497 c 0,29,30
 333 556 333 556 363 604.5 c 128,-1,31
 393 653 393 653 444 681.5 c 128,-1,32
 495 710 495 710 556 710 c 0,33,34
 595 710 595 710 634 697 c 1,35,36
 676 753 676 753 753 760 c 1,37,-1
 685 669 l 1,38,39
 726 639 726 639 760 589 c 1,40,0
 773 534 773 534 773 477 c 0,1,2
422 411 m 1,42,-1
 587 633 l 1,43,44
 569 640 569 640 546 640 c 0,45,46
 505 640 505 640 475 614.5 c 128,-1,47
 445 589 445 589 429 548.5 c 128,-1,48
 413 508 413 508 413 465 c 0,49,41
 413 437 413 437 422 411 c 1,42,-1
523 120.5 m 128,-1,51
 599 177 599 177 639.5 272.5 c 128,-1,52
 680 368 680 368 680 484 c 0,53,54
 680 528 680 528 675 573 c 1,55,56
 655 595 655 595 639 606 c 1,57,-1
 455 359 l 1,58,59
 476 340 476 340 498 328 c 1,60,61
 471 331 471 331 442 342 c 1,62,-1
 248 80 l 1,63,64
 293 64 293 64 344 64 c 0,65,50
 447 64 447 64 523 120.5 c 128,-1,51
EndSplineSet
EndChar

StartChar: OE
Encoding: 338 338 137
Width: 1244
VWidth: 1000
GlyphClass: 2
Flags: W
AnchorPoint: "Anchor-6" 741 456 basechar 0
AnchorPoint: "Anchor-5" 1037 700 basechar 0
AnchorPoint: "Anchor-4" 1065 55 basechar 0
AnchorPoint: "Anchor-3" 872 0 basechar 0
LayerCount: 2
Fore
SplineSet
878 578 m 128,-1,1
 816 518 816 518 778 420 c 1,2,3
 831 442 831 442 887 477.5 c 128,-1,4
 943 513 943 513 994 560 c 1,5,-1
 1026 560 l 1,6,-1
 977 362 l 1,7,-1
 981 362 l 1,8,9
 1007 402 1007 402 1044 427.5 c 128,-1,10
 1081 453 1081 453 1117 453 c 0,11,12
 1151 453 1151 453 1170 430 c 128,-1,13
 1189 407 1189 407 1189 369 c 0,14,15
 1189 355 1189 355 1188 348 c 1,16,17
 1163 385 1163 385 1118 385 c 0,18,19
 1071 385 1071 385 1031 350 c 128,-1,20
 991 315 991 315 950 252 c 1,21,-1
 945 232 l 2,22,23
 932 178 932 178 932 154 c 0,24,25
 932 146 932 146 934 140 c 1,26,-1
 824 140 l 1,27,28
 835 154 835 154 842 172 c 128,-1,29
 849 190 849 190 859 232 c 2,30,-1
 884 335 l 2,31,32
 895 381 895 381 911 419 c 1,33,-1
 908 421 l 1,34,35
 838 375 838 375 758 348 c 1,36,37
 753 325 753 325 746 305 c 0,38,39
 735 242 735 242 735 183 c 0,40,41
 735 168 735 168 737 142 c 1,42,43
 764 106 764 106 817 84 c 128,-1,44
 870 62 870 62 941 62 c 0,45,46
 1013 62 1013 62 1076.5 87 c 128,-1,47
 1140 112 1140 112 1215 166 c 1,48,49
 1141 85 1141 85 1067.5 37.5 c 128,-1,50
 994 -10 994 -10 906 -10 c 0,51,52
 824 -10 824 -10 757.5 32 c 128,-1,53
 691 74 691 74 659 145 c 1,54,55
 598 72 598 72 512.5 31 c 128,-1,56
 427 -10 427 -10 325 -10 c 0,57,58
 231 -10 231 -10 173 23 c 128,-1,59
 115 56 115 56 75 111 c 1,60,61
 58 167 58 167 58 235 c 0,62,63
 58 387 58 387 145.5 499.5 c 128,-1,64
 233 612 233 612 387 682 c 1,65,66
 278 601 278 601 214 481 c 128,-1,67
 150 361 150 361 150 231 c 0,68,69
 150 192 150 192 157 139 c 1,70,71
 232 64 232 64 344 64 c 0,72,73
 460 64 460 64 542 135.5 c 128,-1,74
 624 207 624 207 658 325 c 1,75,76
 632 323 632 323 621 323 c 0,77,78
 566 323 566 323 538.5 343.5 c 128,-1,79
 511 364 511 364 511 401 c 0,80,81
 511 431 511 431 525.5 459.5 c 128,-1,82
 540 488 540 488 564.5 505.5 c 128,-1,83
 589 523 589 523 618 523 c 0,84,85
 644 523 644 523 658 509 c 128,-1,86
 672 495 672 495 672 473 c 0,87,88
 672 464 672 464 671 459 c 1,89,90
 660 479 660 479 640 479 c 256,91,92
 620 479 620 479 607 463.5 c 128,-1,93
 594 448 594 448 594 430 c 256,94,95
 594 412 594 412 610 402.5 c 128,-1,96
 626 393 626 393 657 393 c 0,97,98
 668 393 668 393 673 394 c 1,99,100
 680 435 680 435 680 484 c 0,101,102
 680 528 680 528 675 573 c 1,103,104
 648 604 648 604 615 622 c 128,-1,105
 582 640 582 640 546 640 c 0,106,107
 505 640 505 640 475 614.5 c 128,-1,108
 445 589 445 589 429 548.5 c 128,-1,109
 413 508 413 508 413 465 c 0,110,111
 413 421 413 421 434 386 c 128,-1,112
 455 351 455 351 498 328 c 1,113,114
 425 337 425 337 379 383 c 128,-1,115
 333 429 333 429 333 497 c 0,116,117
 333 556 333 556 363 604.5 c 128,-1,118
 393 653 393 653 444 681.5 c 128,-1,119
 495 710 495 710 556 710 c 0,120,121
 679 710 679 710 760 589 c 1,122,123
 764 573 764 573 765 565 c 1,124,125
 818 632 818 632 885 671 c 128,-1,126
 952 710 952 710 1028 710 c 0,127,128
 1070 710 1070 710 1132 695 c 0,129,130
 1164 688 1164 688 1186.5 684.5 c 128,-1,131
 1209 681 1209 681 1234 681 c 0,132,133
 1294 681 1294 681 1361 706 c 1,134,135
 1334 658 1334 658 1298 633.5 c 128,-1,136
 1262 609 1262 609 1208 609 c 0,137,138
 1185 609 1185 609 1158.5 613.5 c 128,-1,139
 1132 618 1132 618 1108 624 c 0,140,141
 1086 629 1086 629 1062.5 633.5 c 128,-1,142
 1039 638 1039 638 1020 638 c 0,143,0
 940 638 940 638 878 578 c 128,-1,1
EndSplineSet
EndChar

StartChar: P
Encoding: 80 80 138
Width: 734
VWidth: 1000
GlyphClass: 2
Flags: W
AnchorPoint: "Anchor-6" 0 0 basechar 0
AnchorPoint: "Anchor-5" 527 700 basechar 0
AnchorPoint: "Anchor-4" 0 0 basechar 0
AnchorPoint: "Anchor-3" 256 0 basechar 0
LayerCount: 2
Fore
SplineSet
779 548 m 0,1,2
 779 451 779 451 719 367 c 128,-1,3
 659 283 659 283 562.5 233 c 128,-1,4
 466 183 466 183 361 183 c 0,5,6
 343 183 343 183 335 184 c 1,7,-1
 312 92 l 2,8,9
 299 40 299 40 299 14 c 0,10,11
 299 6 299 6 301 0 c 1,12,-1
 189 0 l 1,13,14
 200 13 200 13 206.5 31 c 128,-1,15
 213 49 213 49 224 92 c 2,16,-1
 252 201 l 1,17,18
 183 228 183 228 167 289 c 1,19,20
 209 262 209 262 265 255 c 1,21,-1
 283 325 l 2,22,23
 296 377 296 377 309 409 c 1,24,-1
 306 411 l 1,25,26
 287 388 287 388 255 367 c 1,27,28
 257 338 257 338 259 326 c 1,29,30
 241 354 241 354 239 358 c 1,31,32
 182 326 182 326 123 326 c 0,33,34
 76 326 76 326 49.5 348 c 128,-1,35
 23 370 23 370 23 407 c 0,36,37
 23 437 23 437 37 464.5 c 128,-1,38
 51 492 51 492 76 509 c 128,-1,39
 101 526 101 526 130 526 c 0,40,41
 156 526 156 526 170 512 c 128,-1,42
 184 498 184 498 184 476 c 0,43,44
 184 467 184 467 183 462 c 1,45,46
 172 482 172 482 152 482 c 256,47,48
 132 482 132 482 119 468 c 128,-1,49
 106 454 106 454 106 433 c 0,50,51
 106 416 106 416 119.5 406 c 128,-1,52
 133 396 133 396 158 396 c 0,53,54
 187 396 187 396 216 408 c 1,55,56
 210 431 210 431 210 453 c 0,57,58
 210 529 210 529 259 587.5 c 128,-1,59
 308 646 308 646 387 678 c 128,-1,60
 466 710 466 710 555 710 c 0,61,62
 633 710 633 710 684.5 686 c 128,-1,63
 736 662 736 662 766 612 c 1,64,0
 779 581 779 581 779 548 c 0,1,2
524.5 300.5 m 128,-1,66
 602 339 602 339 647.5 404.5 c 128,-1,67
 693 470 693 470 693 553 c 0,68,69
 693 573 693 573 687 594 c 1,70,71
 660 620 660 620 629.5 631 c 128,-1,72
 599 642 599 642 538 642 c 0,73,74
 418 642 418 642 343.5 587 c 128,-1,75
 269 532 269 532 256 429 c 1,76,77
 318 468 318 468 397 560 c 1,78,-1
 429 560 l 1,79,-1
 353 255 l 1,80,65
 447 262 447 262 524.5 300.5 c 128,-1,66
EndSplineSet
EndChar

StartChar: Thorn
Encoding: 222 222 139
Width: 722
VWidth: 1000
Flags: W
LayerCount: 2
Fore
SplineSet
721 358 m 0,1,2
 721 265 721 265 666 205.5 c 128,-1,3
 611 146 611 146 529 119.5 c 128,-1,4
 447 93 447 93 363 93 c 0,5,6
 338 93 338 93 315 96 c 1,7,-1
 314 92 l 2,8,9
 301 40 301 40 301 14 c 0,10,11
 301 6 301 6 303 0 c 1,12,-1
 191 0 l 1,13,14
 202 13 202 13 208.5 31 c 128,-1,15
 215 49 215 49 226 92 c 2,16,-1
 233 121 l 1,17,18
 183 147 183 147 169 199 c 1,19,20
 203 176 203 176 245 169 c 1,21,-1
 306 409 l 1,22,23
 263 384 263 384 239 348 c 128,-1,24
 215 312 215 312 215 268 c 0,25,26
 215 242 215 242 221 206 c 1,27,28
 196 242 196 242 184 270.5 c 128,-1,29
 172 299 172 299 172 329 c 0,30,31
 172 384 172 384 214 427.5 c 128,-1,32
 256 471 256 471 328 496 c 1,33,34
 338 530 338 530 346 549 c 1,35,-1
 343 551 l 1,36,37
 315 518 315 518 265 497 c 128,-1,38
 215 476 215 476 160 476 c 0,39,40
 113 476 113 476 86.5 498 c 128,-1,41
 60 520 60 520 60 557 c 0,42,43
 60 587 60 587 74 614.5 c 128,-1,44
 88 642 88 642 113 659 c 128,-1,45
 138 676 138 676 167 676 c 0,46,47
 193 676 193 676 207 662 c 128,-1,48
 221 648 221 648 221 626 c 0,49,50
 221 617 221 617 220 612 c 1,51,52
 209 632 209 632 189 632 c 256,53,54
 169 632 169 632 156 618 c 128,-1,55
 143 604 143 604 143 583 c 0,56,57
 143 566 143 566 156.5 556 c 128,-1,58
 170 546 170 546 195 546 c 0,59,60
 303 546 303 546 434 700 c 1,61,-1
 466 700 l 1,62,-1
 420 516 l 1,63,64
 449 520 449 520 487 520 c 0,65,66
 572 520 572 520 625 496 c 128,-1,67
 678 472 678 472 708 422 c 1,68,0
 721 391 721 391 721 358 c 0,1,2
483 178.5 m 128,-1,70
 548 193 548 193 591.5 237 c 128,-1,71
 635 281 635 281 635 363 c 0,72,73
 635 383 635 383 629 404 c 1,74,75
 602 430 602 430 573 441 c 128,-1,76
 544 452 544 452 491 452 c 0,77,78
 445 452 445 452 402 444 c 1,79,-1
 332 163 l 1,80,69
 418 164 418 164 483 178.5 c 128,-1,70
EndSplineSet
EndChar

StartChar: Q
Encoding: 81 81 140
Width: 775
VWidth: 1000
GlyphClass: 2
Flags: W
AnchorPoint: "Anchor-6" 0 0 basechar 0
AnchorPoint: "Anchor-5" 557 700 basechar 0
AnchorPoint: "Anchor-4" 0 0 basechar 0
AnchorPoint: "Anchor-3" 298 0 basechar 0
LayerCount: 2
Fore
SplineSet
735.5 273 m 128,-1,1
 697 178 697 178 626.5 109.5 c 128,-1,2
 556 41 556 41 463 11 c 1,3,4
 480 -36 480 -36 506 -97 c 1,5,6
 455 -47 455 -47 415 -1 c 1,7,8
 373 -10 373 -10 326 -10 c 0,9,10
 232 -10 232 -10 174 23 c 128,-1,11
 116 56 116 56 76 111 c 1,12,13
 58 172 58 172 58 236 c 0,14,15
 58 385 58 385 145.5 498.5 c 128,-1,16
 233 612 233 612 388 682 c 1,17,18
 279 602 279 602 215 481 c 128,-1,19
 151 360 151 360 151 230 c 0,20,21
 151 184 151 184 157 139 c 1,22,23
 193 103 193 103 238 81.5 c 128,-1,24
 283 60 283 60 344 60 c 0,25,26
 359 60 359 60 366 61 c 1,27,28
 346 88 346 88 316 134 c 2,29,-1
 299 159 l 1,30,31
 336 166 336 166 362.5 174.5 c 128,-1,32
 389 183 389 183 418 199 c 1,33,34
 427 140 427 140 443 76 c 1,35,36
 516 101 516 101 570 160.5 c 128,-1,37
 624 220 624 220 652.5 303.5 c 128,-1,38
 681 387 681 387 681 481 c 0,39,40
 681 531 681 531 675 573 c 1,41,42
 649 603 649 603 616 621.5 c 128,-1,43
 583 640 583 640 547 640 c 0,44,45
 506 640 506 640 476 615 c 128,-1,46
 446 590 446 590 430 550 c 128,-1,47
 414 510 414 510 414 467 c 0,48,49
 414 373 414 373 498 328 c 1,50,51
 426 337 426 337 379.5 383.5 c 128,-1,52
 333 430 333 430 333 498 c 0,53,54
 333 556 333 556 363 604.5 c 128,-1,55
 393 653 393 653 444.5 681.5 c 128,-1,56
 496 710 496 710 557 710 c 0,57,58
 681 710 681 710 760 589 c 1,59,60
 774 535 774 535 774 476 c 0,61,0
 774 368 774 368 735.5 273 c 128,-1,1
EndSplineSet
EndChar

StartChar: R
Encoding: 82 82 141
Width: 762
VWidth: 1000
GlyphClass: 2
Flags: W
AnchorPoint: "Anchor-6" 0 0 basechar 0
AnchorPoint: "Anchor-5" 537 700 basechar 0
AnchorPoint: "Anchor-4" 0 0 basechar 0
AnchorPoint: "Anchor-3" 407 0 basechar 0
LayerCount: 2
Fore
SplineSet
755 432.5 m 128,-1,1
 722 373 722 373 663.5 331 c 128,-1,2
 605 289 605 289 532 270 c 1,3,4
 564 189 564 189 601 113.5 c 128,-1,5
 638 38 638 38 725 -120 c 1,6,7
 602 6 602 6 530 87 c 128,-1,8
 458 168 458 168 397 251 c 1,9,-1
 407 289 l 1,10,11
 697 353 697 353 707 606 c 1,12,13
 699 622 699 622 681.5 631 c 128,-1,14
 664 640 664 640 641 640 c 0,15,16
 598 640 598 640 556.5 605 c 128,-1,17
 515 570 515 570 463.5 488 c 128,-1,18
 412 406 412 406 338 259 c 1,19,-1
 296 92 l 2,20,21
 283 40 283 40 283 14 c 0,22,23
 283 6 283 6 285 0 c 1,24,-1
 173 0 l 1,25,26
 184 13 184 13 190.5 31 c 128,-1,27
 197 49 197 49 208 92 c 2,28,-1
 301 465 l 2,29,30
 316 520 316 520 328 549 c 1,31,-1
 325 551 l 1,32,33
 253 466 253 466 162 466 c 0,34,35
 114 466 114 466 87 488 c 128,-1,36
 60 510 60 510 60 548 c 0,37,38
 60 577 60 577 74 604.5 c 128,-1,39
 88 632 88 632 113 649 c 128,-1,40
 138 666 138 666 167 666 c 0,41,42
 193 666 193 666 207 652 c 128,-1,43
 221 638 221 638 221 616 c 0,44,45
 221 607 221 607 220 602 c 1,46,47
 209 622 209 622 189 622 c 256,48,49
 169 622 169 622 156 608 c 128,-1,50
 143 594 143 594 143 573 c 0,51,52
 143 556 143 556 156 546 c 128,-1,53
 169 536 169 536 194 536 c 0,54,55
 242 536 242 536 296.5 576.5 c 128,-1,56
 351 617 351 617 416 700 c 1,57,-1
 448 700 l 1,58,-1
 398 499 l 1,59,60
 458 612 458 612 516.5 661 c 128,-1,61
 575 710 575 710 648 710 c 0,62,63
 693 710 693 710 724 689 c 128,-1,64
 755 668 755 668 778 622 c 1,65,66
 788 593 788 593 788 561 c 0,67,0
 788 492 788 492 755 432.5 c 128,-1,1
EndSplineSet
EndChar

StartChar: S
Encoding: 83 83 148
Width: 695
VWidth: 1000
GlyphClass: 2
Flags: W
AnchorPoint: "Anchor-6" 0 0 basechar 0
AnchorPoint: "Anchor-5" 504 700 basechar 0
AnchorPoint: "Anchor-4" 0 0 basechar 0
AnchorPoint: "Anchor-3" 259 0 basechar 0
LayerCount: 2
Fore
SplineSet
809 693 m 1,1,2
 774 642 774 642 729.5 615.5 c 128,-1,3
 685 589 685 589 637 589 c 0,4,5
 612 589 612 589 590.5 595 c 128,-1,6
 569 601 569 601 538 614 c 0,7,8
 506 627 506 627 481.5 633.5 c 128,-1,9
 457 640 457 640 428 640 c 0,10,11
 376 640 376 640 334.5 614 c 128,-1,12
 293 588 293 588 269 545.5 c 128,-1,13
 245 503 245 503 245 454 c 0,14,15
 245 408 245 408 274 382 c 128,-1,16
 303 356 303 356 357 356 c 0,17,18
 414 356 414 356 473 387 c 1,19,20
 406 288 406 288 296 288 c 0,21,22
 227 288 227 288 189.5 326.5 c 128,-1,23
 152 365 152 365 152 431 c 0,24,25
 152 508 152 508 189 572 c 128,-1,26
 226 636 226 636 290.5 673 c 128,-1,27
 355 710 355 710 434 710 c 0,28,29
 470 710 470 710 498.5 703 c 128,-1,30
 527 696 527 696 565 683 c 0,31,32
 601 671 601 671 624.5 665 c 128,-1,33
 648 659 648 659 677 659 c 0,34,0
 739 659 739 659 809 693 c 1,1,2
665 464.5 m 128,-1,36
 711 424 711 424 711 351 c 0,37,38
 711 244 711 244 647.5 162 c 128,-1,39
 584 80 584 80 478 35 c 1,40,41
 500 -3 500 -3 519 -45 c 1,42,43
 491 0 491 0 463 29 c 1,44,45
 360 -10 360 -10 246 -10 c 0,46,47
 158 -10 158 -10 87 9 c 128,-1,48
 16 28 16 28 -12 58 c 1,49,50
 -22 78 -22 78 -22 101 c 0,51,52
 -22 136 -22 136 2 167 c 128,-1,53
 26 198 26 198 70 216.5 c 128,-1,54
 114 235 114 235 172 235 c 0,55,56
 325 235 325 235 433 100 c 1,57,58
 517 135 517 135 567.5 193 c 128,-1,59
 618 251 618 251 618 327 c 0,60,61
 618 379 618 379 581.5 408 c 128,-1,62
 545 437 545 437 479 437 c 0,63,64
 397 437 397 437 323 388 c 1,65,66
 362 446 362 446 414 475.5 c 128,-1,67
 466 505 466 505 536 505 c 0,68,35
 619 505 619 505 665 464.5 c 128,-1,36
398 87 m 1,70,71
 346 125 346 125 286.5 145 c 128,-1,72
 227 165 227 165 166 165 c 0,73,74
 115 165 115 165 89.5 150 c 128,-1,75
 64 135 64 135 64 101 c 0,76,77
 64 91 64 91 67 82 c 1,78,79
 83 71 83 71 120 64.5 c 128,-1,80
 157 58 157 58 209 58 c 0,81,69
 308 58 308 58 398 87 c 1,70,71
EndSplineSet
EndChar

StartChar: Scedilla
Encoding: 350 350 151
Width: 695
VWidth: 1000
GlyphClass: 2
Flags: W
AnchorPoint: "Anchor-6" 0 0 basechar 0
AnchorPoint: "Anchor-5" 0 0 basechar 0
AnchorPoint: "Anchor-4" 0 0 basechar 0
AnchorPoint: "Anchor-3" 187 -195 basechar 0
LayerCount: 2
Fore
SplineSet
809 693 m 1,1,2
 774 642 774 642 729.5 615.5 c 128,-1,3
 685 589 685 589 637 589 c 0,4,5
 612 589 612 589 590.5 595 c 128,-1,6
 569 601 569 601 538 614 c 0,7,8
 506 627 506 627 481.5 633.5 c 128,-1,9
 457 640 457 640 428 640 c 0,10,11
 376 640 376 640 334.5 614 c 128,-1,12
 293 588 293 588 269 545.5 c 128,-1,13
 245 503 245 503 245 454 c 0,14,15
 245 408 245 408 274 382 c 128,-1,16
 303 356 303 356 357 356 c 0,17,18
 414 356 414 356 473 387 c 1,19,20
 406 288 406 288 296 288 c 0,21,22
 227 288 227 288 189.5 326.5 c 128,-1,23
 152 365 152 365 152 431 c 0,24,25
 152 508 152 508 189 572 c 128,-1,26
 226 636 226 636 290.5 673 c 128,-1,27
 355 710 355 710 434 710 c 0,28,29
 470 710 470 710 498.5 703 c 128,-1,30
 527 696 527 696 565 683 c 0,31,32
 601 671 601 671 624.5 665 c 128,-1,33
 648 659 648 659 677 659 c 0,34,0
 739 659 739 659 809 693 c 1,1,2
665 464.5 m 128,-1,36
 711 424 711 424 711 351 c 0,37,38
 711 244 711 244 647.5 162 c 128,-1,39
 584 80 584 80 478 35 c 1,40,41
 500 -3 500 -3 519 -45 c 1,42,43
 491 0 491 0 463 29 c 1,44,45
 370 -6 370 -6 273 -9 c 1,46,-1
 229 -51 l 1,47,48
 267 -51 267 -51 288 -65.5 c 128,-1,49
 309 -80 309 -80 309 -105 c 0,50,51
 309 -146 309 -146 281 -170.5 c 128,-1,52
 253 -195 253 -195 216 -195 c 0,53,54
 180 -195 180 -195 155 -180.5 c 128,-1,55
 130 -166 130 -166 119 -138 c 1,56,57
 145 -151 145 -151 187 -151 c 0,58,59
 241 -151 241 -151 241 -111 c 0,60,61
 241 -100 241 -100 231 -93 c 128,-1,62
 221 -86 221 -86 205 -86 c 0,63,64
 191 -86 191 -86 169 -91 c 1,65,-1
 159 -74 l 1,66,-1
 227 -10 l 1,67,68
 145 -8 145 -8 79.5 10.5 c 128,-1,69
 14 29 14 29 -12 58 c 1,70,71
 -22 78 -22 78 -22 101 c 0,72,73
 -22 136 -22 136 2 167 c 128,-1,74
 26 198 26 198 70 216.5 c 128,-1,75
 114 235 114 235 172 235 c 0,76,77
 325 235 325 235 433 100 c 1,78,79
 517 135 517 135 567.5 193 c 128,-1,80
 618 251 618 251 618 327 c 0,81,82
 618 379 618 379 581.5 408 c 128,-1,83
 545 437 545 437 479 437 c 0,84,85
 397 437 397 437 323 388 c 1,86,87
 362 446 362 446 414 475.5 c 128,-1,88
 466 505 466 505 536 505 c 0,89,35
 619 505 619 505 665 464.5 c 128,-1,36
120 64.5 m 128,-1,91
 157 58 157 58 209 58 c 0,92,93
 308 58 308 58 398 87 c 1,94,95
 346 125 346 125 286.5 145 c 128,-1,96
 227 165 227 165 166 165 c 0,97,98
 115 165 115 165 89.5 150 c 128,-1,99
 64 135 64 135 64 101 c 0,100,101
 64 91 64 91 67 82 c 1,102,90
 83 71 83 71 120 64.5 c 128,-1,91
EndSplineSet
Substitution2: "'locl' Localized Forms in Latin lookup 7 subtable" uni0218
Substitution2: "'locl' Localized Forms in Latin lookup 6 subtable" uni0218
Substitution2: "'aalt' Access All Alternates lookup 0 subtable" uni0218
EndChar

StartChar: uni1E9E
Encoding: 7838 7838 156
Width: 752
VWidth: 1000
Flags: W
LayerCount: 2
Fore
SplineSet
740 552 m 0,1,2
 740 529 740 529 735 494 c 1,3,-1
 582 384 l 1,4,5
 621 376 621 376 652 349.5 c 128,-1,6
 683 323 683 323 716 278 c 1,7,8
 716 192 716 192 686.5 127 c 128,-1,9
 657 62 657 62 605 26.5 c 128,-1,10
 553 -9 553 -9 487 -9 c 0,11,12
 428 -9 428 -9 388 19.5 c 128,-1,13
 348 48 348 48 335 97 c 1,14,15
 364 80 364 80 390 70.5 c 128,-1,16
 416 61 416 61 451 61 c 0,17,18
 532 61 532 61 580 120.5 c 128,-1,19
 628 180 628 180 628 281 c 1,20,21
 608 302 608 302 577 316 c 128,-1,22
 546 330 546 330 510 330 c 0,23,24
 463 330 463 330 417 306 c 1,25,-1
 409 360 l 1,26,-1
 648 519 l 1,27,28
 655 543 655 543 655 564 c 0,29,30
 655 582 655 582 648 605 c 1,31,32
 597 642 597 642 521 642 c 0,33,34
 426 642 426 642 360 588 c 128,-1,35
 294 534 294 534 266 437 c 1,36,37
 326 479 326 479 394 560 c 1,38,-1
 426 560 l 1,39,-1
 310 92 l 2,40,41
 297 38 297 38 297 14 c 0,42,43
 297 6 297 6 299 0 c 1,44,-1
 187 0 l 1,45,46
 198 14 198 14 205 32 c 128,-1,47
 212 50 212 50 222 92 c 2,48,-1
 280 325 l 2,49,50
 291 371 291 371 307 409 c 1,51,-1
 303 411 l 1,52,53
 280 384 280 384 252 367 c 1,54,55
 250 329 250 329 251 306 c 1,56,57
 237 327 237 327 226 352 c 1,58,59
 174 326 174 326 120 326 c 0,60,61
 73 326 73 326 46.5 348 c 128,-1,62
 20 370 20 370 20 407 c 0,63,64
 20 436 20 436 34.5 463.5 c 128,-1,65
 49 491 49 491 73.5 508.5 c 128,-1,66
 98 526 98 526 127 526 c 0,67,68
 153 526 153 526 167 512 c 128,-1,69
 181 498 181 498 181 476 c 0,70,71
 181 467 181 467 180 462 c 1,72,73
 169 482 169 482 149 482 c 0,74,75
 130 482 130 482 116.5 468.5 c 128,-1,76
 103 455 103 455 103 432 c 0,77,78
 103 415 103 415 116.5 405.5 c 128,-1,79
 130 396 130 396 155 396 c 256,80,81
 180 396 180 396 210 407 c 1,82,83
 207 425 207 425 207 445 c 0,84,85
 207 525 207 525 250 585 c 128,-1,86
 293 645 293 645 367 677.5 c 128,-1,87
 441 710 441 710 530 710 c 0,88,89
 597 710 597 710 644 691.5 c 128,-1,90
 691 673 691 673 728 632 c 1,91,0
 740 596 740 596 740 552 c 0,1,2
EndSplineSet
EndChar

StartChar: uni018F
Encoding: 399 399 157
Width: 734
VWidth: 1000
GlyphClass: 2
Flags: W
AnchorPoint: "Anchor-6" 0 0 basechar 0
AnchorPoint: "Anchor-5" 486 695 basechar 0
AnchorPoint: "Anchor-4" 0 0 basechar 0
AnchorPoint: "Anchor-3" 312 4 basechar 0
LayerCount: 2
Fore
SplineSet
162 22.5 m 128,-1,1
 106 55 106 55 69 111 c 1,2,3
 53 169 53 169 53 235 c 0,4,5
 53 303 53 303 83 356 c 128,-1,6
 113 409 113 409 168.5 439 c 128,-1,7
 224 469 224 469 299 469 c 0,8,9
 389 469 389 469 451.5 430 c 128,-1,10
 514 391 514 391 536 323 c 1,11,12
 492 357 492 357 439 376 c 128,-1,13
 386 395 386 395 338 395 c 0,14,15
 285 395 285 395 241 372 c 128,-1,16
 197 349 197 349 171 311.5 c 128,-1,17
 145 274 145 274 145 231 c 0,18,19
 145 192 145 192 152 139 c 1,20,21
 220 64 220 64 330 64 c 0,22,23
 422 64 422 64 491 115.5 c 128,-1,24
 560 167 560 167 597.5 262 c 128,-1,25
 635 357 635 357 635 484 c 0,26,27
 635 519 635 519 631 573 c 1,28,29
 547 636 547 636 429 636 c 0,30,31
 340 636 340 636 252 604.5 c 128,-1,32
 164 573 164 573 115 518 c 1,33,34
 175 614 175 614 264.5 662 c 128,-1,35
 354 710 354 710 449 710 c 0,36,37
 521 710 521 710 589 681 c 128,-1,38
 657 652 657 652 715 589 c 1,39,40
 727 531 727 531 727 467 c 0,41,42
 727 325 727 325 675.5 216.5 c 128,-1,43
 624 108 624 108 529.5 49 c 128,-1,44
 435 -10 435 -10 312 -10 c 0,45,0
 218 -10 218 -10 162 22.5 c 128,-1,1
EndSplineSet
EndChar

StartChar: T
Encoding: 84 84 158
Width: 642
VWidth: 1000
GlyphClass: 2
Flags: W
AnchorPoint: "Anchor-6" 0 0 basechar 0
AnchorPoint: "Anchor-5" 437 700 basechar 0
AnchorPoint: "Anchor-4" 0 0 basechar 0
AnchorPoint: "Anchor-3" 262 0 basechar 0
LayerCount: 2
Fore
SplineSet
198.5 591.5 m 128,-1,1
 150 545 150 545 150 460 c 0,2,3
 150 435 150 435 155 403 c 1,4,-1
 168 392 l 1,5,6
 249 515 249 515 425 574 c 1,7,8
 359 539 359 539 311 485.5 c 128,-1,9
 263 432 263 432 234 363 c 1,10,11
 250 361 250 361 260 361 c 0,12,13
 319 361 319 361 385 399 c 128,-1,14
 451 437 451 437 514 505 c 1,15,-1
 546 505 l 1,16,-1
 478 232 l 2,17,18
 465 178 465 178 465 154 c 0,19,20
 465 146 465 146 467 140 c 1,21,-1
 355 140 l 1,22,23
 366 154 366 154 373 172 c 128,-1,24
 380 190 380 190 390 232 c 2,25,-1
 402 280 l 2,26,27
 412 322 412 322 428 364 c 1,28,-1
 425 366 l 1,29,30
 382 331 382 331 331.5 311 c 128,-1,31
 281 291 281 291 234 291 c 0,32,33
 218 291 218 291 210 292 c 1,34,35
 189 213 189 213 191 118 c 1,36,37
 207 94 207 94 260 78 c 128,-1,38
 313 62 313 62 364 62 c 0,39,40
 425 62 425 62 498 88 c 128,-1,41
 571 114 571 114 639 166 c 1,42,43
 566 72 566 72 486.5 31 c 128,-1,44
 407 -10 407 -10 337 -10 c 0,45,46
 289 -10 289 -10 241 7.5 c 128,-1,47
 193 25 193 25 158 56.5 c 128,-1,48
 123 88 123 88 111 126 c 1,49,50
 107 154 107 154 107 186 c 0,51,52
 107 261 107 261 131 322 c 1,53,54
 104 340 104 340 83 368 c 1,55,56
 71 409 71 409 71 451 c 0,57,58
 71 528 71 528 108 587 c 128,-1,59
 145 646 145 646 210 678 c 128,-1,60
 275 710 275 710 356 710 c 0,61,62
 398 710 398 710 435.5 703 c 128,-1,63
 473 696 473 696 532 682 c 0,64,65
 578 670 578 670 606.5 664.5 c 128,-1,66
 635 659 635 659 662 659 c 0,67,68
 698 659 698 659 734.5 670.5 c 128,-1,69
 771 682 771 682 803 706 c 1,70,71
 774 643 774 643 729.5 615 c 128,-1,72
 685 587 685 587 636 587 c 0,73,74
 615 587 615 587 590.5 591.5 c 128,-1,75
 566 596 566 596 542.5 601.5 c 128,-1,76
 519 607 519 607 511 609 c 0,77,78
 457 623 457 623 417 630.5 c 128,-1,79
 377 638 377 638 338 638 c 0,80,0
 247 638 247 638 198.5 591.5 c 128,-1,1
EndSplineSet
EndChar

StartChar: Tbar
Encoding: 358 358 159
Width: 642
VWidth: 1000
GlyphClass: 2
Flags: W
AnchorPoint: "Anchor-6" 0 0 basechar 0
AnchorPoint: "Anchor-5" 437 700 basechar 0
AnchorPoint: "Anchor-4" 0 0 basechar 0
AnchorPoint: "Anchor-3" 262 0 basechar 0
LayerCount: 2
Fore
SplineSet
198.5 591.5 m 128,-1,1
 150 545 150 545 150 460 c 0,2,3
 150 435 150 435 155 403 c 1,4,-1
 168 392 l 1,5,6
 249 515 249 515 425 574 c 1,7,8
 359 539 359 539 311 485.5 c 128,-1,9
 263 432 263 432 234 363 c 1,10,11
 250 361 250 361 260 361 c 0,12,13
 319 361 319 361 385 399 c 128,-1,14
 451 437 451 437 514 505 c 1,15,-1
 546 505 l 1,16,-1
 485 261 l 1,17,-1
 623 261 l 1,18,-1
 608 201 l 1,19,-1
 471 201 l 1,20,21
 466 168 466 168 466 153 c 0,22,23
 466 143 466 143 467 140 c 2,24,-1
 355 140 l 1,25,26
 364 151 364 151 369.5 164 c 128,-1,27
 375 177 375 177 382 201 c 1,28,-1
 259 201 l 1,29,-1
 273 261 l 1,30,-1
 397 261 l 1,31,-1
 402 280 l 2,32,33
 412 322 412 322 428 364 c 1,34,-1
 425 366 l 1,35,36
 382 331 382 331 331.5 311 c 128,-1,37
 281 291 281 291 234 291 c 0,38,39
 218 291 218 291 210 292 c 1,40,41
 189 213 189 213 191 118 c 1,42,43
 207 94 207 94 260 78 c 128,-1,44
 313 62 313 62 364 62 c 0,45,46
 425 62 425 62 498 88 c 128,-1,47
 571 114 571 114 639 166 c 1,48,49
 566 72 566 72 486.5 31 c 128,-1,50
 407 -10 407 -10 337 -10 c 0,51,52
 289 -10 289 -10 241 7.5 c 128,-1,53
 193 25 193 25 158 56.5 c 128,-1,54
 123 88 123 88 111 126 c 1,55,56
 107 154 107 154 107 186 c 0,57,58
 107 261 107 261 131 322 c 1,59,60
 104 340 104 340 83 368 c 1,61,62
 71 409 71 409 71 451 c 0,63,64
 71 528 71 528 108 587 c 128,-1,65
 145 646 145 646 210 678 c 128,-1,66
 275 710 275 710 356 710 c 0,67,68
 398 710 398 710 435.5 703 c 128,-1,69
 473 696 473 696 532 682 c 0,70,71
 578 670 578 670 606.5 664.5 c 128,-1,72
 635 659 635 659 662 659 c 0,73,74
 698 659 698 659 734.5 670.5 c 128,-1,75
 771 682 771 682 803 706 c 1,76,77
 774 643 774 643 729.5 615 c 128,-1,78
 685 587 685 587 636 587 c 0,79,80
 615 587 615 587 590.5 591.5 c 128,-1,81
 566 596 566 596 542.5 601.5 c 128,-1,82
 519 607 519 607 511 609 c 0,83,84
 457 623 457 623 417 630.5 c 128,-1,85
 377 638 377 638 338 638 c 0,86,0
 247 638 247 638 198.5 591.5 c 128,-1,1
EndSplineSet
EndChar

StartChar: uni0162
Encoding: 354 354 161
Width: 642
VWidth: 1000
GlyphClass: 2
Flags: W
AnchorPoint: "Anchor-6" 0 0 basechar 0
AnchorPoint: "Anchor-5" 0 0 basechar 0
AnchorPoint: "Anchor-4" 0 0 basechar 0
AnchorPoint: "Anchor-3" 190 -195 basechar 0
LayerCount: 2
Fore
SplineSet
198.5 591.5 m 128,-1,1
 150 545 150 545 150 460 c 0,2,3
 150 435 150 435 155 403 c 1,4,-1
 168 392 l 1,5,6
 249 515 249 515 425 574 c 1,7,8
 359 539 359 539 311 485.5 c 128,-1,9
 263 432 263 432 234 363 c 1,10,11
 250 361 250 361 260 361 c 0,12,13
 319 361 319 361 385 399 c 128,-1,14
 451 437 451 437 514 505 c 1,15,-1
 546 505 l 1,16,-1
 478 232 l 2,17,18
 465 178 465 178 465 154 c 0,19,20
 465 146 465 146 467 140 c 1,21,-1
 355 140 l 1,22,23
 366 154 366 154 373 172 c 128,-1,24
 380 190 380 190 390 232 c 2,25,-1
 402 280 l 2,26,27
 412 322 412 322 428 364 c 1,28,-1
 425 366 l 1,29,30
 382 331 382 331 331.5 311 c 128,-1,31
 281 291 281 291 234 291 c 0,32,33
 218 291 218 291 210 292 c 1,34,35
 189 213 189 213 191 118 c 1,36,37
 207 94 207 94 260 78 c 128,-1,38
 313 62 313 62 364 62 c 0,39,40
 425 62 425 62 498 88 c 128,-1,41
 571 114 571 114 639 166 c 1,42,43
 566 72 566 72 486.5 31 c 128,-1,44
 407 -10 407 -10 337 -10 c 0,45,46
 309 -10 309 -10 282 -4 c 1,47,-1
 232 -51 l 1,48,49
 270 -51 270 -51 291 -65.5 c 128,-1,50
 312 -80 312 -80 312 -105 c 0,51,52
 312 -146 312 -146 284 -170.5 c 128,-1,53
 256 -195 256 -195 219 -195 c 0,54,55
 183 -195 183 -195 158 -180.5 c 128,-1,56
 133 -166 133 -166 122 -138 c 1,57,58
 148 -151 148 -151 190 -151 c 0,59,60
 244 -151 244 -151 244 -111 c 0,61,62
 244 -100 244 -100 234 -93 c 128,-1,63
 224 -86 224 -86 208 -86 c 0,64,65
 194 -86 194 -86 172 -91 c 1,66,-1
 162 -74 l 1,67,-1
 246 6 l 1,68,69
 196 23 196 23 159.5 55 c 128,-1,70
 123 87 123 87 111 126 c 1,71,72
 107 154 107 154 107 186 c 0,73,74
 107 261 107 261 131 322 c 1,75,76
 104 340 104 340 83 368 c 1,77,78
 71 409 71 409 71 451 c 0,79,80
 71 528 71 528 108 587 c 128,-1,81
 145 646 145 646 210 678 c 128,-1,82
 275 710 275 710 356 710 c 0,83,84
 398 710 398 710 435.5 703 c 128,-1,85
 473 696 473 696 532 682 c 0,86,87
 578 670 578 670 606.5 664.5 c 128,-1,88
 635 659 635 659 662 659 c 0,89,90
 698 659 698 659 734.5 670.5 c 128,-1,91
 771 682 771 682 803 706 c 1,92,93
 774 643 774 643 729.5 615 c 128,-1,94
 685 587 685 587 636 587 c 0,95,96
 615 587 615 587 590.5 591.5 c 128,-1,97
 566 596 566 596 542.5 601.5 c 128,-1,98
 519 607 519 607 511 609 c 0,99,100
 457 623 457 623 417 630.5 c 128,-1,101
 377 638 377 638 338 638 c 0,102,0
 247 638 247 638 198.5 591.5 c 128,-1,1
EndSplineSet
Substitution2: "'locl' Localized Forms in Latin lookup 7 subtable" uni021A
Substitution2: "'locl' Localized Forms in Latin lookup 6 subtable" uni021A
Substitution2: "'aalt' Access All Alternates lookup 0 subtable" uni021A
EndChar

StartChar: U
Encoding: 85 85 165
Width: 719
VWidth: 1000
GlyphClass: 2
Flags: W
AnchorPoint: "Anchor-6" 703 456 basechar 0
AnchorPoint: "Anchor-5" 576 700 basechar 0
AnchorPoint: "Anchor-4" 573 10 basechar 0
AnchorPoint: "Anchor-3" 301 0 basechar 0
LayerCount: 2
Fore
SplineSet
625 92 m 2,0,1
 612 38 612 38 612 14 c 0,2,3
 612 6 612 6 614 0 c 1,4,-1
 502 0 l 1,5,6
 513 14 513 14 520 32 c 128,-1,7
 527 50 527 50 537 92 c 2,8,-1
 538 96 l 1,9,-1
 535 96 l 1,10,11
 429 -10 429 -10 319 -10 c 0,12,13
 259 -10 259 -10 208.5 20.5 c 128,-1,14
 158 51 158 51 135 107 c 1,15,16
 127 158 127 158 127 198 c 0,17,18
 127 257 127 257 143 321 c 1,19,20
 106 336 106 336 85 366.5 c 128,-1,21
 64 397 64 397 64 437 c 0,22,23
 64 529 64 529 147.5 590.5 c 128,-1,24
 231 652 231 652 353 674 c 0,25,26
 381 679 381 679 400.5 684 c 128,-1,27
 420 689 420 689 447 700 c 1,28,-1
 479 700 l 1,29,30
 388 603 388 603 334 528 c 128,-1,31
 280 453 280 453 251 375 c 1,32,-1
 267 375 l 2,33,34
 353 375 353 375 417 429 c 1,35,36
 385 373 385 373 337.5 341.5 c 128,-1,37
 290 310 290 310 230 307 c 1,38,39
 212 229 212 229 212 134 c 1,40,41
 259 64 259 64 341 64 c 0,42,43
 447 64 447 64 557 172 c 1,44,-1
 622 435 l 2,45,46
 637 490 637 490 649 519 c 1,47,-1
 646 521 l 1,48,49
 621 495 621 495 586.5 480.5 c 128,-1,50
 552 466 552 466 515 466 c 0,51,52
 469 466 469 466 443 488 c 128,-1,53
 417 510 417 510 417 546 c 0,54,55
 417 576 417 576 431.5 604 c 128,-1,56
 446 632 446 632 470 649 c 128,-1,57
 494 666 494 666 523 666 c 0,58,59
 549 666 549 666 563 652 c 128,-1,60
 577 638 577 638 577 616 c 0,61,62
 577 607 577 607 576 602 c 1,63,64
 565 622 565 622 545 622 c 256,65,66
 525 622 525 622 512 606.5 c 128,-1,67
 499 591 499 591 499 573 c 0,68,69
 499 556 499 556 512.5 546 c 128,-1,70
 526 536 526 536 547 536 c 0,71,72
 588 536 588 536 636 576 c 128,-1,73
 684 616 684 616 745 700 c 1,74,-1
 777 700 l 1,75,-1
 625 92 l 2,0,1
171 400 m 1,77,78
 215 498 215 498 304 604 c 1,79,80
 234 587 234 587 187.5 548 c 128,-1,81
 141 509 141 509 141 457 c 0,82,76
 141 422 141 422 171 400 c 1,77,78
EndSplineSet
EndChar

StartChar: Uhorn
Encoding: 431 431 178
Width: 719
VWidth: 1000
GlyphClass: 2
Flags: W
AnchorPoint: "Anchor-6" 703 456 basechar 0
AnchorPoint: "Anchor-5" 576 700 basechar 0
AnchorPoint: "Anchor-4" 573 10 basechar 0
AnchorPoint: "Anchor-3" 301 0 basechar 0
LayerCount: 2
Fore
SplineSet
889 616 m 128,-1,1
 868 581 868 581 827.5 552.5 c 128,-1,2
 787 524 787 524 730 511 c 1,3,-1
 625 92 l 2,4,5
 612 38 612 38 612 14 c 0,6,7
 612 6 612 6 614 0 c 1,8,-1
 502 0 l 1,9,10
 513 14 513 14 520 32 c 128,-1,11
 527 50 527 50 537 92 c 2,12,-1
 538 96 l 1,13,-1
 535 96 l 1,14,15
 429 -10 429 -10 319 -10 c 0,16,17
 259 -10 259 -10 208.5 20.5 c 128,-1,18
 158 51 158 51 135 107 c 1,19,20
 127 158 127 158 127 198 c 0,21,22
 127 257 127 257 143 321 c 1,23,24
 106 336 106 336 85 366.5 c 128,-1,25
 64 397 64 397 64 437 c 0,26,27
 64 529 64 529 147.5 590.5 c 128,-1,28
 231 652 231 652 353 674 c 0,29,30
 381 679 381 679 400.5 684 c 128,-1,31
 420 689 420 689 447 700 c 1,32,-1
 479 700 l 1,33,34
 388 603 388 603 334 528 c 128,-1,35
 280 453 280 453 251 375 c 1,36,-1
 267 375 l 2,37,38
 353 375 353 375 417 429 c 1,39,40
 385 373 385 373 337.5 341.5 c 128,-1,41
 290 310 290 310 230 307 c 1,42,43
 212 229 212 229 212 134 c 1,44,45
 259 64 259 64 341 64 c 0,46,47
 447 64 447 64 557 172 c 1,48,-1
 622 435 l 2,49,50
 637 490 637 490 649 519 c 1,51,-1
 646 521 l 1,52,53
 621 495 621 495 586.5 480.5 c 128,-1,54
 552 466 552 466 515 466 c 0,55,56
 469 466 469 466 443 488 c 128,-1,57
 417 510 417 510 417 546 c 0,58,59
 417 576 417 576 431.5 604 c 128,-1,60
 446 632 446 632 470 649 c 128,-1,61
 494 666 494 666 523 666 c 0,62,63
 549 666 549 666 563 652 c 128,-1,64
 577 638 577 638 577 616 c 0,65,66
 577 607 577 607 576 602 c 1,67,68
 565 622 565 622 545 622 c 256,69,70
 525 622 525 622 512 606.5 c 128,-1,71
 499 591 499 591 499 573 c 0,72,73
 499 556 499 556 512.5 546 c 128,-1,74
 526 536 526 536 547 536 c 0,75,76
 588 536 588 536 636 576 c 128,-1,77
 684 616 684 616 745 700 c 1,78,-1
 777 700 l 1,79,-1
 737 538 l 1,80,81
 786 557 786 557 817 586 c 128,-1,82
 848 615 848 615 848 646 c 1,83,84
 823 646 823 646 806.5 662.5 c 128,-1,85
 790 679 790 679 790 703 c 256,86,87
 790 727 790 727 806.5 743.5 c 128,-1,88
 823 760 823 760 848 760 c 0,89,90
 875 760 875 760 892.5 742.5 c 128,-1,91
 910 725 910 725 910 686 c 0,92,0
 910 651 910 651 889 616 c 128,-1,1
171 400 m 1,94,95
 215 498 215 498 304 604 c 1,96,97
 234 587 234 587 187.5 548 c 128,-1,98
 141 509 141 509 141 457 c 0,99,93
 141 422 141 422 171 400 c 1,94,95
EndSplineSet
EndChar

StartChar: Uogonek
Encoding: 370 370 186
Width: 719
VWidth: 1000
GlyphClass: 2
Flags: W
AnchorPoint: "Anchor-6" 703 456 basechar 0
AnchorPoint: "Anchor-5" 576 700 basechar 0
AnchorPoint: "Anchor-4" 573 10 basechar 0
AnchorPoint: "Anchor-3" 301 0 basechar 0
LayerCount: 2
Fore
SplineSet
625 92 m 2,0,1
 612 38 612 38 612 14 c 0,2,3
 612 6 612 6 614 0 c 1,4,-1
 584 0 l 1,5,6
 555 -19 555 -19 536 -43 c 128,-1,7
 517 -67 517 -67 517 -91 c 0,8,9
 517 -106 517 -106 525.5 -114.5 c 128,-1,10
 534 -123 534 -123 550 -123 c 256,11,12
 566 -123 566 -123 584 -113 c 1,13,14
 550 -175 550 -175 497 -175 c 0,15,16
 471 -175 471 -175 455 -159.5 c 128,-1,17
 439 -144 439 -144 439 -119 c 0,18,19
 439 -54 439 -54 534 0 c 1,20,-1
 502 0 l 1,21,22
 513 14 513 14 520 32 c 128,-1,23
 527 50 527 50 537 92 c 2,24,-1
 538 96 l 1,25,-1
 535 96 l 1,26,27
 429 -10 429 -10 319 -10 c 0,28,29
 259 -10 259 -10 208.5 20.5 c 128,-1,30
 158 51 158 51 135 107 c 1,31,32
 127 158 127 158 127 198 c 0,33,34
 127 257 127 257 143 321 c 1,35,36
 106 336 106 336 85 366.5 c 128,-1,37
 64 397 64 397 64 437 c 0,38,39
 64 529 64 529 147.5 590.5 c 128,-1,40
 231 652 231 652 353 674 c 0,41,42
 381 679 381 679 400.5 684 c 128,-1,43
 420 689 420 689 447 700 c 1,44,-1
 479 700 l 1,45,46
 388 603 388 603 334 528 c 128,-1,47
 280 453 280 453 251 375 c 1,48,-1
 267 375 l 2,49,50
 353 375 353 375 417 429 c 1,51,52
 385 373 385 373 337.5 341.5 c 128,-1,53
 290 310 290 310 230 307 c 1,54,55
 212 229 212 229 212 134 c 1,56,57
 259 64 259 64 341 64 c 0,58,59
 447 64 447 64 557 172 c 1,60,-1
 622 435 l 2,61,62
 637 490 637 490 649 519 c 1,63,-1
 646 521 l 1,64,65
 621 495 621 495 586.5 480.5 c 128,-1,66
 552 466 552 466 515 466 c 0,67,68
 469 466 469 466 443 488 c 128,-1,69
 417 510 417 510 417 546 c 0,70,71
 417 576 417 576 431.5 604 c 128,-1,72
 446 632 446 632 470 649 c 128,-1,73
 494 666 494 666 523 666 c 0,74,75
 549 666 549 666 563 652 c 128,-1,76
 577 638 577 638 577 616 c 0,77,78
 577 607 577 607 576 602 c 1,79,80
 565 622 565 622 545 622 c 256,81,82
 525 622 525 622 512 606.5 c 128,-1,83
 499 591 499 591 499 573 c 0,84,85
 499 556 499 556 512.5 546 c 128,-1,86
 526 536 526 536 547 536 c 0,87,88
 588 536 588 536 636 576 c 128,-1,89
 684 616 684 616 745 700 c 1,90,-1
 777 700 l 1,91,-1
 625 92 l 2,0,1
171 400 m 1,93,94
 215 498 215 498 304 604 c 1,95,96
 234 587 234 587 187.5 548 c 128,-1,97
 141 509 141 509 141 457 c 0,98,92
 141 422 141 422 171 400 c 1,93,94
EndSplineSet
EndChar

StartChar: V
Encoding: 86 86 189
Width: 695
VWidth: 1000
GlyphClass: 2
Flags: W
AnchorPoint: "Anchor-6" 0 0 basechar 0
AnchorPoint: "Anchor-5" 515 700 basechar 0
AnchorPoint: "Anchor-4" 0 0 basechar 0
AnchorPoint: "Anchor-3" 249 0 basechar 0
LayerCount: 2
Fore
SplineSet
690 471 m 1,1,2
 637 352 637 352 526 222.5 c 128,-1,3
 415 93 415 93 293 0 c 1,4,-1
 200 0 l 1,5,6
 165 58 165 58 145.5 113.5 c 128,-1,7
 126 169 126 169 126 230 c 0,8,9
 126 275 126 275 137 321 c 1,10,11
 100 336 100 336 79 366.5 c 128,-1,12
 58 397 58 397 58 436 c 0,13,14
 58 528 58 528 141.5 590 c 128,-1,15
 225 652 225 652 347 674 c 0,16,17
 374 679 374 679 393.5 684 c 128,-1,18
 413 689 413 689 440 700 c 1,19,-1
 472 700 l 1,20,21
 385 608 385 608 328.5 530.5 c 128,-1,22
 272 453 272 453 243 376 c 1,23,24
 249 375 249 375 261 375 c 0,25,26
 346 375 346 375 410 429 c 1,27,28
 378 374 378 374 330.5 342 c 128,-1,29
 283 310 283 310 224 307 c 1,30,31
 217 273 217 273 217 234 c 0,32,33
 217 138 217 138 261 56 c 1,34,35
 370 148 370 148 468 269 c 128,-1,36
 566 390 566 390 609 497 c 1,37,38
 515 538 515 538 515 603 c 0,39,40
 515 649 515 649 549.5 679.5 c 128,-1,41
 584 710 584 710 636 710 c 0,42,43
 679 710 679 710 702.5 686.5 c 128,-1,44
 726 663 726 663 726 617 c 0,45,46
 726 559 726 559 696 486 c 1,47,48
 711 477 711 477 745 460 c 1,49,0
 722 463 722 463 690 471 c 1,1,2
623 538 m 1,51,52
 636 584 636 584 636 618 c 256,53,54
 636 652 636 652 617 652 c 0,55,56
 604 652 604 652 595.5 639 c 128,-1,57
 587 626 587 626 587 606 c 0,58,50
 587 574 587 574 623 538 c 1,51,52
164 401 m 1,60,61
 203 491 203 491 297 604 c 1,62,63
 230 588 230 588 182 548.5 c 128,-1,64
 134 509 134 509 134 458 c 0,65,59
 134 422 134 422 164 401 c 1,60,61
EndSplineSet
EndChar

StartChar: W
Encoding: 87 87 190
Width: 956
VWidth: 1000
GlyphClass: 2
Flags: W
AnchorPoint: "Anchor-6" 0 0 basechar 0
AnchorPoint: "Anchor-5" 632 700 basechar 0
AnchorPoint: "Anchor-4" 0 0 basechar 0
AnchorPoint: "Anchor-3" 391 0 basechar 0
LayerCount: 2
Fore
SplineSet
951 471 m 1,1,2
 899 351 899 351 789.5 219.5 c 128,-1,3
 680 88 680 88 568 0 c 1,4,-1
 475 0 l 1,5,6
 449 51 449 51 437 129 c 1,7,8
 364 54 364 54 293 0 c 1,9,-1
 200 0 l 1,10,11
 172 55 172 55 157.5 107 c 128,-1,12
 143 159 143 159 143 213 c 0,13,14
 143 265 143 265 157 323 c 1,15,16
 112 336 112 336 85.5 367.5 c 128,-1,17
 59 399 59 399 59 443 c 0,18,19
 59 531 59 531 142.5 591.5 c 128,-1,20
 226 652 226 652 347 674 c 0,21,22
 374 679 374 679 393.5 684 c 128,-1,23
 413 689 413 689 440 700 c 1,24,-1
 472 700 l 1,25,26
 394 612 394 612 343 535.5 c 128,-1,27
 292 459 292 459 265 383 c 1,28,29
 345 384 345 384 408 437 c 1,30,31
 380 388 380 388 338 356.5 c 128,-1,32
 296 325 296 325 246 317 c 1,33,34
 234 265 234 265 234 209 c 0,35,36
 234 125 234 125 263 55 c 1,37,38
 349 128 349 128 428 221 c 1,39,40
 427 236 427 236 427 266 c 0,41,42
 427 371 427 371 449.5 473 c 128,-1,43
 472 575 472 575 518.5 642.5 c 128,-1,44
 565 710 565 710 635 710 c 0,45,46
 674 710 674 710 695 686.5 c 128,-1,47
 716 663 716 663 716 618 c 0,48,49
 716 534 716 534 659.5 426.5 c 128,-1,50
 603 319 603 319 512 211 c 1,51,52
 515 125 515 125 538 59 c 1,53,54
 641 150 641 150 734.5 270.5 c 128,-1,55
 828 391 828 391 870 497 c 1,56,57
 776 538 776 538 776 603 c 0,58,59
 776 649 776 649 810.5 679.5 c 128,-1,60
 845 710 845 710 897 710 c 0,61,62
 940 710 940 710 963.5 686.5 c 128,-1,63
 987 663 987 663 987 616 c 0,64,65
 987 559 987 559 957 486 c 1,66,67
 972 477 972 477 1006 460 c 1,68,0
 983 463 983 463 951 471 c 1,1,2
556.5 552.5 m 128,-1,70
 528 453 528 453 516 336 c 1,71,72
 570 414 570 414 601 487.5 c 128,-1,73
 632 561 632 561 632 621 c 0,74,75
 632 652 632 652 618 652 c 0,76,69
 585 652 585 652 556.5 552.5 c 128,-1,70
884 538 m 1,78,79
 897 584 897 584 897 618 c 256,80,81
 897 652 897 652 878 652 c 0,82,83
 865 652 865 652 856.5 639 c 128,-1,84
 848 626 848 626 848 606 c 0,85,77
 848 574 848 574 884 538 c 1,78,79
147 426.5 m 128,-1,87
 159 410 159 410 181 399 c 1,88,89
 218 494 218 494 297 604 c 1,90,91
 229 587 229 587 182 549 c 128,-1,92
 135 511 135 511 135 464 c 0,93,86
 135 443 135 443 147 426.5 c 128,-1,87
EndSplineSet
EndChar

StartChar: X
Encoding: 88 88 195
Width: 932
VWidth: 1000
GlyphClass: 2
Flags: W
AnchorPoint: "Anchor-6" 0 0 basechar 0
AnchorPoint: "Anchor-5" 660 700 basechar 0
AnchorPoint: "Anchor-4" 0 0 basechar 0
AnchorPoint: "Anchor-3" 407 0 basechar 0
LayerCount: 2
Fore
SplineSet
981 691 m 128,-1,1
 1010 672 1010 672 1010 636 c 0,2,3
 1010 585 1010 585 974.5 549.5 c 128,-1,4
 939 514 939 514 885 514 c 0,5,6
 844 514 844 514 822.5 534.5 c 128,-1,7
 801 555 801 555 802 588 c 1,8,9
 843 572 843 572 876 572 c 0,10,11
 904 572 904 572 920 585 c 128,-1,12
 936 598 936 598 936 619 c 0,13,14
 936 635 936 635 923 643.5 c 128,-1,15
 910 652 910 652 886 652 c 0,16,17
 843 652 843 652 800 619 c 128,-1,18
 757 586 757 586 695 504 c 2,19,-1
 603 384 l 1,20,-1
 603 373 l 1,21,22
 685 335 685 335 734 273 c 1,23,24
 685 299 685 299 604 318 c 1,25,-1
 606 102 l 2,26,27
 607 59 607 59 609 40 c 128,-1,28
 611 21 611 21 617 0 c 1,29,-1
 496 0 l 1,30,31
 513 39 513 39 513 96 c 2,32,-1
 512 264 l 1,33,-1
 450 184 l 2,34,35
 368 77 368 77 299 33.5 c 128,-1,36
 230 -10 230 -10 144 -10 c 0,37,38
 79 -10 79 -10 43.5 21 c 128,-1,39
 8 52 8 52 8 110 c 0,40,41
 8 197 8 197 63 267 c 128,-1,42
 118 337 118 337 207.5 376.5 c 128,-1,43
 297 416 297 416 396 416 c 0,44,45
 455 416 455 416 510 404 c 1,46,-1
 509 569 l 1,47,48
 477 527 477 527 428 503.5 c 128,-1,49
 379 480 379 480 326 480 c 0,50,51
 274 480 274 480 245.5 502.5 c 128,-1,52
 217 525 217 525 217 564 c 0,53,54
 217 610 217 610 248 645 c 128,-1,55
 279 680 279 680 322 680 c 0,56,57
 348 680 348 680 362 666 c 128,-1,58
 376 652 376 652 376 630 c 0,59,60
 376 621 376 621 375 616 c 1,61,62
 366 636 366 636 344 636 c 0,63,64
 325 636 325 636 312 621.5 c 128,-1,65
 299 607 299 607 299 587 c 0,66,67
 299 569 299 569 312.5 559.5 c 128,-1,68
 326 550 326 550 353 550 c 0,69,70
 401 550 401 550 453.5 585 c 128,-1,71
 506 620 506 620 568 700 c 1,72,-1
 600 700 l 1,73,-1
 602 502 l 1,74,-1
 632 541 l 2,75,76
 704 634 704 634 763 672 c 128,-1,77
 822 710 822 710 896 710 c 0,78,0
 952 710 952 710 981 691 c 128,-1,1
477 340 m 1,79,80
 442 344 442 344 403 344 c 0,81,82
 322 344 322 344 253 317.5 c 128,-1,83
 184 291 184 291 143 241 c 128,-1,84
 102 191 102 191 102 126 c 0,85,86
 102 94 102 94 119 78 c 128,-1,87
 136 62 136 62 167 62 c 0,88,89
 220 62 220 62 268.5 97.5 c 128,-1,90
 317 133 317 133 385 220 c 2,91,-1
 477 340 l 1,79,80
EndSplineSet
EndChar

StartChar: Y
Encoding: 89 89 196
Width: 782
VWidth: 1000
GlyphClass: 2
Flags: W
AnchorPoint: "Anchor-6" 0 0 basechar 0
AnchorPoint: "Anchor-5" 549 700 basechar 0
AnchorPoint: "Anchor-4" 0 0 basechar 0
AnchorPoint: "Anchor-3" 375 0 basechar 0
LayerCount: 2
Fore
SplineSet
787 469 m 1,0,1
 744 350 744 350 645 239 c 128,-1,2
 546 128 546 128 422.5 59 c 128,-1,3
 299 -10 299 -10 186 -10 c 0,4,5
 125 -10 125 -10 78 8.5 c 128,-1,6
 31 27 31 27 2 58 c 1,7,8
 -7 79 -7 79 -7 101 c 0,9,10
 -7 135 -7 135 16.5 166 c 128,-1,11
 40 197 40 197 83 216 c 128,-1,12
 126 235 126 235 182 235 c 0,13,14
 252 235 252 235 292.5 204 c 128,-1,15
 333 173 333 173 341 117 c 1,16,17
 260 169 260 169 178 169 c 0,18,19
 131 169 131 169 104.5 152.5 c 128,-1,20
 78 136 78 136 78 104 c 0,21,22
 78 93 78 93 81 82 c 1,23,24
 124 58 124 58 184 58 c 0,25,26
 254 58 254 58 331 93.5 c 128,-1,27
 408 129 408 129 480 190 c 1,28,29
 439 297 439 297 415 399.5 c 128,-1,30
 391 502 391 502 388 584 c 1,31,32
 357 538 357 538 303 509 c 128,-1,33
 249 480 249 480 190 480 c 0,34,35
 139 480 139 480 110.5 502.5 c 128,-1,36
 82 525 82 525 82 564 c 0,37,38
 82 610 82 610 113 645 c 128,-1,39
 144 680 144 680 187 680 c 0,40,41
 213 680 213 680 227 666 c 128,-1,42
 241 652 241 652 241 630 c 0,43,44
 241 621 241 621 240 616 c 1,45,46
 231 636 231 636 209 636 c 0,47,48
 190 636 190 636 177 621.5 c 128,-1,49
 164 607 164 607 164 587 c 0,50,51
 164 569 164 569 177.5 559.5 c 128,-1,52
 191 550 191 550 218 550 c 0,53,54
 266 550 266 550 318.5 585 c 128,-1,55
 371 620 371 620 433 700 c 1,56,-1
 465 700 l 1,57,58
 471 497 471 497 560 267 c 1,59,60
 661 379 661 379 703 496 c 1,61,62
 606 538 606 538 606 603 c 0,63,64
 606 649 606 649 640.5 679.5 c 128,-1,65
 675 710 675 710 727 710 c 0,66,67
 815 710 815 710 815 613 c 0,68,69
 815 550 815 550 792 483 c 1,70,-1
 836 460 l 1,71,-1
 787 469 l 1,0,1
716 537 m 1,73,74
 727 581 727 581 727 618 c 0,75,76
 727 652 727 652 708 652 c 0,77,78
 696 652 696 652 687 639 c 128,-1,79
 678 626 678 626 678 607 c 0,80,72
 678 572 678 572 716 537 c 1,73,74
EndSplineSet
EndChar

StartChar: Z
Encoding: 90 90 205
Width: 713
VWidth: 1000
GlyphClass: 2
Flags: W
AnchorPoint: "Anchor-6" 0 0 basechar 0
AnchorPoint: "Anchor-5" 473 700 basechar 0
AnchorPoint: "Anchor-4" 0 0 basechar 0
AnchorPoint: "Anchor-3" 298 0 basechar 0
LayerCount: 2
Fore
SplineSet
670 412 m 128,-1,1
 712 374 712 374 712 310 c 0,2,3
 712 211 712 211 646.5 139 c 128,-1,4
 581 67 581 67 472 28 c 1,5,6
 490 -4 490 -4 509 -45 c 1,7,8
 486 -6 486 -6 458 23 c 1,9,10
 356 -10 356 -10 236 -10 c 0,11,12
 65 -10 65 -10 -22 58 c 1,13,14
 -32 78 -32 78 -32 101 c 0,15,16
 -32 137 -32 137 -8 168 c 128,-1,17
 16 199 16 199 60 217 c 128,-1,18
 104 235 104 235 162 235 c 0,19,20
 240 235 240 235 307 199 c 128,-1,21
 374 163 374 163 429 92 c 1,22,23
 516 121 516 121 567 171 c 128,-1,24
 618 221 618 221 618 291 c 0,25,26
 618 332 618 332 590.5 356 c 128,-1,27
 563 380 563 380 513 380 c 0,28,29
 475 380 475 380 440 366.5 c 128,-1,30
 405 353 405 353 376 329 c 1,31,-1
 347 366 l 1,32,-1
 541 558 l 1,33,34
 442 510 442 510 357 510 c 0,35,36
 300 510 300 510 269.5 530.5 c 128,-1,37
 239 551 239 551 239 587 c 0,38,39
 239 641 239 641 284 675.5 c 128,-1,40
 329 710 329 710 392 710 c 0,41,42
 491 710 491 710 528 614 c 1,43,44
 460 644 460 644 383 644 c 0,45,46
 356 644 356 644 337.5 633 c 128,-1,47
 319 622 319 622 319 605 c 0,48,49
 319 578 319 578 393 578 c 0,50,51
 551 578 551 578 733 700 c 1,52,-1
 771 700 l 1,53,-1
 518 447 l 1,54,55
 536 450 536 450 557 450 c 0,56,0
 628 450 628 450 670 412 c 128,-1,1
395 82 m 1,58,59
 341 122 341 122 280 143.5 c 128,-1,60
 219 165 219 165 156 165 c 0,61,62
 54 165 54 165 54 104 c 0,63,64
 54 94 54 94 57 82 c 1,65,66
 83 70 83 70 116 64 c 128,-1,67
 149 58 149 58 199 58 c 0,68,57
 302 58 302 58 395 82 c 1,58,59
EndSplineSet
EndChar

StartChar: a
Encoding: 97 97 210
Width: 562
VWidth: 1000
GlyphClass: 2
Flags: W
AnchorPoint: "Anchor-6" 0 0 basechar 0
AnchorPoint: "Anchor-5" 340 470 basechar 0
AnchorPoint: "Anchor-4" 413 15 basechar 0
AnchorPoint: "Anchor-3" 222 0 basechar 0
LayerCount: 2
Fore
SplineSet
533 94 m 1,1,2
 492 48 492 48 451 21 c 128,-1,3
 410 -6 410 -6 378 -6 c 0,4,5
 356 -6 356 -6 344 6 c 128,-1,6
 332 18 332 18 332 39 c 0,7,8
 332 51 332 51 334 58 c 2,9,-1
 344 97 l 1,10,11
 271 -10 271 -10 187 -10 c 0,12,13
 145 -10 145 -10 112 16.5 c 128,-1,14
 79 43 79 43 50 93 c 1,15,16
 40 143 40 143 40 184 c 0,17,18
 40 273 40 273 74 340 c 128,-1,19
 108 407 108 407 170 443.5 c 128,-1,20
 232 480 232 480 314 480 c 0,21,22
 388 480 388 480 445 450.5 c 128,-1,23
 502 421 502 421 532 370 c 1,24,25
 492 391 492 391 446.5 402.5 c 128,-1,26
 401 414 401 414 355 414 c 0,27,28
 246 414 246 414 185 347 c 128,-1,29
 124 280 124 280 124 163 c 0,30,31
 124 126 124 126 130 85 c 1,32,33
 146 70 146 70 159 63 c 128,-1,34
 172 56 172 56 191 56 c 0,35,36
 242 56 242 56 290 104 c 128,-1,37
 338 152 338 152 379 239 c 1,38,-1
 398 314 l 2,39,40
 407 353 407 353 448 353 c 0,41,42
 481 353 481 353 481 327 c 0,43,44
 481 324 481 324 479 314 c 2,45,-1
 422 84 l 2,46,47
 420 78 420 78 420 73 c 0,48,49
 420 57 420 57 442 57 c 0,50,0
 477 57 477 57 533 94 c 1,1,2
EndSplineSet
Substitution2: "Single Substitution lookup 19 subtable" ordfeminine
Substitution2: "'aalt' Access All Alternates lookup 0 subtable" ordfeminine
EndChar

StartChar: aogonek
Encoding: 261 261 231
Width: 562
VWidth: 1000
GlyphClass: 2
Flags: W
AnchorPoint: "Anchor-6" 0 0 basechar 0
AnchorPoint: "Anchor-5" 340 470 basechar 0
AnchorPoint: "Anchor-4" 413 15 basechar 0
AnchorPoint: "Anchor-3" 222 0 basechar 0
LayerCount: 2
Fore
SplineSet
377 -37.5 m 128,-1,1
 357 -62 357 -62 357 -86 c 0,2,3
 357 -101 357 -101 365.5 -109.5 c 128,-1,4
 374 -118 374 -118 390 -118 c 256,5,6
 406 -118 406 -118 424 -108 c 1,7,8
 390 -170 390 -170 337 -170 c 0,9,10
 311 -170 311 -170 295 -154.5 c 128,-1,11
 279 -139 279 -139 279 -114 c 0,12,13
 279 -55 279 -55 360 -3 c 1,14,15
 347 1 347 1 339.5 12.5 c 128,-1,16
 332 24 332 24 332 40 c 0,17,18
 332 46 332 46 334 58 c 2,19,-1
 344 97 l 1,20,21
 271 -10 271 -10 187 -10 c 0,22,23
 145 -10 145 -10 112 16.5 c 128,-1,24
 79 43 79 43 50 93 c 1,25,26
 40 143 40 143 40 184 c 0,27,28
 40 273 40 273 74 340 c 128,-1,29
 108 407 108 407 170 443.5 c 128,-1,30
 232 480 232 480 314 480 c 0,31,32
 388 480 388 480 445 450.5 c 128,-1,33
 502 421 502 421 532 370 c 1,34,35
 492 391 492 391 446.5 402.5 c 128,-1,36
 401 414 401 414 355 414 c 0,37,38
 246 414 246 414 185 347 c 128,-1,39
 124 280 124 280 124 163 c 0,40,41
 124 126 124 126 130 85 c 1,42,43
 146 70 146 70 159 63 c 128,-1,44
 172 56 172 56 191 56 c 0,45,46
 242 56 242 56 290 104 c 128,-1,47
 338 152 338 152 379 239 c 1,48,-1
 398 314 l 2,49,50
 407 353 407 353 448 353 c 0,51,52
 481 353 481 353 481 327 c 0,53,54
 481 324 481 324 479 314 c 2,55,-1
 422 84 l 2,56,57
 420 78 420 78 420 73 c 0,58,59
 420 57 420 57 442 57 c 0,60,61
 477 57 477 57 533 94 c 1,62,63
 476 30 476 30 426 7 c 1,64,0
 397 -13 397 -13 377 -37.5 c 128,-1,1
EndSplineSet
EndChar

StartChar: ae
Encoding: 230 230 235
Width: 862
VWidth: 1000
GlyphClass: 2
Flags: W
AnchorPoint: "Anchor-6" 0 0 basechar 0
AnchorPoint: "Anchor-5" 480 470 basechar 0
AnchorPoint: "Anchor-4" 0 0 basechar 0
AnchorPoint: "Anchor-3" 372 0 basechar 0
LayerCount: 2
Fore
SplineSet
727 247.5 m 128,-1,1
 755 274 755 274 755 318 c 0,2,3
 755 349 755 349 747 378 c 1,4,5
 731 394 731 394 708.5 404 c 128,-1,6
 686 414 686 414 663 414 c 0,7,8
 570 414 570 414 515.5 345 c 128,-1,9
 461 276 461 276 461 158 c 0,10,11
 461 125 461 125 466 93 c 1,12,13
 509 56 509 56 584 56 c 0,14,15
 645 56 645 56 701.5 79 c 128,-1,16
 758 102 758 102 793 141 c 1,17,18
 750 72 750 72 688.5 31 c 128,-1,19
 627 -10 627 -10 566 -10 c 0,20,21
 507 -10 507 -10 458 23 c 128,-1,22
 409 56 409 56 387 107 c 0,23,24
 385 113 385 113 383 125 c 1,25,26
 341 53 341 53 295 21.5 c 128,-1,27
 249 -10 249 -10 187 -10 c 0,28,29
 145 -10 145 -10 112 16.5 c 128,-1,30
 79 43 79 43 50 93 c 1,31,32
 40 143 40 143 40 184 c 0,33,34
 40 272 40 272 72 339.5 c 128,-1,35
 104 407 104 407 157 443.5 c 128,-1,36
 210 480 210 480 272 480 c 0,37,38
 315 480 315 480 353.5 457 c 128,-1,39
 392 434 392 434 414 395 c 1,40,41
 397 404 397 404 376 409 c 128,-1,42
 355 414 355 414 337 414 c 0,43,44
 273 414 273 414 225 383.5 c 128,-1,45
 177 353 177 353 150.5 296.5 c 128,-1,46
 124 240 124 240 124 163 c 0,47,48
 124 126 124 126 130 85 c 1,49,50
 146 70 146 70 159 63 c 128,-1,51
 172 56 172 56 191 56 c 0,52,53
 242 56 242 56 291 105.5 c 128,-1,54
 340 155 340 155 381 241 c 1,55,56
 398 352 398 352 472.5 416 c 128,-1,57
 547 480 547 480 662 480 c 0,58,59
 714 480 714 480 757.5 458.5 c 128,-1,60
 801 437 801 437 823 400 c 1,61,62
 835 362 835 362 835 310 c 0,63,64
 835 241 835 241 791 200 c 128,-1,65
 747 159 747 159 672 159 c 0,66,67
 610 159 610 159 565.5 184.5 c 128,-1,68
 521 210 521 210 507 253 c 1,69,70
 528 238 528 238 567 229.5 c 128,-1,71
 606 221 606 221 652 221 c 0,72,0
 699 221 699 221 727 247.5 c 128,-1,1
EndSplineSet
EndChar

StartChar: b
Encoding: 98 98 237
Width: 553
VWidth: 1000
GlyphClass: 2
Flags: W
AnchorPoint: "Anchor-6" 0 0 basechar 0
AnchorPoint: "Anchor-5" 405 750 basechar 0
AnchorPoint: "Anchor-4" 0 0 basechar 0
AnchorPoint: "Anchor-3" 218 0 basechar 0
LayerCount: 2
Fore
SplineSet
155 6 m 128,-1,1
 116 22 116 22 91 51 c 1,2,3
 80 92 80 92 80 130 c 0,4,5
 80 160 80 160 86 185 c 2,6,-1
 205 666 l 2,7,8
 206 669 206 669 206 674 c 0,9,10
 206 683 206 683 200.5 688 c 128,-1,11
 195 693 195 693 186 693 c 0,12,13
 151 693 151 693 95 656 c 1,14,15
 136 702 136 702 177 729 c 128,-1,16
 218 756 218 756 250 756 c 0,17,18
 271 756 271 756 284 744 c 128,-1,19
 297 732 297 732 297 711 c 0,20,21
 297 703 297 703 294 692 c 2,22,-1
 167 184 l 2,23,24
 159 152 159 152 159 125 c 256,25,26
 159 98 159 98 166 74 c 1,27,28
 195 56 195 56 237 56 c 0,29,30
 296 56 296 56 340.5 89.5 c 128,-1,31
 385 123 385 123 409 184.5 c 128,-1,32
 433 246 433 246 433 328 c 0,33,34
 433 357 433 357 429 382 c 1,35,36
 401 414 401 414 355 414 c 0,37,38
 314 414 314 414 280 389.5 c 128,-1,39
 246 365 246 365 230 323 c 1,40,41
 240 395 240 395 278.5 437.5 c 128,-1,42
 317 480 317 480 371 480 c 0,43,44
 417 480 417 480 454 451 c 128,-1,45
 491 422 491 422 512 369 c 1,46,47
 517 342 517 342 517 309 c 0,48,49
 517 213 517 213 483 140.5 c 128,-1,50
 449 68 449 68 387.5 29 c 128,-1,51
 326 -10 326 -10 246 -10 c 0,52,0
 194 -10 194 -10 155 6 c 128,-1,1
EndSplineSet
EndChar

StartChar: c
Encoding: 99 99 238
Width: 495
VWidth: 1000
GlyphClass: 2
Flags: W
AnchorPoint: "Anchor-6" 0 0 basechar 0
AnchorPoint: "Anchor-5" 307 470 basechar 0
AnchorPoint: "Anchor-4" 0 0 basechar 0
AnchorPoint: "Anchor-3" 189 0 basechar 0
LayerCount: 2
Fore
SplineSet
119 23 m 128,-1,1
 70 56 70 56 48 107 c 1,2,3
 38 141 38 141 38 182 c 0,4,5
 38 271 38 271 75 338.5 c 128,-1,6
 112 406 112 406 178.5 443 c 128,-1,7
 245 480 245 480 331 480 c 0,8,9
 411 480 411 480 453.5 447.5 c 128,-1,10
 496 415 496 415 496 355 c 0,11,12
 496 297 496 297 459 261 c 128,-1,13
 422 225 422 225 359 225 c 0,14,15
 308 225 308 225 286 246.5 c 128,-1,16
 264 268 264 268 264 301 c 0,17,18
 264 328 264 328 277.5 346 c 128,-1,19
 291 364 291 364 313 364 c 0,20,21
 326 364 326 364 334 357.5 c 128,-1,22
 342 351 342 351 342 339 c 0,23,24
 342 334 342 334 340 324.5 c 128,-1,25
 338 315 338 315 338 309 c 0,26,27
 338 298 338 298 346 291.5 c 128,-1,28
 354 285 354 285 367 285 c 0,29,30
 389 285 389 285 402.5 302 c 128,-1,31
 416 319 416 319 416 345 c 0,32,33
 416 378 416 378 392 396 c 128,-1,34
 368 414 368 414 324 414 c 0,35,36
 264 414 264 414 218 382.5 c 128,-1,37
 172 351 172 351 147 293 c 128,-1,38
 122 235 122 235 122 158 c 0,39,40
 122 125 122 125 127 93 c 1,41,42
 170 56 170 56 245 56 c 0,43,44
 306 56 306 56 359.5 80.5 c 128,-1,45
 413 105 413 105 454 151 c 1,46,47
 354 -10 354 -10 227 -10 c 0,48,0
 168 -10 168 -10 119 23 c 128,-1,1
EndSplineSet
EndChar

StartChar: ccedilla
Encoding: 231 231 241
Width: 495
VWidth: 1000
GlyphClass: 2
Flags: W
AnchorPoint: "Anchor-6" 0 0 basechar 0
AnchorPoint: "Anchor-5" 0 0 basechar 0
AnchorPoint: "Anchor-4" 0 0 basechar 0
AnchorPoint: "Anchor-3" 117 -195 basechar 0
LayerCount: 2
Fore
SplineSet
334 357.5 m 128,-1,1
 342 351 342 351 342 339 c 0,2,3
 342 334 342 334 340 324.5 c 128,-1,4
 338 315 338 315 338 309 c 0,5,6
 338 298 338 298 346 291.5 c 128,-1,7
 354 285 354 285 367 285 c 0,8,9
 389 285 389 285 402.5 302 c 128,-1,10
 416 319 416 319 416 345 c 0,11,12
 416 378 416 378 392 396 c 128,-1,13
 368 414 368 414 324 414 c 0,14,15
 264 414 264 414 218 382.5 c 128,-1,16
 172 351 172 351 147 293 c 128,-1,17
 122 235 122 235 122 158 c 0,18,19
 122 125 122 125 127 93 c 1,20,21
 170 56 170 56 245 56 c 0,22,23
 306 56 306 56 359.5 80.5 c 128,-1,24
 413 105 413 105 454 151 c 1,25,26
 354 -10 354 -10 227 -10 c 0,27,28
 211 -10 211 -10 204 -9 c 1,29,-1
 159 -51 l 1,30,31
 197 -51 197 -51 218 -65.5 c 128,-1,32
 239 -80 239 -80 239 -105 c 0,33,34
 239 -146 239 -146 211 -170.5 c 128,-1,35
 183 -195 183 -195 146 -195 c 0,36,37
 110 -195 110 -195 85 -180.5 c 128,-1,38
 60 -166 60 -166 49 -138 c 1,39,40
 75 -151 75 -151 117 -151 c 0,41,42
 171 -151 171 -151 171 -111 c 0,43,44
 171 -100 171 -100 161 -93 c 128,-1,45
 151 -86 151 -86 135 -86 c 0,46,47
 121 -86 121 -86 99 -91 c 1,48,-1
 89 -74 l 1,49,-1
 167 0 l 1,50,51
 126 13 126 13 95 41.5 c 128,-1,52
 64 70 64 70 48 107 c 1,53,54
 38 141 38 141 38 182 c 0,55,56
 38 271 38 271 75 338.5 c 128,-1,57
 112 406 112 406 178.5 443 c 128,-1,58
 245 480 245 480 331 480 c 0,59,60
 411 480 411 480 453.5 447.5 c 128,-1,61
 496 415 496 415 496 355 c 0,62,63
 496 297 496 297 459 261 c 128,-1,64
 422 225 422 225 359 225 c 0,65,66
 308 225 308 225 286 246.5 c 128,-1,67
 264 268 264 268 264 301 c 0,68,69
 264 328 264 328 277.5 346 c 128,-1,70
 291 364 291 364 313 364 c 0,71,0
 326 364 326 364 334 357.5 c 128,-1,1
EndSplineSet
EndChar

StartChar: d
Encoding: 100 100 244
Width: 562
VWidth: 1000
GlyphClass: 2
Flags: W
AnchorPoint: "Anchor-6" 601 470 basechar 0
AnchorPoint: "Anchor-5" 409 750 basechar 0
AnchorPoint: "Anchor-4" 0 0 basechar 0
AnchorPoint: "Anchor-3" 222 0 basechar 0
LayerCount: 2
Fore
SplineSet
422 84 m 2,0,1
 420 78 420 78 420 73 c 0,2,3
 420 57 420 57 442 57 c 0,4,5
 477 57 477 57 533 94 c 1,6,7
 492 48 492 48 451 21 c 128,-1,8
 410 -6 410 -6 378 -6 c 0,9,10
 356 -6 356 -6 344 6 c 128,-1,11
 332 18 332 18 332 39 c 0,12,13
 332 51 332 51 334 58 c 2,14,-1
 344 97 l 1,15,16
 271 -10 271 -10 187 -10 c 0,17,18
 145 -10 145 -10 112 16.5 c 128,-1,19
 79 43 79 43 50 93 c 1,20,21
 40 143 40 143 40 184 c 0,22,23
 40 271 40 271 70.5 338.5 c 128,-1,24
 101 406 101 406 150 443 c 128,-1,25
 199 480 199 480 252 480 c 0,26,27
 293 480 293 480 327.5 457.5 c 128,-1,28
 362 435 362 435 384 395 c 1,29,30
 346 414 346 414 307 414 c 0,31,32
 257 414 257 414 215 383 c 128,-1,33
 173 352 173 352 148.5 295 c 128,-1,34
 124 238 124 238 124 163 c 0,35,36
 124 126 124 126 130 85 c 1,37,38
 146 70 146 70 159 63 c 128,-1,39
 172 56 172 56 191 56 c 0,40,41
 242 56 242 56 290 104 c 128,-1,42
 338 152 338 152 379 239 c 1,43,-1
 486 666 l 2,44,45
 488 672 488 672 488 677 c 0,46,47
 488 693 488 693 466 693 c 0,48,49
 431 693 431 693 375 656 c 1,50,51
 416 702 416 702 457 729 c 128,-1,52
 498 756 498 756 530 756 c 0,53,54
 551 756 551 756 564 744 c 128,-1,55
 577 732 577 732 577 711 c 0,56,57
 577 703 577 703 574 692 c 2,58,-1
 422 84 l 2,0,1
EndSplineSet
EndChar

StartChar: eth
Encoding: 240 240 245
Width: 562
VWidth: 1000
GlyphClass: 2
Flags: W
AnchorPoint: "Anchor-6" 601 470 basechar 0
AnchorPoint: "Anchor-5" 409 750 basechar 0
AnchorPoint: "Anchor-4" 0 0 basechar 0
AnchorPoint: "Anchor-3" 222 0 basechar 0
LayerCount: 2
Fore
SplineSet
422 84 m 2,0,1
 420 78 420 78 420 73 c 0,2,3
 420 57 420 57 442 57 c 0,4,5
 477 57 477 57 533 94 c 1,6,7
 492 48 492 48 451 21 c 128,-1,8
 410 -6 410 -6 378 -6 c 0,9,10
 356 -6 356 -6 344 6 c 128,-1,11
 332 18 332 18 332 39 c 0,12,13
 332 51 332 51 334 58 c 2,14,-1
 344 97 l 1,15,16
 271 -10 271 -10 187 -10 c 0,17,18
 145 -10 145 -10 112 16.5 c 128,-1,19
 79 43 79 43 50 93 c 1,20,21
 40 143 40 143 40 184 c 0,22,23
 40 271 40 271 70.5 338.5 c 128,-1,24
 101 406 101 406 150 443 c 128,-1,25
 199 480 199 480 252 480 c 0,26,27
 293 480 293 480 327.5 457.5 c 128,-1,28
 362 435 362 435 384 395 c 1,29,30
 346 414 346 414 307 414 c 0,31,32
 257 414 257 414 215 383 c 128,-1,33
 173 352 173 352 148.5 295 c 128,-1,34
 124 238 124 238 124 163 c 0,35,36
 124 126 124 126 130 85 c 1,37,38
 146 70 146 70 159 63 c 128,-1,39
 172 56 172 56 191 56 c 0,40,41
 242 56 242 56 290 104 c 128,-1,42
 338 152 338 152 379 239 c 1,43,-1
 457 550 l 1,44,-1
 301 550 l 1,45,-1
 313 600 l 1,46,-1
 469 600 l 1,47,-1
 486 666 l 2,48,49
 488 672 488 672 488 677 c 0,50,51
 488 693 488 693 466 693 c 0,52,53
 431 693 431 693 375 656 c 1,54,55
 416 702 416 702 457 729 c 128,-1,56
 498 756 498 756 530 756 c 0,57,58
 551 756 551 756 564 744 c 128,-1,59
 577 732 577 732 577 711 c 0,60,61
 577 703 577 703 574 692 c 2,62,-1
 551 600 l 1,63,-1
 635 600 l 1,64,-1
 623 550 l 1,65,-1
 539 550 l 1,66,-1
 422 84 l 2,0,1
EndSplineSet
EndChar

StartChar: dcroat
Encoding: 273 273 247
Width: 562
VWidth: 1000
GlyphClass: 2
Flags: W
AnchorPoint: "Anchor-6" 601 470 basechar 0
AnchorPoint: "Anchor-5" 409 750 basechar 0
AnchorPoint: "Anchor-4" 0 0 basechar 0
AnchorPoint: "Anchor-3" 222 0 basechar 0
LayerCount: 2
Fore
SplineSet
422 84 m 2,0,1
 420 78 420 78 420 73 c 0,2,3
 420 57 420 57 442 57 c 0,4,5
 477 57 477 57 533 94 c 1,6,7
 492 48 492 48 451 21 c 128,-1,8
 410 -6 410 -6 378 -6 c 0,9,10
 356 -6 356 -6 344 6 c 128,-1,11
 332 18 332 18 332 39 c 0,12,13
 332 51 332 51 334 58 c 2,14,-1
 344 97 l 1,15,16
 271 -10 271 -10 187 -10 c 0,17,18
 145 -10 145 -10 112 16.5 c 128,-1,19
 79 43 79 43 50 93 c 1,20,21
 40 143 40 143 40 184 c 0,22,23
 40 271 40 271 70.5 338.5 c 128,-1,24
 101 406 101 406 150 443 c 128,-1,25
 199 480 199 480 252 480 c 0,26,27
 293 480 293 480 327.5 457.5 c 128,-1,28
 362 435 362 435 384 395 c 1,29,30
 346 414 346 414 307 414 c 0,31,32
 257 414 257 414 215 383 c 128,-1,33
 173 352 173 352 148.5 295 c 128,-1,34
 124 238 124 238 124 163 c 0,35,36
 124 126 124 126 130 85 c 1,37,38
 146 70 146 70 159 63 c 128,-1,39
 172 56 172 56 191 56 c 0,40,41
 242 56 242 56 290 104 c 128,-1,42
 338 152 338 152 379 239 c 1,43,-1
 457 550 l 1,44,-1
 301 550 l 1,45,-1
 313 600 l 1,46,-1
 469 600 l 1,47,-1
 486 666 l 2,48,49
 488 672 488 672 488 677 c 0,50,51
 488 693 488 693 466 693 c 0,52,53
 431 693 431 693 375 656 c 1,54,55
 416 702 416 702 457 729 c 128,-1,56
 498 756 498 756 530 756 c 0,57,58
 551 756 551 756 564 744 c 128,-1,59
 577 732 577 732 577 711 c 0,60,61
 577 703 577 703 574 692 c 2,62,-1
 551 600 l 1,63,-1
 635 600 l 1,64,-1
 623 550 l 1,65,-1
 539 550 l 1,66,-1
 422 84 l 2,0,1
EndSplineSet
EndChar

StartChar: e
Encoding: 101 101 250
Width: 524
VWidth: 1000
GlyphClass: 2
Flags: W
AnchorPoint: "Anchor-6" 0 0 basechar 0
AnchorPoint: "Anchor-5" 321 470 basechar 0
AnchorPoint: "Anchor-4" 336 41 basechar 0
AnchorPoint: "Anchor-3" 203 0 basechar 0
LayerCount: 2
Fore
SplineSet
120 23 m 128,-1,1
 71 56 71 56 49 107 c 1,2,3
 39 141 39 141 39 182 c 0,4,5
 39 272 39 272 74 339.5 c 128,-1,6
 109 407 109 407 173.5 443.5 c 128,-1,7
 238 480 238 480 324 480 c 0,8,9
 376 480 376 480 419.5 458.5 c 128,-1,10
 463 437 463 437 485 400 c 1,11,12
 497 362 497 362 497 310 c 0,13,14
 497 241 497 241 453 200 c 128,-1,15
 409 159 409 159 334 159 c 0,16,17
 272 159 272 159 227.5 184.5 c 128,-1,18
 183 210 183 210 169 253 c 1,19,20
 190 238 190 238 229 229.5 c 128,-1,21
 268 221 268 221 314 221 c 0,22,23
 361 221 361 221 389 247.5 c 128,-1,24
 417 274 417 274 417 318 c 0,25,26
 417 349 417 349 409 378 c 1,27,28
 393 394 393 394 370.5 404 c 128,-1,29
 348 414 348 414 325 414 c 0,30,31
 232 414 232 414 177.5 345 c 128,-1,32
 123 276 123 276 123 158 c 0,33,34
 123 125 123 125 128 93 c 1,35,36
 171 56 171 56 246 56 c 0,37,38
 307 56 307 56 363.5 79 c 128,-1,39
 420 102 420 102 455 141 c 1,40,41
 412 72 412 72 350.5 31 c 128,-1,42
 289 -10 289 -10 228 -10 c 0,43,0
 169 -10 169 -10 120 23 c 128,-1,1
EndSplineSet
EndChar

StartChar: eogonek
Encoding: 281 281 266
Width: 524
VWidth: 1000
GlyphClass: 2
Flags: W
AnchorPoint: "Anchor-6" 0 0 basechar 0
AnchorPoint: "Anchor-5" 321 470 basechar 0
AnchorPoint: "Anchor-4" 336 41 basechar 0
AnchorPoint: "Anchor-3" 203 0 basechar 0
LayerCount: 2
Fore
SplineSet
389 247.5 m 128,-1,1
 417 274 417 274 417 318 c 0,2,3
 417 349 417 349 409 378 c 1,4,5
 393 394 393 394 370.5 404 c 128,-1,6
 348 414 348 414 325 414 c 0,7,8
 232 414 232 414 177.5 345 c 128,-1,9
 123 276 123 276 123 158 c 0,10,11
 123 125 123 125 128 93 c 1,12,13
 171 56 171 56 246 56 c 0,14,15
 307 56 307 56 363.5 79 c 128,-1,16
 420 102 420 102 455 141 c 1,17,18
 403 58 403 58 329 18 c 1,19,20
 280 -23 280 -23 280 -60 c 0,21,22
 280 -75 280 -75 288.5 -83.5 c 128,-1,23
 297 -92 297 -92 313 -92 c 256,24,25
 329 -92 329 -92 347 -82 c 1,26,27
 313 -144 313 -144 260 -144 c 0,28,29
 234 -144 234 -144 218 -128.5 c 128,-1,30
 202 -113 202 -113 202 -88 c 0,31,32
 202 -47 202 -47 241 -10 c 1,33,-1
 228 -10 l 2,34,35
 169 -10 169 -10 120 23 c 128,-1,36
 71 56 71 56 49 107 c 1,37,38
 39 141 39 141 39 182 c 0,39,40
 39 272 39 272 74 339.5 c 128,-1,41
 109 407 109 407 173.5 443.5 c 128,-1,42
 238 480 238 480 324 480 c 0,43,44
 376 480 376 480 419.5 458.5 c 128,-1,45
 463 437 463 437 485 400 c 1,46,47
 497 362 497 362 497 310 c 0,48,49
 497 241 497 241 453 200 c 128,-1,50
 409 159 409 159 334 159 c 0,51,52
 272 159 272 159 227.5 184.5 c 128,-1,53
 183 210 183 210 169 253 c 1,54,55
 190 238 190 238 229 229.5 c 128,-1,56
 268 221 268 221 314 221 c 0,57,0
 361 221 361 221 389 247.5 c 128,-1,1
EndSplineSet
EndChar

StartChar: uni0259
Encoding: 601 601 268
Width: 524
VWidth: 1000
GlyphClass: 2
Flags: W
AnchorPoint: "Anchor-6" 0 0 basechar 0
AnchorPoint: "Anchor-5" 321 470 basechar 0
AnchorPoint: "Anchor-4" 188 429 basechar 0
AnchorPoint: "Anchor-3" 203 0 basechar 0
LayerCount: 2
Fore
SplineSet
404 447 m 128,-1,1
 453 414 453 414 475 363 c 1,2,3
 485 329 485 329 485 288 c 0,4,5
 485 198 485 198 450 130.5 c 128,-1,6
 415 63 415 63 350.5 26.5 c 128,-1,7
 286 -10 286 -10 200 -10 c 0,8,9
 148 -10 148 -10 104.5 11.5 c 128,-1,10
 61 33 61 33 39 70 c 1,11,12
 27 108 27 108 27 160 c 0,13,14
 27 229 27 229 71 270 c 128,-1,15
 115 311 115 311 190 311 c 0,16,17
 252 311 252 311 296.5 285.5 c 128,-1,18
 341 260 341 260 355 217 c 1,19,20
 334 232 334 232 295 240.5 c 128,-1,21
 256 249 256 249 210 249 c 0,22,23
 163 249 163 249 135 222.5 c 128,-1,24
 107 196 107 196 107 152 c 0,25,26
 107 121 107 121 115 92 c 1,27,28
 131 76 131 76 153.5 66 c 128,-1,29
 176 56 176 56 199 56 c 0,30,31
 292 56 292 56 346.5 125 c 128,-1,32
 401 194 401 194 401 312 c 0,33,34
 401 345 401 345 396 377 c 1,35,36
 353 414 353 414 278 414 c 0,37,38
 217 414 217 414 160.5 391 c 128,-1,39
 104 368 104 368 69 329 c 1,40,41
 112 398 112 398 173.5 439 c 128,-1,42
 235 480 235 480 296 480 c 0,43,0
 355 480 355 480 404 447 c 128,-1,1
EndSplineSet
EndChar

StartChar: f
Encoding: 102 102 269
Width: 413
VWidth: 1000
GlyphClass: 2
Flags: W
AnchorPoint: "Anchor-6" 0 0 basechar 0
AnchorPoint: "Anchor-5" 335 750 basechar 0
AnchorPoint: "Anchor-4" 0 0 basechar 0
AnchorPoint: "Anchor-3" 148 0 basechar 0
LayerCount: 2
Fore
SplineSet
434.5 600 m 128,-1,1
 454 623 454 623 454 651 c 0,2,3
 454 673 454 673 442 684.5 c 128,-1,4
 430 696 430 696 408 696 c 0,5,6
 379 696 379 696 357 676 c 128,-1,7
 335 656 335 656 327 621 c 2,8,-1
 290 470 l 1,9,-1
 455 470 l 1,10,-1
 439 406 l 1,11,-1
 274 406 l 1,12,-1
 147 -102 l 1,13,-1
 143 -118 l 1,14,15
 205 -144 205 -144 263 -192 c 1,16,17
 246 -182 246 -182 210.5 -172 c 128,-1,18
 175 -162 175 -162 131 -155 c 1,19,20
 97 -255 97 -255 38.5 -306 c 128,-1,21
 -20 -357 -20 -357 -102 -357 c 0,22,23
 -203 -357 -203 -357 -255 -281 c 1,24,25
 -266 -254 -266 -254 -266 -226 c 0,26,27
 -266 -184 -266 -184 -234.5 -151 c 128,-1,28
 -203 -118 -203 -118 -150 -99 c 128,-1,29
 -97 -80 -97 -80 -33 -80 c 0,30,31
 18 -80 18 -80 67 -92 c 1,32,-1
 192 406 l 1,33,-1
 78 406 l 1,34,-1
 94 470 l 1,35,-1
 208 470 l 1,36,-1
 245 621 l 2,37,38
 261 685 261 685 307 722.5 c 128,-1,39
 353 760 353 760 418 760 c 0,40,41
 472 760 472 760 505.5 733.5 c 128,-1,42
 539 707 539 707 539 664 c 0,43,44
 539 614 539 614 494 590.5 c 128,-1,45
 449 567 449 567 381 567 c 1,46,0
 415 577 415 577 434.5 600 c 128,-1,1
-15 -254 m 128,-1,48
 27 -217 27 -217 52 -147 c 1,49,50
 39 -146 39 -146 13 -146 c 0,51,52
 -83 -146 -83 -146 -133.5 -172 c 128,-1,53
 -184 -198 -184 -198 -184 -241 c 0,54,55
 -184 -250 -184 -250 -182.5 -258 c 128,-1,56
 -181 -266 -181 -266 -179 -270 c 0,57,58
 -160 -291 -160 -291 -114 -291 c 0,59,47
 -57 -291 -57 -291 -15 -254 c 128,-1,48
EndSplineSet
EndChar

StartChar: g
Encoding: 103 103 270
Width: 556
VWidth: 1000
GlyphClass: 2
Flags: W
AnchorPoint: "Anchor-6" 0 0 basechar 0
AnchorPoint: "Anchor-5" 337 470 basechar 0
AnchorPoint: "Anchor-4" 0 0 basechar 0
AnchorPoint: "Anchor-3" 100 -357 basechar 0
LayerCount: 2
Fore
SplineSet
494 -192 m 1,1,2
 481 -183 481 -183 445.5 -173.5 c 128,-1,3
 410 -164 410 -164 363 -157 c 1,4,5
 335 -239 335 -239 274 -298 c 128,-1,6
 213 -357 213 -357 100 -357 c 0,7,8
 45 -357 45 -357 6.5 -339 c 128,-1,9
 -32 -321 -32 -321 -60 -281 c 1,10,11
 -71 -254 -71 -254 -71 -225 c 0,12,13
 -71 -183 -71 -183 -40.5 -150 c 128,-1,14
 -10 -117 -10 -117 46 -98.5 c 128,-1,15
 102 -80 102 -80 175 -80 c 0,16,17
 237 -80 237 -80 298 -94 c 1,18,-1
 347 104 l 1,19,20
 273 0 273 0 189 0 c 0,21,22
 147 0 147 0 114 26.5 c 128,-1,23
 81 53 81 53 52 103 c 1,24,25
 42 153 42 153 42 194 c 0,26,27
 42 283 42 283 76 347.5 c 128,-1,28
 110 412 110 412 171.5 446 c 128,-1,29
 233 480 233 480 316 480 c 0,30,31
 390 480 390 480 447 450.5 c 128,-1,32
 504 421 504 421 534 370 c 1,33,34
 494 391 494 391 448.5 402.5 c 128,-1,35
 403 414 403 414 357 414 c 0,36,37
 246 414 246 414 186 351.5 c 128,-1,38
 126 289 126 289 126 173 c 0,39,40
 126 136 126 136 132 95 c 1,41,42
 148 80 148 80 161 73 c 128,-1,43
 174 66 174 66 193 66 c 0,44,45
 243 66 243 66 291.5 112 c 128,-1,46
 340 158 340 158 381 239 c 1,47,-1
 400 314 l 2,48,49
 409 353 409 353 450 353 c 0,50,51
 483 353 483 353 483 327 c 0,52,53
 483 324 483 324 481 314 c 2,54,-1
 378 -102 l 1,55,-1
 374 -119 l 1,56,0
 437 -146 437 -146 494 -192 c 1,1,2
216 -249.5 m 128,-1,58
 262 -208 262 -208 283 -148 c 1,59,60
 243 -146 243 -146 223 -146 c 0,61,62
 120 -146 120 -146 65.5 -172 c 128,-1,63
 11 -198 11 -198 11 -241 c 0,64,65
 11 -250 11 -250 12.5 -258 c 128,-1,66
 14 -266 14 -266 16 -270 c 0,67,68
 35 -291 35 -291 87 -291 c 0,69,57
 170 -291 170 -291 216 -249.5 c 128,-1,58
EndSplineSet
EndChar

StartChar: h
Encoding: 104 104 277
Width: 547
VWidth: 1000
GlyphClass: 2
Flags: W
AnchorPoint: "Anchor-6" 0 0 basechar 0
AnchorPoint: "Anchor-5" 402 750 basechar 0
AnchorPoint: "Anchor-4" 0 0 basechar 0
AnchorPoint: "Anchor-3" 215 0 basechar 0
LayerCount: 2
Fore
SplineSet
45 19 m 0,1,2
 45 22 45 22 47 32 c 2,3,-1
 205 666 l 2,4,5
 207 672 207 672 207 677 c 0,6,7
 207 693 207 693 186 693 c 0,8,9
 151 693 151 693 95 656 c 1,10,11
 136 702 136 702 177 729 c 128,-1,12
 218 756 218 756 250 756 c 0,13,14
 271 756 271 756 284 744 c 128,-1,15
 297 732 297 732 297 711 c 0,16,17
 297 703 297 703 294 692 c 2,18,-1
 206 344 l 1,19,20
 267 407 267 407 319.5 443.5 c 128,-1,21
 372 480 372 480 402 480 c 0,22,23
 419 480 419 480 440 468.5 c 128,-1,24
 461 457 461 457 475 438 c 128,-1,25
 489 419 489 419 489 399 c 0,26,27
 489 394 489 394 487 386 c 2,28,-1
 411 84 l 2,29,30
 409 80 409 80 409 74 c 0,31,32
 409 57 409 57 431 57 c 0,33,34
 466 57 466 57 522 94 c 1,35,36
 481 48 481 48 440 21 c 128,-1,37
 399 -6 399 -6 367 -6 c 0,38,39
 346 -6 346 -6 333 6 c 128,-1,40
 320 18 320 18 320 39 c 0,41,42
 320 48 320 48 323 58 c 2,43,-1
 407 394 l 1,44,45
 360 388 360 388 299 348.5 c 128,-1,46
 238 309 238 309 183 248 c 1,47,-1
 129 32 l 2,48,49
 120 -6 120 -6 78 -6 c 0,50,0
 45 -6 45 -6 45 19 c 0,1,2
EndSplineSet
EndChar

StartChar: hbar
Encoding: 295 295 278
Width: 547
VWidth: 1000
GlyphClass: 2
Flags: W
AnchorPoint: "Anchor-6" 0 0 basechar 0
AnchorPoint: "Anchor-5" 402 750 basechar 0
AnchorPoint: "Anchor-4" 0 0 basechar 0
AnchorPoint: "Anchor-3" 215 0 basechar 0
LayerCount: 2
Fore
SplineSet
522 94 m 1,1,2
 481 48 481 48 440 21 c 128,-1,3
 399 -6 399 -6 367 -6 c 0,4,5
 346 -6 346 -6 333 6 c 128,-1,6
 320 18 320 18 320 39 c 0,7,8
 320 48 320 48 323 58 c 2,9,-1
 407 394 l 1,10,11
 360 388 360 388 299 348.5 c 128,-1,12
 238 309 238 309 183 248 c 1,13,-1
 129 32 l 2,14,15
 120 -6 120 -6 78 -6 c 0,16,17
 45 -6 45 -6 45 19 c 0,18,19
 45 22 45 22 47 32 c 2,20,-1
 176 550 l 1,21,-1
 79 550 l 1,22,-1
 91 600 l 1,23,-1
 189 600 l 1,24,-1
 205 666 l 2,25,26
 207 672 207 672 207 677 c 0,27,28
 207 693 207 693 186 693 c 0,29,30
 151 693 151 693 95 656 c 1,31,32
 136 702 136 702 177 729 c 128,-1,33
 218 756 218 756 250 756 c 0,34,35
 271 756 271 756 284 744 c 128,-1,36
 297 732 297 732 297 711 c 0,37,38
 297 703 297 703 294 692 c 2,39,-1
 271 600 l 1,40,-1
 413 600 l 1,41,-1
 401 550 l 1,42,-1
 258 550 l 1,43,-1
 206 344 l 1,44,45
 267 407 267 407 319.5 443.5 c 128,-1,46
 372 480 372 480 402 480 c 0,47,48
 419 480 419 480 440 468.5 c 128,-1,49
 461 457 461 457 475 438 c 128,-1,50
 489 419 489 419 489 399 c 0,51,52
 489 394 489 394 487 386 c 2,53,-1
 411 84 l 2,54,55
 409 80 409 80 409 74 c 0,56,57
 409 57 409 57 431 57 c 0,58,0
 466 57 466 57 522 94 c 1,1,2
EndSplineSet
EndChar

StartChar: i
Encoding: 105 105 282
Width: 288
VWidth: 1000
GlyphClass: 2
Flags: W
AnchorPoint: "Anchor-6" 0 0 basechar 0
AnchorPoint: "Anchor-5" 0 0 basechar 0
AnchorPoint: "Anchor-4" 0 0 basechar 0
AnchorPoint: "Anchor-3" 85 0 basechar 0
LayerCount: 2
Fore
SplineSet
202.5 595.5 m 128,-1,1
 190 607 190 607 190 625 c 0,2,3
 190 651 190 651 212 670.5 c 128,-1,4
 234 690 234 690 260 690 c 0,5,6
 279 690 279 690 291.5 678.5 c 128,-1,7
 304 667 304 667 304 649 c 0,8,9
 304 623 304 623 282 603.5 c 128,-1,10
 260 584 260 584 234 584 c 0,11,0
 215 584 215 584 202.5 595.5 c 128,-1,1
72 6 m 128,-1,13
 59 18 59 18 59 39 c 0,14,15
 59 48 59 48 62 58 c 2,16,-1
 143 386 l 2,17,18
 144 389 144 389 144 394 c 0,19,20
 144 403 144 403 138.5 408 c 128,-1,21
 133 413 133 413 124 413 c 0,22,23
 89 413 89 413 33 376 c 1,24,25
 74 422 74 422 115 449 c 128,-1,26
 156 476 156 476 188 476 c 0,27,28
 209 476 209 476 222 464 c 128,-1,29
 235 452 235 452 235 431 c 0,30,31
 235 423 235 423 232 412 c 2,32,-1
 150 84 l 2,33,34
 148 78 148 78 148 73 c 0,35,36
 148 57 148 57 170 57 c 0,37,38
 205 57 205 57 261 94 c 1,39,40
 220 48 220 48 179 21 c 128,-1,41
 138 -6 138 -6 106 -6 c 0,42,12
 85 -6 85 -6 72 6 c 128,-1,13
EndSplineSet
Substitution2: "Single Substitution lookup 14 subtable" dotlessi
Substitution2: "'aalt' Access All Alternates lookup 0 subtable" dotlessi
EndChar

StartChar: dotlessi
Encoding: 305 305 283
Width: 288
VWidth: 1000
GlyphClass: 2
Flags: W
AnchorPoint: "Anchor-6" 0 0 basechar 0
AnchorPoint: "Anchor-5" 203 470 basechar 0
AnchorPoint: "Anchor-4" 161 27 basechar 0
AnchorPoint: "Anchor-3" 85 0 basechar 0
LayerCount: 2
Fore
SplineSet
72 6 m 128,-1,1
 59 18 59 18 59 39 c 0,2,3
 59 48 59 48 62 58 c 2,4,-1
 143 386 l 2,5,6
 144 389 144 389 144 394 c 0,7,8
 144 403 144 403 138.5 408 c 128,-1,9
 133 413 133 413 124 413 c 0,10,11
 89 413 89 413 33 376 c 1,12,13
 74 422 74 422 115 449 c 128,-1,14
 156 476 156 476 188 476 c 0,15,16
 209 476 209 476 222 464 c 128,-1,17
 235 452 235 452 235 431 c 0,18,19
 235 423 235 423 232 412 c 2,20,-1
 150 84 l 2,21,22
 148 78 148 78 148 73 c 0,23,24
 148 57 148 57 170 57 c 0,25,26
 205 57 205 57 261 94 c 1,27,28
 220 48 220 48 179 21 c 128,-1,29
 138 -6 138 -6 106 -6 c 0,30,0
 85 -6 85 -6 72 6 c 128,-1,1
EndSplineSet
EndChar

StartChar: iogonek
Encoding: 303 303 294
Width: 288
VWidth: 1000
GlyphClass: 2
Flags: W
AnchorPoint: "Anchor-6" 0 0 basechar 0
AnchorPoint: "Anchor-5" 246 644 basechar 0
AnchorPoint: "Anchor-4" 161 27 basechar 0
AnchorPoint: "Anchor-3" 85 0 basechar 0
LayerCount: 2
Fore
SplineSet
281.5 632 m 128,-1,1
 294 620 294 620 294 599 c 0,2,3
 294 566 294 566 271.5 543 c 128,-1,4
 249 520 249 520 216 520 c 0,5,6
 192 520 192 520 179 532 c 128,-1,7
 166 544 166 544 166 564 c 0,8,9
 166 597 166 597 189.5 620.5 c 128,-1,10
 213 644 213 644 246 644 c 0,11,0
 269 644 269 644 281.5 632 c 128,-1,1
148 73 m 0,13,14
 148 57 148 57 170 57 c 0,15,16
 205 57 205 57 261 94 c 1,17,18
 212 39 212 39 165 13 c 1,19,20
 139 -6 139 -6 122 -29 c 128,-1,21
 105 -52 105 -52 105 -74 c 0,22,23
 105 -89 105 -89 113.5 -97.5 c 128,-1,24
 122 -106 122 -106 138 -106 c 256,25,26
 154 -106 154 -106 172 -96 c 1,27,28
 138 -158 138 -158 85 -158 c 0,29,30
 59 -158 59 -158 43 -142.5 c 128,-1,31
 27 -127 27 -127 27 -102 c 0,32,33
 27 -50 27 -50 90 -4 c 1,34,35
 60 5 60 5 60 39 c 0,36,37
 60 51 60 51 62 58 c 2,38,-1
 143 386 l 2,39,40
 144 389 144 389 144 394 c 0,41,42
 144 403 144 403 138.5 408 c 128,-1,43
 133 413 133 413 124 413 c 0,44,45
 89 413 89 413 33 376 c 1,46,47
 74 422 74 422 115 449 c 128,-1,48
 156 476 156 476 188 476 c 0,49,50
 209 476 209 476 222 464 c 128,-1,51
 235 452 235 452 235 431 c 0,52,53
 235 423 235 423 232 412 c 2,54,-1
 150 84 l 2,55,12
 148 78 148 78 148 73 c 0,13,14
EndSplineSet
EndChar

StartChar: j
Encoding: 106 106 296
Width: 288
VWidth: 1000
Flags: W
LayerCount: 2
Fore
SplineSet
291.5 678.5 m 128,-1,1
 304 667 304 667 304 649 c 0,2,3
 304 623 304 623 282 603.5 c 128,-1,4
 260 584 260 584 234 584 c 0,5,6
 215 584 215 584 202.5 595.5 c 128,-1,7
 190 607 190 607 190 625 c 0,8,9
 190 651 190 651 212 670.5 c 128,-1,10
 234 690 234 690 260 690 c 0,11,0
 279 690 279 690 291.5 678.5 c 128,-1,1
222 464 m 128,-1,13
 235 452 235 452 235 431 c 0,14,15
 235 423 235 423 232 412 c 2,16,-1
 104 -102 l 1,17,-1
 100 -118 l 1,18,19
 162 -144 162 -144 220 -192 c 1,20,21
 203 -182 203 -182 167.5 -172 c 128,-1,22
 132 -162 132 -162 88 -155 c 1,23,24
 54 -255 54 -255 -4.5 -306 c 128,-1,25
 -63 -357 -63 -357 -145 -357 c 0,26,27
 -246 -357 -246 -357 -298 -281 c 1,28,29
 -309 -254 -309 -254 -309 -226 c 0,30,31
 -309 -184 -309 -184 -277.5 -151 c 128,-1,32
 -246 -118 -246 -118 -193 -99 c 128,-1,33
 -140 -80 -140 -80 -76 -80 c 0,34,35
 -26 -80 -26 -80 24 -92 c 1,36,-1
 143 386 l 2,37,38
 144 389 144 389 144 394 c 0,39,40
 144 403 144 403 138.5 408 c 128,-1,41
 133 413 133 413 124 413 c 0,42,43
 89 413 89 413 33 376 c 1,44,45
 74 422 74 422 115 449 c 128,-1,46
 156 476 156 476 188 476 c 0,47,12
 209 476 209 476 222 464 c 128,-1,13
-58 -255 m 128,-1,49
 -16 -219 -16 -219 9 -147 c 1,50,51
 -4 -146 -4 -146 -30 -146 c 0,52,53
 -126 -146 -126 -146 -176.5 -172 c 128,-1,54
 -227 -198 -227 -198 -227 -241 c 0,55,56
 -227 -250 -227 -250 -225.5 -258 c 128,-1,57
 -224 -266 -224 -266 -222 -270 c 0,58,59
 -203 -291 -203 -291 -157 -291 c 0,60,48
 -100 -291 -100 -291 -58 -255 c 128,-1,49
EndSplineSet
Substitution2: "Single Substitution lookup 14 subtable" uni0237
Substitution2: "'aalt' Access All Alternates lookup 0 subtable" uni0237
EndChar

StartChar: uni0237
Encoding: 567 567 297
Width: 288
VWidth: 1000
GlyphClass: 2
Flags: W
AnchorPoint: "Anchor-6" 0 0 basechar 0
AnchorPoint: "Anchor-5" 203 470 basechar 0
AnchorPoint: "Anchor-4" 0 0 basechar 0
AnchorPoint: "Anchor-3" -145 -357 basechar 0
LayerCount: 2
Fore
SplineSet
104 -102 m 1,0,-1
 100 -118 l 1,1,2
 162 -144 162 -144 220 -192 c 1,3,4
 203 -182 203 -182 167.5 -172 c 128,-1,5
 132 -162 132 -162 88 -155 c 1,6,7
 54 -255 54 -255 -4.5 -306 c 128,-1,8
 -63 -357 -63 -357 -145 -357 c 0,9,10
 -246 -357 -246 -357 -298 -281 c 1,11,12
 -309 -254 -309 -254 -309 -226 c 0,13,14
 -309 -184 -309 -184 -277.5 -151 c 128,-1,15
 -246 -118 -246 -118 -193 -99 c 128,-1,16
 -140 -80 -140 -80 -76 -80 c 0,17,18
 -26 -80 -26 -80 24 -92 c 1,19,-1
 143 386 l 2,20,21
 144 389 144 389 144 394 c 0,22,23
 144 403 144 403 138.5 408 c 128,-1,24
 133 413 133 413 124 413 c 0,25,26
 89 413 89 413 33 376 c 1,27,28
 74 422 74 422 115 449 c 128,-1,29
 156 476 156 476 188 476 c 0,30,31
 209 476 209 476 222 464 c 128,-1,32
 235 452 235 452 235 431 c 0,33,34
 235 423 235 423 232 412 c 2,35,-1
 104 -102 l 1,0,-1
-58 -255 m 128,-1,37
 -16 -219 -16 -219 9 -147 c 1,38,39
 -4 -146 -4 -146 -30 -146 c 0,40,41
 -126 -146 -126 -146 -176.5 -172 c 128,-1,42
 -227 -198 -227 -198 -227 -241 c 0,43,44
 -227 -250 -227 -250 -225.5 -258 c 128,-1,45
 -224 -266 -224 -266 -222 -270 c 0,46,47
 -203 -291 -203 -291 -157 -291 c 0,48,36
 -100 -291 -100 -291 -58 -255 c 128,-1,37
EndSplineSet
EndChar

StartChar: k
Encoding: 107 107 299
Width: 511
VWidth: 1000
GlyphClass: 2
Flags: W
AnchorPoint: "Anchor-6" 0 0 basechar 0
AnchorPoint: "Anchor-5" 384 750 basechar 0
AnchorPoint: "Anchor-4" 0 0 basechar 0
AnchorPoint: "Anchor-3" 197 0 basechar 0
LayerCount: 2
Fore
SplineSet
460.5 325 m 128,-1,1
 480 347 480 347 480 376 c 0,2,3
 480 394 480 394 471.5 405 c 128,-1,4
 463 416 463 416 446 416 c 256,5,6
 429 416 429 416 411.5 402.5 c 128,-1,7
 394 389 394 389 359 352 c 2,8,-1
 280 268 l 1,9,10
 307 170 307 170 357.5 50 c 128,-1,11
 408 -70 408 -70 470 -178 c 1,12,13
 375 -77 375 -77 306.5 22.5 c 128,-1,14
 238 122 238 122 212 195 c 1,15,-1
 155 134 l 1,16,-1
 129 32 l 2,17,18
 120 -6 120 -6 78 -6 c 0,19,20
 45 -6 45 -6 45 19 c 0,21,22
 45 22 45 22 47 32 c 2,23,-1
 205 666 l 2,24,25
 206 669 206 669 206 674 c 0,26,27
 206 683 206 683 200.5 688 c 128,-1,28
 195 693 195 693 186 693 c 0,29,30
 151 693 151 693 95 656 c 1,31,32
 136 702 136 702 177 729 c 128,-1,33
 218 756 218 756 250 756 c 0,34,35
 271 756 271 756 284 744 c 128,-1,36
 297 732 297 732 297 711 c 0,37,38
 297 703 297 703 294 692 c 2,39,-1
 188 274 l 1,40,-1
 310 404 l 2,41,42
 340 435 340 435 373.5 457.5 c 128,-1,43
 407 480 407 480 457 480 c 0,44,45
 503 480 503 480 530.5 457 c 128,-1,46
 558 434 558 434 558 396 c 0,47,48
 558 349 558 349 517 321 c 128,-1,49
 476 293 476 293 407 293 c 1,50,0
 441 303 441 303 460.5 325 c 128,-1,1
EndSplineSet
EndChar

StartChar: kgreenlandic
Encoding: 312 312 301
Width: 510
VWidth: 1000
GlyphClass: 2
Flags: W
AnchorPoint: "Anchor-6" 0 0 basechar 0
AnchorPoint: "Anchor-5" 314 470 basechar 0
AnchorPoint: "Anchor-4" 0 0 basechar 0
AnchorPoint: "Anchor-3" 196 0 basechar 0
LayerCount: 2
Fore
SplineSet
459.5 325 m 128,-1,1
 479 347 479 347 479 376 c 0,2,3
 479 394 479 394 470.5 405 c 128,-1,4
 462 416 462 416 445 416 c 256,5,6
 428 416 428 416 410.5 402.5 c 128,-1,7
 393 389 393 389 358 352 c 2,8,-1
 279 268 l 1,9,10
 306 170 306 170 356.5 50 c 128,-1,11
 407 -70 407 -70 469 -178 c 1,12,13
 374 -77 374 -77 305.5 22.5 c 128,-1,14
 237 122 237 122 211 195 c 1,15,-1
 154 134 l 1,16,-1
 128 32 l 2,17,18
 119 -6 119 -6 77 -6 c 0,19,20
 44 -6 44 -6 44 20 c 1,21,-1
 46 32 l 1,22,-1
 142 414 l 2,23,24
 143 417 143 417 143 422 c 0,25,26
 143 431 143 431 137.5 436 c 128,-1,27
 132 441 132 441 123 441 c 0,28,29
 88 441 88 441 32 404 c 1,30,31
 73 450 73 450 114 477 c 128,-1,32
 155 504 155 504 187 504 c 0,33,34
 208 504 208 504 221 492.5 c 128,-1,35
 234 481 234 481 234 460 c 0,36,37
 234 451 234 451 231 440 c 2,38,-1
 187 274 l 1,39,-1
 309 404 l 2,40,41
 339 435 339 435 372.5 457.5 c 128,-1,42
 406 480 406 480 456 480 c 0,43,44
 502 480 502 480 529.5 457 c 128,-1,45
 557 434 557 434 557 396 c 0,46,47
 557 349 557 349 516 321 c 128,-1,48
 475 293 475 293 406 293 c 1,49,0
 440 303 440 303 459.5 325 c 128,-1,1
EndSplineSet
EndChar

StartChar: l
Encoding: 108 108 302
Width: 282
VWidth: 1000
GlyphClass: 2
Flags: W
AnchorPoint: "Anchor-6" 390 750 basechar 0
AnchorPoint: "Anchor-5" 269 750 basechar 0
AnchorPoint: "Anchor-4" 0 0 basechar 0
AnchorPoint: "Anchor-3" 82 0 basechar 0
LayerCount: 2
Fore
SplineSet
66 6 m 128,-1,1
 53 18 53 18 53 39 c 0,2,3
 53 48 53 48 56 58 c 2,4,-1
 208 666 l 2,5,6
 210 672 210 672 210 677 c 0,7,8
 210 693 210 693 188 693 c 0,9,10
 153 693 153 693 97 656 c 1,11,12
 138 702 138 702 179 729 c 128,-1,13
 220 756 220 756 252 756 c 0,14,15
 273 756 273 756 286 744 c 128,-1,16
 299 732 299 732 299 711 c 0,17,18
 299 703 299 703 296 692 c 2,19,-1
 144 84 l 2,20,21
 142 78 142 78 142 73 c 0,22,23
 142 57 142 57 164 57 c 0,24,25
 199 57 199 57 255 94 c 1,26,27
 214 48 214 48 173 21 c 128,-1,28
 132 -6 132 -6 100 -6 c 0,29,0
 79 -6 79 -6 66 6 c 128,-1,1
EndSplineSet
EndChar

StartChar: lslash
Encoding: 322 322 310
Width: 282
VWidth: 1000
GlyphClass: 2
Flags: W
AnchorPoint: "Anchor-6" 390 750 basechar 0
AnchorPoint: "Anchor-5" 269 750 basechar 0
AnchorPoint: "Anchor-4" 0 0 basechar 0
AnchorPoint: "Anchor-3" 82 0 basechar 0
LayerCount: 2
Fore
SplineSet
144 84 m 2,0,1
 142 78 142 78 142 73 c 0,2,3
 142 57 142 57 164 57 c 0,4,5
 199 57 199 57 255 94 c 1,6,7
 214 48 214 48 173 21 c 128,-1,8
 132 -6 132 -6 100 -6 c 0,9,10
 79 -6 79 -6 66 6 c 128,-1,11
 53 18 53 18 53 39 c 0,12,13
 53 48 53 48 56 58 c 2,14,-1
 120 316 l 1,15,-1
 11 280 l 1,16,-1
 23 330 l 1,17,-1
 133 366 l 1,18,-1
 208 666 l 2,19,20
 210 672 210 672 210 677 c 0,21,22
 210 693 210 693 188 693 c 0,23,24
 153 693 153 693 97 656 c 1,25,26
 138 702 138 702 179 729 c 128,-1,27
 220 756 220 756 252 756 c 0,28,29
 273 756 273 756 286 744 c 128,-1,30
 299 732 299 732 299 711 c 0,31,32
 299 703 299 703 296 692 c 2,33,-1
 222 395 l 1,34,-1
 330 430 l 1,35,-1
 318 380 l 1,36,-1
 209 345 l 1,37,-1
 144 84 l 2,0,1
EndSplineSet
EndChar

StartChar: m
Encoding: 109 109 311
Width: 802
VWidth: 1000
GlyphClass: 2
Flags: W
AnchorPoint: "Anchor-6" 0 0 basechar 0
AnchorPoint: "Anchor-5" 460 470 basechar 0
AnchorPoint: "Anchor-4" 0 0 basechar 0
AnchorPoint: "Anchor-3" 362 0 basechar 0
LayerCount: 2
Fore
SplineSet
50 19 m 0,1,2
 50 22 50 22 52 32 c 2,3,-1
 141 386 l 2,4,5
 142 389 142 389 142 394 c 0,6,7
 142 403 142 403 136.5 408 c 128,-1,8
 131 413 131 413 122 413 c 0,9,10
 87 413 87 413 31 376 c 1,11,12
 72 422 72 422 113 449 c 128,-1,13
 154 476 154 476 186 476 c 0,14,15
 207 476 207 476 220 464 c 128,-1,16
 233 452 233 452 233 431 c 0,17,18
 233 423 233 423 230 412 c 2,19,-1
 213 344 l 1,20,21
 266 406 266 406 316 443 c 128,-1,22
 366 480 366 480 398 480 c 0,23,24
 415 480 415 480 435.5 468.5 c 128,-1,25
 456 457 456 457 470.5 438 c 128,-1,26
 485 419 485 419 485 399 c 0,27,28
 485 394 485 394 483 386 c 2,29,-1
 472 344 l 1,30,31
 525 406 525 406 575 443 c 128,-1,32
 625 480 625 480 657 480 c 0,33,34
 674 480 674 480 695 468.5 c 128,-1,35
 716 457 716 457 730 438 c 128,-1,36
 744 419 744 419 744 399 c 0,37,38
 744 394 744 394 742 386 c 2,39,-1
 666 84 l 2,40,41
 664 80 664 80 664 74 c 0,42,43
 664 57 664 57 686 57 c 0,44,45
 721 57 721 57 777 94 c 1,46,47
 736 48 736 48 695 21 c 128,-1,48
 654 -6 654 -6 622 -6 c 0,49,50
 601 -6 601 -6 588 6 c 128,-1,51
 575 18 575 18 575 39 c 0,52,53
 575 48 575 48 578 58 c 2,54,-1
 662 394 l 1,55,56
 611 387 611 387 553 348 c 128,-1,57
 495 309 495 309 448 248 c 1,58,-1
 407 84 l 2,59,60
 405 78 405 78 405 73 c 0,61,62
 405 57 405 57 427 57 c 0,63,64
 462 57 462 57 518 94 c 1,65,66
 477 48 477 48 436 21 c 128,-1,67
 395 -6 395 -6 363 -6 c 0,68,69
 342 -6 342 -6 329 6 c 128,-1,70
 316 18 316 18 316 39 c 0,71,72
 316 48 316 48 319 58 c 2,73,-1
 403 394 l 1,74,75
 352 387 352 387 294 348 c 128,-1,76
 236 309 236 309 189 248 c 1,77,-1
 135 32 l 2,78,79
 126 -6 126 -6 84 -6 c 0,80,0
 50 -6 50 -6 50 19 c 0,1,2
EndSplineSet
EndChar

StartChar: n
Encoding: 110 110 313
Width: 553
VWidth: 1000
GlyphClass: 2
Flags: W
AnchorPoint: "Anchor-6" 0 0 basechar 0
AnchorPoint: "Anchor-5" 306 470 basechar 0
AnchorPoint: "Anchor-4" 0 0 basechar 0
AnchorPoint: "Anchor-3" 218 0 basechar 0
LayerCount: 2
Fore
SplineSet
50 19 m 0,1,2
 50 22 50 22 52 32 c 2,3,-1
 141 386 l 2,4,5
 142 389 142 389 142 394 c 0,6,7
 142 403 142 403 136.5 408 c 128,-1,8
 131 413 131 413 122 413 c 0,9,10
 87 413 87 413 31 376 c 1,11,12
 72 422 72 422 113 449 c 128,-1,13
 154 476 154 476 186 476 c 0,14,15
 207 476 207 476 220 464 c 128,-1,16
 233 452 233 452 233 431 c 0,17,18
 233 423 233 423 230 412 c 2,19,-1
 213 344 l 1,20,21
 273 407 273 407 325.5 443.5 c 128,-1,22
 378 480 378 480 408 480 c 0,23,24
 425 480 425 480 446 468.5 c 128,-1,25
 467 457 467 457 481 438 c 128,-1,26
 495 419 495 419 495 399 c 0,27,28
 495 394 495 394 493 386 c 2,29,-1
 417 84 l 2,30,31
 415 80 415 80 415 74 c 0,32,33
 415 57 415 57 437 57 c 0,34,35
 472 57 472 57 528 94 c 1,36,37
 487 48 487 48 446 21 c 128,-1,38
 405 -6 405 -6 373 -6 c 0,39,40
 352 -6 352 -6 339 6 c 128,-1,41
 326 18 326 18 326 39 c 0,42,43
 326 48 326 48 329 58 c 2,44,-1
 413 394 l 1,45,46
 366 388 366 388 305 348.5 c 128,-1,47
 244 309 244 309 189 248 c 1,48,-1
 135 32 l 2,49,50
 126 -6 126 -6 84 -6 c 0,51,0
 50 -6 50 -6 50 19 c 0,1,2
EndSplineSet
EndChar

StartChar: eng
Encoding: 331 331 320
Width: 554
VWidth: 1000
GlyphClass: 2
Flags: W
AnchorPoint: "Anchor-6" 0 0 basechar 0
AnchorPoint: "Anchor-5" 300 470 basechar 0
AnchorPoint: "Anchor-4" 0 0 basechar 0
AnchorPoint: "Anchor-3" 123 -357 basechar 0
LayerCount: 2
Fore
SplineSet
372 -102 m 1,0,-1
 368 -118 l 1,1,2
 430 -144 430 -144 488 -192 c 1,3,4
 471 -182 471 -182 435.5 -172 c 128,-1,5
 400 -162 400 -162 356 -155 c 1,6,7
 322 -255 322 -255 263.5 -306 c 128,-1,8
 205 -357 205 -357 123 -357 c 0,9,10
 22 -357 22 -357 -30 -281 c 1,11,12
 -41 -254 -41 -254 -41 -226 c 0,13,14
 -41 -184 -41 -184 -9.5 -151 c 128,-1,15
 22 -118 22 -118 75 -99 c 128,-1,16
 128 -80 128 -80 192 -80 c 0,17,18
 243 -80 243 -80 292 -92 c 1,19,-1
 413 394 l 1,20,21
 366 388 366 388 305 348.5 c 128,-1,22
 244 309 244 309 189 248 c 1,23,-1
 135 32 l 2,24,25
 126 -6 126 -6 84 -6 c 0,26,27
 50 -6 50 -6 50 19 c 0,28,29
 50 22 50 22 52 32 c 2,30,-1
 141 386 l 2,31,32
 142 389 142 389 142 394 c 0,33,34
 142 403 142 403 136.5 408 c 128,-1,35
 131 413 131 413 122 413 c 0,36,37
 87 413 87 413 31 376 c 1,38,39
 72 422 72 422 113 449 c 128,-1,40
 154 476 154 476 186 476 c 0,41,42
 207 476 207 476 220 464 c 128,-1,43
 233 452 233 452 233 431 c 0,44,45
 233 423 233 423 230 412 c 2,46,-1
 213 344 l 1,47,48
 273 407 273 407 325.5 443.5 c 128,-1,49
 378 480 378 480 408 480 c 0,50,51
 425 480 425 480 446 468.5 c 128,-1,52
 467 457 467 457 481 438 c 128,-1,53
 495 419 495 419 495 399 c 0,54,55
 495 394 495 394 493 386 c 2,56,-1
 372 -102 l 1,0,-1
210 -255 m 128,-1,58
 252 -219 252 -219 277 -147 c 1,59,60
 264 -146 264 -146 238 -146 c 0,61,62
 142 -146 142 -146 91.5 -172 c 128,-1,63
 41 -198 41 -198 41 -241 c 0,64,65
 41 -250 41 -250 42.5 -258 c 128,-1,66
 44 -266 44 -266 46 -270 c 0,67,68
 65 -291 65 -291 111 -291 c 0,69,57
 168 -291 168 -291 210 -255 c 128,-1,58
EndSplineSet
EndChar

StartChar: o
Encoding: 111 111 323
Width: 548
VWidth: 1000
GlyphClass: 2
Flags: W
AnchorPoint: "Anchor-6" 480 224 basechar 0
AnchorPoint: "Anchor-5" 333 470 basechar 0
AnchorPoint: "Anchor-4" 256 10 basechar 0
AnchorPoint: "Anchor-3" 215 0 basechar 0
LayerCount: 2
Fore
SplineSet
112 22 m 128,-1,1
 65 54 65 54 43 107 c 0,2,3
 33 141 33 141 33 177 c 0,4,5
 33 264 33 264 88 339.5 c 128,-1,6
 143 415 143 415 236 459 c 1,7,8
 180 408 180 408 148.5 333.5 c 128,-1,9
 117 259 117 259 117 170 c 0,10,11
 117 136 117 136 122 99 c 1,12,13
 156 56 156 56 224 56 c 0,14,15
 289 56 289 56 336.5 95.5 c 128,-1,16
 384 135 384 135 408 207.5 c 128,-1,17
 432 280 432 280 430 378 c 1,18,19
 406 414 406 414 366 414 c 0,20,21
 334 414 334 414 314 390 c 128,-1,22
 294 366 294 366 294 327 c 0,23,24
 294 294 294 294 309 266.5 c 128,-1,25
 324 239 324 239 352 219 c 1,26,27
 289 227 289 227 251.5 261 c 128,-1,28
 214 295 214 295 214 346 c 0,29,30
 214 384 214 384 234 414.5 c 128,-1,31
 254 445 254 445 287.5 461.5 c 128,-1,32
 321 478 321 478 359 478 c 0,33,34
 409 478 409 478 448 449 c 128,-1,35
 487 420 487 420 508 367 c 1,36,37
 513 337 513 337 513 304 c 0,38,39
 513 211 513 211 475 139.5 c 128,-1,40
 437 68 437 68 372 29 c 128,-1,41
 307 -10 307 -10 229 -10 c 0,42,0
 159 -10 159 -10 112 22 c 128,-1,1
EndSplineSet
Substitution2: "Single Substitution lookup 19 subtable" ordmasculine
Substitution2: "'aalt' Access All Alternates lookup 0 subtable" ordmasculine
EndChar

StartChar: ohorn
Encoding: 417 417 337
Width: 548
VWidth: 1000
GlyphClass: 2
Flags: W
AnchorPoint: "Anchor-6" 480 224 basechar 0
AnchorPoint: "Anchor-5" 333 470 basechar 0
AnchorPoint: "Anchor-4" 256 10 basechar 0
AnchorPoint: "Anchor-3" 215 0 basechar 0
LayerCount: 2
Fore
SplineSet
655.5 336.5 m 128,-1,1
 636 302 636 302 598 274 c 128,-1,2
 560 246 560 246 506 232 c 1,3,4
 492 159 492 159 452 104 c 128,-1,5
 412 49 412 49 354 19.5 c 128,-1,6
 296 -10 296 -10 229 -10 c 0,7,8
 159 -10 159 -10 112 22 c 128,-1,9
 65 54 65 54 43 107 c 0,10,11
 33 141 33 141 33 177 c 0,12,13
 33 264 33 264 88 339.5 c 128,-1,14
 143 415 143 415 236 459 c 1,15,16
 180 408 180 408 148.5 333.5 c 128,-1,17
 117 259 117 259 117 170 c 0,18,19
 117 136 117 136 122 99 c 1,20,21
 156 56 156 56 224 56 c 0,22,23
 289 56 289 56 336.5 95.5 c 128,-1,24
 384 135 384 135 408 207.5 c 128,-1,25
 432 280 432 280 430 378 c 1,26,27
 406 414 406 414 366 414 c 0,28,29
 334 414 334 414 314 390 c 128,-1,30
 294 366 294 366 294 327 c 0,31,32
 294 294 294 294 309 266.5 c 128,-1,33
 324 239 324 239 352 219 c 1,34,35
 289 227 289 227 251.5 261 c 128,-1,36
 214 295 214 295 214 346 c 0,37,38
 214 384 214 384 234 414.5 c 128,-1,39
 254 445 254 445 287.5 461.5 c 128,-1,40
 321 478 321 478 359 478 c 0,41,42
 409 478 409 478 448 449 c 128,-1,43
 487 420 487 420 508 367 c 1,44,45
 513 337 513 337 513 304 c 0,46,47
 513 288 513 288 511 260 c 1,48,49
 556 279 556 279 584.5 307 c 128,-1,50
 613 335 613 335 613 364 c 1,51,52
 588 364 588 364 571.5 380.5 c 128,-1,53
 555 397 555 397 555 421 c 256,54,55
 555 445 555 445 571.5 461.5 c 128,-1,56
 588 478 588 478 613 478 c 0,57,58
 640 478 640 478 657.5 460.5 c 128,-1,59
 675 443 675 443 675 404 c 0,60,0
 675 371 675 371 655.5 336.5 c 128,-1,1
EndSplineSet
EndChar

StartChar: oslash
Encoding: 248 248 345
Width: 548
VWidth: 1000
GlyphClass: 2
Flags: W
AnchorPoint: "Anchor-6" 480 224 basechar 0
AnchorPoint: "Anchor-5" 333 470 basechar 0
AnchorPoint: "Anchor-4" 256 10 basechar 0
AnchorPoint: "Anchor-3" 215 0 basechar 0
LayerCount: 2
Fore
SplineSet
508 367 m 1,1,2
 513 337 513 337 513 304 c 0,3,4
 513 211 513 211 475 139.5 c 128,-1,5
 437 68 437 68 372 29 c 128,-1,6
 307 -10 307 -10 229 -10 c 0,7,8
 187 -10 187 -10 152 2 c 1,9,-1
 114 -56 l 2,10,11
 88 -95 88 -95 37 -100 c 1,12,-1
 116 20 l 1,13,14
 67 50 67 50 43 107 c 0,15,16
 33 141 33 141 33 177 c 0,17,18
 33 264 33 264 88 339.5 c 128,-1,19
 143 415 143 415 236 459 c 1,20,21
 180 408 180 408 148.5 333.5 c 128,-1,22
 117 259 117 259 117 170 c 0,23,24
 117 136 117 136 122 99 c 1,25,26
 135 83 135 83 151 74 c 1,27,-1
 266 249 l 1,28,29
 241 266 241 266 227.5 291 c 128,-1,30
 214 316 214 316 214 346 c 0,31,32
 214 384 214 384 234 414.5 c 128,-1,33
 254 445 254 445 287.5 461.5 c 128,-1,34
 321 478 321 478 359 478 c 0,35,36
 387 478 387 478 411 469 c 1,37,-1
 449 526 l 2,38,39
 465 551 465 551 487.5 564.5 c 128,-1,40
 510 578 510 578 534 580 c 1,41,-1
 448 449 l 1,42,0
 487 419 487 419 508 367 c 1,1,2
298 296 m 1,44,-1
 375 413 l 2,45,46
 372 414 372 414 366 414 c 0,47,48
 334 414 334 414 314 390 c 128,-1,49
 294 366 294 366 294 327 c 0,50,43
 294 309 294 309 298 296 c 1,44,-1
336.5 95.5 m 128,-1,52
 384 135 384 135 408 207.5 c 128,-1,53
 432 280 432 280 430 378 c 1,54,55
 421 390 421 390 413 397 c 1,56,-1
 318 253 l 1,57,58
 331 234 331 234 352 219 c 1,59,60
 328 222 328 222 303 230 c 1,61,-1
 190 59 l 1,62,63
 207 56 207 56 224 56 c 0,64,51
 289 56 289 56 336.5 95.5 c 128,-1,52
EndSplineSet
EndChar

StartChar: oe
Encoding: 339 339 348
Width: 901
VWidth: 1000
GlyphClass: 2
Flags: W
AnchorPoint: "Anchor-6" 480 224 basechar 0
AnchorPoint: "Anchor-5" 698 470 basechar 0
AnchorPoint: "Anchor-4" 713 41 basechar 0
AnchorPoint: "Anchor-3" 580 0 basechar 0
LayerCount: 2
Fore
SplineSet
766 247.5 m 128,-1,1
 794 274 794 274 794 318 c 0,2,3
 794 349 794 349 786 378 c 1,4,5
 770 394 770 394 747.5 404 c 128,-1,6
 725 414 725 414 702 414 c 0,7,8
 609 414 609 414 554.5 345 c 128,-1,9
 500 276 500 276 500 158 c 0,10,11
 500 125 500 125 505 93 c 1,12,13
 548 56 548 56 623 56 c 0,14,15
 684 56 684 56 740.5 79 c 128,-1,16
 797 102 797 102 832 141 c 1,17,18
 789 72 789 72 727.5 31 c 128,-1,19
 666 -10 666 -10 605 -10 c 0,20,21
 552 -10 552 -10 507 16.5 c 128,-1,22
 462 43 462 43 437 85 c 1,23,24
 398 39 398 39 344 14.5 c 128,-1,25
 290 -10 290 -10 229 -10 c 0,26,27
 159 -10 159 -10 112 22 c 128,-1,28
 65 54 65 54 43 107 c 0,29,30
 33 141 33 141 33 177 c 0,31,32
 33 264 33 264 88 339.5 c 128,-1,33
 143 415 143 415 236 459 c 1,34,35
 180 408 180 408 148.5 333.5 c 128,-1,36
 117 259 117 259 117 170 c 0,37,38
 117 136 117 136 122 99 c 1,39,40
 156 56 156 56 224 56 c 0,41,42
 289 56 289 56 336.5 95.5 c 128,-1,43
 384 135 384 135 408 207.5 c 128,-1,44
 432 280 432 280 430 378 c 1,45,46
 406 414 406 414 366 414 c 0,47,48
 334 414 334 414 314 390 c 128,-1,49
 294 366 294 366 294 327 c 0,50,51
 294 294 294 294 309 266.5 c 128,-1,52
 324 239 324 239 352 219 c 1,53,54
 289 227 289 227 251.5 261 c 128,-1,55
 214 295 214 295 214 346 c 0,56,57
 214 384 214 384 234 414.5 c 128,-1,58
 254 445 254 445 287.5 461.5 c 128,-1,59
 321 478 321 478 359 478 c 0,60,61
 401 478 401 478 435.5 457.5 c 128,-1,62
 470 437 470 437 493 398 c 1,63,64
 530 438 530 438 583 459 c 128,-1,65
 636 480 636 480 701 480 c 0,66,67
 753 480 753 480 796.5 458.5 c 128,-1,68
 840 437 840 437 862 400 c 1,69,70
 874 362 874 362 874 310 c 0,71,72
 874 241 874 241 830 200 c 128,-1,73
 786 159 786 159 711 159 c 0,74,75
 649 159 649 159 604.5 184.5 c 128,-1,76
 560 210 560 210 546 253 c 1,77,78
 567 238 567 238 606 229.5 c 128,-1,79
 645 221 645 221 691 221 c 0,80,0
 738 221 738 221 766 247.5 c 128,-1,1
EndSplineSet
EndChar

StartChar: p
Encoding: 112 112 349
Width: 559
VWidth: 1000
GlyphClass: 2
Flags: W
AnchorPoint: "Anchor-6" 0 0 basechar 0
AnchorPoint: "Anchor-5" 339 470 basechar 0
AnchorPoint: "Anchor-4" 0 0 basechar 0
AnchorPoint: "Anchor-3" 221 0 basechar 0
LayerCount: 2
Fore
SplineSet
525 309 m 0,1,2
 525 212 525 212 486 140 c 128,-1,3
 447 68 447 68 375 29 c 128,-1,4
 303 -10 303 -10 206 -10 c 0,5,6
 166 -10 166 -10 128 -2 c 1,7,-1
 50 -316 l 2,8,9
 41 -354 41 -354 -1 -354 c 0,10,11
 -34 -354 -34 -354 -34 -329 c 0,12,13
 -34 -326 -34 -326 -32 -316 c 2,14,-1
 55 33 l 1,15,16
 20 62 20 62 1 111 c 1,17,18
 32 92 32 92 66 79 c 1,19,-1
 143 386 l 2,20,21
 145 392 145 392 145 396 c 0,22,23
 145 413 145 413 123 413 c 0,24,25
 89 413 89 413 33 376 c 1,26,27
 74 422 74 422 115 449 c 128,-1,28
 156 476 156 476 188 476 c 0,29,30
 209 476 209 476 221 463.5 c 128,-1,31
 233 451 233 451 233 431 c 0,32,33
 233 419 233 419 231 412 c 2,34,-1
 221 370 l 1,35,36
 291 480 291 480 380 480 c 0,37,38
 426 480 426 480 462.5 451 c 128,-1,39
 499 422 499 422 520 369 c 1,40,0
 525 342 525 342 525 309 c 0,1,2
375.5 128.5 m 128,-1,42
 441 202 441 202 441 328 c 0,43,44
 441 357 441 357 437 382 c 1,45,46
 412 414 412 414 373 414 c 0,47,48
 324 414 324 414 275 365.5 c 128,-1,49
 226 317 226 317 186 231 c 1,50,-1
 143 59 l 1,51,52
 166 55 166 55 195 55 c 0,53,41
 310 55 310 55 375.5 128.5 c 128,-1,42
EndSplineSet
EndChar

StartChar: thorn
Encoding: 254 254 350
Width: 559
VWidth: 1000
GlyphClass: 2
Flags: W
AnchorPoint: "Anchor-6" 0 0 basechar 0
AnchorPoint: "Anchor-5" 380 700 basechar 0
AnchorPoint: "Anchor-4" 0 0 basechar 0
AnchorPoint: "Anchor-3" 115 -356 basechar 0
LayerCount: 2
Fore
SplineSet
525 309 m 0,1,2
 525 212 525 212 486 140 c 128,-1,3
 447 68 447 68 375 29 c 128,-1,4
 303 -10 303 -10 206 -10 c 0,5,6
 166 -10 166 -10 128 -2 c 1,7,-1
 50 -316 l 2,8,9
 41 -354 41 -354 -1 -354 c 0,10,11
 -34 -354 -34 -354 -34 -329 c 0,12,13
 -34 -326 -34 -326 -32 -316 c 2,14,-1
 55 33 l 1,15,16
 20 62 20 62 1 111 c 1,17,18
 33 92 33 92 67 79 c 1,19,-1
 201 616 l 2,20,21
 202 619 202 619 202 626 c 0,22,23
 202 643 202 643 181 643 c 0,24,25
 147 643 147 643 91 606 c 1,26,27
 132 652 132 652 173 679 c 128,-1,28
 214 706 214 706 246 706 c 0,29,30
 267 706 267 706 279 693.5 c 128,-1,31
 291 681 291 681 291 661 c 0,32,33
 291 649 291 649 289 642 c 2,34,-1
 221 371 l 1,35,36
 293 480 293 480 380 480 c 0,37,38
 426 480 426 480 462.5 451 c 128,-1,39
 499 422 499 422 520 369 c 1,40,0
 525 342 525 342 525 309 c 0,1,2
375.5 128.5 m 128,-1,42
 441 202 441 202 441 328 c 0,43,44
 441 357 441 357 437 382 c 1,45,46
 412 414 412 414 373 414 c 0,47,48
 324 414 324 414 275 365.5 c 128,-1,49
 226 317 226 317 186 231 c 1,50,-1
 143 59 l 1,51,52
 166 55 166 55 195 55 c 0,53,41
 310 55 310 55 375.5 128.5 c 128,-1,42
EndSplineSet
EndChar

StartChar: q
Encoding: 113 113 351
Width: 531
VWidth: 1000
GlyphClass: 2
Flags: W
AnchorPoint: "Anchor-6" 0 0 basechar 0
AnchorPoint: "Anchor-5" 325 470 basechar 0
AnchorPoint: "Anchor-4" 0 0 basechar 0
AnchorPoint: "Anchor-3" 207 0 basechar 0
LayerCount: 2
Fore
SplineSet
406 16 m 1,0,1
 457 62 457 62 526 87 c 1,2,3
 496 66 496 66 458 21.5 c 128,-1,4
 420 -23 420 -23 381 -83 c 1,5,-1
 323 -316 l 2,6,7
 314 -354 314 -354 272 -354 c 0,8,9
 239 -354 239 -354 239 -329 c 0,10,11
 239 -326 239 -326 241 -316 c 2,12,-1
 343 97 l 1,13,14
 273 -10 273 -10 187 -10 c 0,15,16
 145 -10 145 -10 112 16.5 c 128,-1,17
 79 43 79 43 50 93 c 1,18,19
 40 143 40 143 40 184 c 0,20,21
 40 273 40 273 74 340 c 128,-1,22
 108 407 108 407 170 443.5 c 128,-1,23
 232 480 232 480 314 480 c 0,24,25
 388 480 388 480 445 450.5 c 128,-1,26
 502 421 502 421 532 370 c 1,27,28
 492 391 492 391 446.5 402.5 c 128,-1,29
 401 414 401 414 355 414 c 0,30,31
 246 414 246 414 185 347 c 128,-1,32
 124 280 124 280 124 163 c 0,33,34
 124 126 124 126 130 85 c 1,35,36
 146 70 146 70 159 63 c 128,-1,37
 172 56 172 56 191 56 c 0,38,39
 242 56 242 56 290 104 c 128,-1,40
 338 152 338 152 379 239 c 1,41,-1
 398 314 l 2,42,43
 407 353 407 353 448 353 c 0,44,45
 482 353 482 353 482 327 c 0,46,47
 482 324 482 324 480 314 c 2,48,-1
 406 16 l 1,0,1
EndSplineSet
EndChar

StartChar: r
Encoding: 114 114 352
Width: 423
VWidth: 1000
GlyphClass: 2
Flags: W
AnchorPoint: "Anchor-6" 0 0 basechar 0
AnchorPoint: "Anchor-5" 271 470 basechar 0
AnchorPoint: "Anchor-4" 0 0 basechar 0
AnchorPoint: "Anchor-3" 84 0 basechar 0
LayerCount: 2
Fore
SplineSet
50 19 m 0,1,2
 50 22 50 22 52 32 c 2,3,-1
 141 386 l 2,4,5
 142 389 142 389 142 394 c 0,6,7
 142 403 142 403 136.5 408 c 128,-1,8
 131 413 131 413 122 413 c 0,9,10
 87 413 87 413 31 376 c 1,11,12
 72 422 72 422 113 449 c 128,-1,13
 154 476 154 476 186 476 c 0,14,15
 207 476 207 476 220 464 c 128,-1,16
 233 452 233 452 233 431 c 0,17,18
 233 423 233 423 230 412 c 2,19,-1
 215 354 l 1,20,21
 243 412 243 412 286 446 c 128,-1,22
 329 480 329 480 374 480 c 0,23,24
 410 480 410 480 435.5 458 c 128,-1,25
 461 436 461 436 461 399 c 256,26,27
 461 362 461 362 437 337 c 128,-1,28
 413 312 413 312 380 312 c 0,29,30
 357 312 357 312 338 324.5 c 128,-1,31
 319 337 319 337 309 358 c 1,32,33
 321 355 321 355 331 355 c 0,34,35
 348 355 348 355 357.5 363 c 128,-1,36
 367 371 367 371 367 386 c 0,37,38
 367 398 367 398 360.5 405 c 128,-1,39
 354 412 354 412 343 412 c 0,40,41
 313 412 313 412 271.5 361 c 128,-1,42
 230 310 230 310 182 218 c 1,43,-1
 135 32 l 2,44,45
 126 -6 126 -6 84 -6 c 0,46,0
 50 -6 50 -6 50 19 c 0,1,2
EndSplineSet
EndChar

StartChar: s
Encoding: 115 115 359
Width: 467
VWidth: 1000
GlyphClass: 2
Flags: W
AnchorPoint: "Anchor-6" 0 0 basechar 0
AnchorPoint: "Anchor-5" 293 470 basechar 0
AnchorPoint: "Anchor-4" 0 0 basechar 0
AnchorPoint: "Anchor-3" 175 0 basechar 0
LayerCount: 2
Fore
SplineSet
114.5 225.5 m 128,-1,1
 79 261 79 261 79 319 c 0,2,3
 79 367 79 367 102.5 403.5 c 128,-1,4
 126 440 126 440 166.5 460 c 128,-1,5
 207 480 207 480 256 480 c 0,6,7
 317 480 317 480 360.5 449.5 c 128,-1,8
 404 419 404 419 422 368 c 1,9,10
 360 416 360 416 284 416 c 0,11,12
 226 416 226 416 193.5 391 c 128,-1,13
 161 366 161 366 161 323 c 0,14,15
 161 278 161 278 195.5 250 c 128,-1,16
 230 222 230 222 289 218 c 1,17,18
 256 190 256 190 208 190 c 0,19,0
 150 190 150 190 114.5 225.5 c 128,-1,1
48 17 m 128,-1,21
 4 44 4 44 4 93 c 0,22,23
 4 132 4 132 30 155 c 128,-1,24
 56 178 56 178 102 178 c 0,25,26
 144 178 144 178 169 157 c 128,-1,27
 194 136 194 136 194 101 c 0,28,29
 194 92 194 92 193 88 c 1,30,31
 179 102 179 102 160.5 110 c 128,-1,32
 142 118 142 118 123 118 c 0,33,34
 105 118 105 118 94.5 110.5 c 128,-1,35
 84 103 84 103 84 90 c 0,36,37
 84 71 84 71 106 61.5 c 128,-1,38
 128 52 128 52 168 52 c 0,39,40
 242 52 242 52 285.5 84 c 128,-1,41
 329 116 329 116 329 171 c 0,42,43
 329 269 329 269 202 273 c 1,44,45
 236 302 236 302 286 302 c 0,46,47
 342 302 342 302 376.5 266.5 c 128,-1,48
 411 231 411 231 411 170 c 0,49,50
 411 87 411 87 346.5 38.5 c 128,-1,51
 282 -10 282 -10 172 -10 c 0,52,20
 92 -10 92 -10 48 17 c 128,-1,21
EndSplineSet
EndChar

StartChar: scedilla
Encoding: 351 351 362
Width: 467
VWidth: 1000
GlyphClass: 2
Flags: W
AnchorPoint: "Anchor-6" 0 0 basechar 0
AnchorPoint: "Anchor-5" 0 0 basechar 0
AnchorPoint: "Anchor-4" 0 0 basechar 0
AnchorPoint: "Anchor-3" 103 -195 basechar 0
LayerCount: 2
Fore
SplineSet
114.5 225.5 m 128,-1,1
 79 261 79 261 79 319 c 0,2,3
 79 367 79 367 102.5 403.5 c 128,-1,4
 126 440 126 440 166.5 460 c 128,-1,5
 207 480 207 480 256 480 c 0,6,7
 317 480 317 480 360.5 449.5 c 128,-1,8
 404 419 404 419 422 368 c 1,9,10
 360 416 360 416 284 416 c 0,11,12
 226 416 226 416 193.5 391 c 128,-1,13
 161 366 161 366 161 323 c 0,14,15
 161 278 161 278 195.5 250 c 128,-1,16
 230 222 230 222 289 218 c 1,17,18
 256 190 256 190 208 190 c 0,19,0
 150 190 150 190 114.5 225.5 c 128,-1,1
376.5 266.5 m 128,-1,21
 411 231 411 231 411 170 c 0,22,23
 411 90 411 90 351 42 c 128,-1,24
 291 -6 291 -6 189 -10 c 1,25,-1
 145 -51 l 1,26,27
 183 -51 183 -51 204 -65.5 c 128,-1,28
 225 -80 225 -80 225 -105 c 0,29,30
 225 -146 225 -146 197 -170.5 c 128,-1,31
 169 -195 169 -195 132 -195 c 0,32,33
 96 -195 96 -195 71 -180.5 c 128,-1,34
 46 -166 46 -166 35 -138 c 1,35,36
 61 -151 61 -151 103 -151 c 0,37,38
 157 -151 157 -151 157 -111 c 0,39,40
 157 -100 157 -100 147 -93 c 128,-1,41
 137 -86 137 -86 121 -86 c 0,42,43
 107 -86 107 -86 85 -91 c 1,44,-1
 75 -74 l 1,45,-1
 143 -9 l 1,46,47
 76 -4 76 -4 40 22 c 128,-1,48
 4 48 4 48 4 93 c 0,49,50
 4 132 4 132 30 155 c 128,-1,51
 56 178 56 178 102 178 c 0,52,53
 144 178 144 178 169 157 c 128,-1,54
 194 136 194 136 194 101 c 0,55,56
 194 92 194 92 193 88 c 1,57,58
 179 102 179 102 160.5 110 c 128,-1,59
 142 118 142 118 123 118 c 0,60,61
 105 118 105 118 94.5 110.5 c 128,-1,62
 84 103 84 103 84 90 c 0,63,64
 84 71 84 71 106 61.5 c 128,-1,65
 128 52 128 52 168 52 c 0,66,67
 242 52 242 52 285.5 84 c 128,-1,68
 329 116 329 116 329 171 c 0,69,70
 329 269 329 269 202 273 c 1,71,72
 236 302 236 302 286 302 c 0,73,20
 342 302 342 302 376.5 266.5 c 128,-1,21
EndSplineSet
Substitution2: "'locl' Localized Forms in Latin lookup 7 subtable" uni0219
Substitution2: "'locl' Localized Forms in Latin lookup 6 subtable" uni0219
Substitution2: "'aalt' Access All Alternates lookup 0 subtable" uni0219
EndChar

StartChar: germandbls
Encoding: 223 223 367
Width: 576
VWidth: 1000
GlyphClass: 2
Flags: W
AnchorPoint: "Anchor-6" 0 0 basechar 0
AnchorPoint: "Anchor-5" 409 750 basechar 0
AnchorPoint: "Anchor-4" 0 0 basechar 0
AnchorPoint: "Anchor-3" 229 0 basechar 0
LayerCount: 2
Fore
SplineSet
143 534 m 2,0,1
 170 643 170 643 234 701.5 c 128,-1,2
 298 760 298 760 389 760 c 0,3,4
 450 760 450 760 495.5 729 c 128,-1,5
 541 698 541 698 578 657 c 1,6,7
 590 636 590 636 590 611 c 0,8,9
 590 573 590 573 571.5 545.5 c 128,-1,10
 553 518 553 518 528 502 c 128,-1,11
 503 486 503 486 463 466 c 0,12,13
 427 448 427 448 409.5 434.5 c 128,-1,14
 392 421 392 421 392 404 c 0,15,16
 392 390 392 390 402 377 c 128,-1,17
 412 364 412 364 436 340 c 0,18,19
 475 301 475 301 497 266.5 c 128,-1,20
 519 232 519 232 519 182 c 0,21,22
 519 129 519 129 490.5 85 c 128,-1,23
 462 41 462 41 414.5 15.5 c 128,-1,24
 367 -10 367 -10 313 -10 c 0,25,26
 204 -10 204 -10 138 92 c 1,27,28
 181 74 181 74 213 65 c 128,-1,29
 245 56 245 56 281 56 c 0,30,31
 350 56 350 56 392.5 91.5 c 128,-1,32
 435 127 435 127 435 181 c 0,33,34
 435 218 435 218 417 244 c 128,-1,35
 399 270 399 270 365 301 c 0,36,37
 337 327 337 327 323 346.5 c 128,-1,38
 309 366 309 366 309 390 c 0,39,40
 309 410 309 410 319.5 424 c 128,-1,41
 330 438 330 438 344.5 446.5 c 128,-1,42
 359 455 359 455 389 469 c 0,43,44
 428 486 428 486 451.5 501.5 c 128,-1,45
 475 517 475 517 492 545 c 128,-1,46
 509 573 509 573 509 617 c 0,47,48
 509 641 509 641 502 660 c 1,49,50
 466 694 466 694 412 694 c 0,51,52
 341 694 341 694 293 652.5 c 128,-1,53
 245 611 245 611 225 534 c 2,54,-1
 63 -112 l 2,55,56
 50 -167 50 -167 18 -206.5 c 128,-1,57
 -14 -246 -14 -246 -54 -258 c 1,58,-1
 143 534 l 2,0,1
EndSplineSet
EndChar

StartChar: t
Encoding: 116 116 368
Width: 294
VWidth: 1000
GlyphClass: 2
Flags: W
AnchorPoint: "Anchor-6" 333 470 basechar 0
AnchorPoint: "Anchor-5" 223 580 basechar 0
AnchorPoint: "Anchor-4" 0 0 basechar 0
AnchorPoint: "Anchor-3" 88 0 basechar 0
LayerCount: 2
Fore
SplineSet
140 84 m 2,0,1
 138 78 138 78 138 73 c 0,2,3
 138 57 138 57 160 57 c 0,4,5
 195 57 195 57 251 94 c 1,6,7
 210 48 210 48 169 21 c 128,-1,8
 128 -6 128 -6 96 -6 c 0,9,10
 75 -6 75 -6 62 6 c 128,-1,11
 49 18 49 18 49 39 c 0,12,13
 49 48 49 48 52 58 c 2,14,-1
 138 406 l 1,15,-1
 55 406 l 1,16,-1
 71 470 l 1,17,-1
 154 470 l 1,18,-1
 172 541 l 2,19,20
 177 560 177 560 190 570 c 128,-1,21
 203 580 203 580 223 580 c 0,22,23
 256 580 256 580 256 554 c 0,24,25
 256 551 256 551 254 541 c 2,26,-1
 236 470 l 1,27,-1
 330 470 l 1,28,-1
 314 406 l 1,29,-1
 220 406 l 1,30,-1
 140 84 l 2,0,1
EndSplineSet
EndChar

StartChar: tbar
Encoding: 359 359 369
Width: 294
VWidth: 1000
GlyphClass: 2
Flags: W
AnchorPoint: "Anchor-6" 333 470 basechar 0
AnchorPoint: "Anchor-5" 223 580 basechar 0
AnchorPoint: "Anchor-4" 0 0 basechar 0
AnchorPoint: "Anchor-3" 88 0 basechar 0
LayerCount: 2
Fore
SplineSet
220 406 m 1,0,-1
 194 300 l 1,1,-1
 288 300 l 1,2,-1
 276 250 l 1,3,-1
 181 250 l 1,4,-1
 140 84 l 2,5,6
 138 78 138 78 138 73 c 0,7,8
 138 57 138 57 160 57 c 0,9,10
 195 57 195 57 251 94 c 1,11,12
 210 48 210 48 169 21 c 128,-1,13
 128 -6 128 -6 96 -6 c 0,14,15
 75 -6 75 -6 62 6 c 128,-1,16
 49 18 49 18 49 39 c 0,17,18
 49 48 49 48 52 58 c 2,19,-1
 100 250 l 1,20,-1
 17 250 l 1,21,-1
 29 300 l 1,22,-1
 112 300 l 1,23,-1
 138 406 l 1,24,-1
 55 406 l 1,25,-1
 71 470 l 1,26,-1
 154 470 l 1,27,-1
 172 541 l 2,28,29
 177 560 177 560 190 570 c 128,-1,30
 203 580 203 580 223 580 c 0,31,32
 256 580 256 580 256 554 c 0,33,34
 256 551 256 551 254 541 c 2,35,-1
 236 470 l 1,36,-1
 330 470 l 1,37,-1
 314 406 l 1,38,-1
 220 406 l 1,0,-1
EndSplineSet
EndChar

StartChar: uni0163
Encoding: 355 355 371
Width: 294
VWidth: 1000
GlyphClass: 2
Flags: W
AnchorPoint: "Anchor-6" 333 470 basechar 0
AnchorPoint: "Anchor-5" 0 0 basechar 0
AnchorPoint: "Anchor-4" 0 0 basechar 0
AnchorPoint: "Anchor-3" 16 -195 basechar 0
LayerCount: 2
Fore
SplineSet
140 84 m 2,0,1
 138 78 138 78 138 73 c 0,2,3
 138 57 138 57 160 57 c 0,4,5
 195 57 195 57 251 94 c 1,6,7
 213 51 213 51 175 25 c 128,-1,8
 137 -1 137 -1 106 -5 c 1,9,-1
 58 -51 l 1,10,11
 96 -51 96 -51 117 -65.5 c 128,-1,12
 138 -80 138 -80 138 -105 c 0,13,14
 138 -146 138 -146 110 -170.5 c 128,-1,15
 82 -195 82 -195 45 -195 c 0,16,17
 9 -195 9 -195 -16 -180.5 c 128,-1,18
 -41 -166 -41 -166 -52 -138 c 1,19,20
 -26 -151 -26 -151 16 -151 c 0,21,22
 70 -151 70 -151 70 -111 c 0,23,24
 70 -100 70 -100 60 -93 c 128,-1,25
 50 -86 50 -86 34 -86 c 0,26,27
 20 -86 20 -86 -2 -91 c 1,28,-1
 -12 -74 l 1,29,-1
 67 2 l 1,30,31
 49 13 49 13 49 38 c 0,32,33
 49 48 49 48 52 58 c 2,34,-1
 138 406 l 1,35,-1
 55 406 l 1,36,-1
 71 470 l 1,37,-1
 154 470 l 1,38,-1
 172 541 l 2,39,40
 177 560 177 560 190 570 c 128,-1,41
 203 580 203 580 223 580 c 0,42,43
 256 580 256 580 256 554 c 0,44,45
 256 551 256 551 254 541 c 2,46,-1
 236 470 l 1,47,-1
 330 470 l 1,48,-1
 314 406 l 1,49,-1
 220 406 l 1,50,-1
 140 84 l 2,0,1
EndSplineSet
Substitution2: "'locl' Localized Forms in Latin lookup 7 subtable" uni021B
Substitution2: "'locl' Localized Forms in Latin lookup 6 subtable" uni021B
Substitution2: "'aalt' Access All Alternates lookup 0 subtable" uni021B
EndChar

StartChar: u
Encoding: 117 117 376
Width: 549
VWidth: 1000
GlyphClass: 2
Flags: W
AnchorPoint: "Anchor-6" 449 222 basechar 0
AnchorPoint: "Anchor-5" 334 470 basechar 0
AnchorPoint: "Anchor-4" 414 21 basechar 0
AnchorPoint: "Anchor-3" 216 0 basechar 0
LayerCount: 2
Fore
SplineSet
112 1.5 m 128,-1,1
 91 13 91 13 77 32 c 128,-1,2
 63 51 63 51 63 71 c 0,3,4
 63 76 63 76 65 84 c 2,5,-1
 141 386 l 2,6,7
 142 389 142 389 142 394 c 0,8,9
 142 403 142 403 136.5 408 c 128,-1,10
 131 413 131 413 122 413 c 0,11,12
 87 413 87 413 31 376 c 1,13,14
 72 422 72 422 113 449 c 128,-1,15
 154 476 154 476 186 476 c 0,16,17
 207 476 207 476 220 464 c 128,-1,18
 233 452 233 452 233 431 c 0,19,20
 233 423 233 423 230 412 c 2,21,-1
 146 76 l 1,22,23
 194 82 194 82 253 120.5 c 128,-1,24
 312 159 312 159 364 216 c 1,25,-1
 420 438 l 2,26,27
 430 476 430 476 471 476 c 0,28,29
 504 476 504 476 504 451 c 0,30,31
 504 448 504 448 502 438 c 2,32,-1
 413 84 l 2,33,34
 411 78 411 78 411 73 c 0,35,36
 411 57 411 57 433 57 c 0,37,38
 468 57 468 57 524 94 c 1,39,40
 483 48 483 48 442 21 c 128,-1,41
 401 -6 401 -6 369 -6 c 0,42,43
 347 -6 347 -6 335 6.5 c 128,-1,44
 323 19 323 19 323 40 c 0,45,46
 323 51 323 51 325 58 c 2,47,-1
 340 120 l 1,48,49
 284 61 284 61 232 25.5 c 128,-1,50
 180 -10 180 -10 150 -10 c 0,51,0
 133 -10 133 -10 112 1.5 c 128,-1,1
EndSplineSet
EndChar

StartChar: uhorn
Encoding: 432 432 389
Width: 549
VWidth: 1000
GlyphClass: 2
Flags: W
AnchorPoint: "Anchor-6" 449 222 basechar 0
AnchorPoint: "Anchor-5" 334 470 basechar 0
AnchorPoint: "Anchor-4" 414 21 basechar 0
AnchorPoint: "Anchor-3" 216 0 basechar 0
LayerCount: 2
Fore
SplineSet
413 84 m 2,0,1
 411 78 411 78 411 73 c 0,2,3
 411 57 411 57 433 57 c 0,4,5
 468 57 468 57 524 94 c 1,6,7
 483 48 483 48 442 21 c 128,-1,8
 401 -6 401 -6 369 -6 c 0,9,10
 347 -6 347 -6 335 6.5 c 128,-1,11
 323 19 323 19 323 40 c 0,12,13
 323 51 323 51 325 58 c 2,14,-1
 340 120 l 1,15,16
 284 61 284 61 232 25.5 c 128,-1,17
 180 -10 180 -10 150 -10 c 0,18,19
 133 -10 133 -10 112 1.5 c 128,-1,20
 91 13 91 13 77 32 c 128,-1,21
 63 51 63 51 63 71 c 0,22,23
 63 76 63 76 65 84 c 2,24,-1
 141 386 l 2,25,26
 142 389 142 389 142 394 c 0,27,28
 142 403 142 403 136.5 408 c 128,-1,29
 131 413 131 413 122 413 c 0,30,31
 87 413 87 413 31 376 c 1,32,33
 72 422 72 422 113 449 c 128,-1,34
 154 476 154 476 186 476 c 0,35,36
 207 476 207 476 220 464 c 128,-1,37
 233 452 233 452 233 431 c 0,38,39
 233 423 233 423 230 412 c 2,40,-1
 146 76 l 1,41,42
 194 82 194 82 253 120.5 c 128,-1,43
 312 159 312 159 364 216 c 1,44,-1
 420 438 l 2,45,46
 430 476 430 476 471 476 c 0,47,48
 504 476 504 476 504 451 c 0,49,50
 504 448 504 448 502 438 c 2,51,-1
 454 249 l 1,52,53
 509 266 509 266 545.5 297 c 128,-1,54
 582 328 582 328 582 362 c 1,55,56
 557 362 557 362 540.5 378.5 c 128,-1,57
 524 395 524 395 524 419 c 256,58,59
 524 443 524 443 540.5 459.5 c 128,-1,60
 557 476 557 476 582 476 c 0,61,62
 609 476 609 476 626.5 458.5 c 128,-1,63
 644 441 644 441 644 402 c 0,64,65
 644 366 644 366 621.5 329.5 c 128,-1,66
 599 293 599 293 554.5 264 c 128,-1,67
 510 235 510 235 448 224 c 1,68,-1
 413 84 l 2,0,1
EndSplineSet
EndChar

StartChar: uogonek
Encoding: 371 371 397
Width: 549
VWidth: 1000
GlyphClass: 2
Flags: W
AnchorPoint: "Anchor-6" 449 222 basechar 0
AnchorPoint: "Anchor-5" 334 470 basechar 0
AnchorPoint: "Anchor-4" 414 21 basechar 0
AnchorPoint: "Anchor-3" 216 0 basechar 0
LayerCount: 2
Fore
SplineSet
376 -33.5 m 128,-1,1
 358 -56 358 -56 358 -80 c 0,2,3
 358 -95 358 -95 366.5 -103.5 c 128,-1,4
 375 -112 375 -112 391 -112 c 256,5,6
 407 -112 407 -112 425 -102 c 1,7,8
 391 -164 391 -164 338 -164 c 0,9,10
 312 -164 312 -164 296 -148.5 c 128,-1,11
 280 -133 280 -133 280 -108 c 0,12,13
 280 -52 280 -52 352 -3 c 1,14,15
 323 6 323 6 323 40 c 0,16,17
 323 44 323 44 325 58 c 2,18,-1
 340 120 l 1,19,20
 284 61 284 61 232 25.5 c 128,-1,21
 180 -10 180 -10 150 -10 c 0,22,23
 133 -10 133 -10 112 1.5 c 128,-1,24
 91 13 91 13 77 32 c 128,-1,25
 63 51 63 51 63 71 c 0,26,27
 63 76 63 76 65 84 c 2,28,-1
 141 386 l 2,29,30
 142 389 142 389 142 394 c 0,31,32
 142 403 142 403 136.5 408 c 128,-1,33
 131 413 131 413 122 413 c 0,34,35
 87 413 87 413 31 376 c 1,36,37
 72 422 72 422 113 449 c 128,-1,38
 154 476 154 476 186 476 c 0,39,40
 207 476 207 476 220 464 c 128,-1,41
 233 452 233 452 233 431 c 0,42,43
 233 423 233 423 230 412 c 2,44,-1
 146 76 l 1,45,46
 194 82 194 82 253 120.5 c 128,-1,47
 312 159 312 159 364 216 c 1,48,-1
 420 438 l 2,49,50
 430 476 430 476 471 476 c 0,51,52
 504 476 504 476 504 451 c 0,53,54
 504 448 504 448 502 438 c 2,55,-1
 413 84 l 2,56,57
 411 78 411 78 411 73 c 0,58,59
 411 57 411 57 433 57 c 0,60,61
 468 57 468 57 524 94 c 1,62,63
 474 37 474 37 422 9 c 1,64,0
 394 -11 394 -11 376 -33.5 c 128,-1,1
EndSplineSet
EndChar

StartChar: v
Encoding: 118 118 400
Width: 522
VWidth: 1000
GlyphClass: 2
Flags: W
AnchorPoint: "Anchor-6" 0 0 basechar 0
AnchorPoint: "Anchor-5" 320 470 basechar 0
AnchorPoint: "Anchor-4" 0 0 basechar 0
AnchorPoint: "Anchor-3" 202 0 basechar 0
LayerCount: 2
Fore
SplineSet
503.5 448 m 128,-1,1
 527 420 527 420 527 369 c 0,2,3
 527 320 527 320 500 268.5 c 128,-1,4
 473 217 473 217 400 149.5 c 128,-1,5
 327 82 327 82 195 -6 c 1,6,7
 44 190 44 190 44 315 c 0,8,9
 44 384 44 384 85 430 c 128,-1,10
 126 476 126 476 191 476 c 0,11,12
 237 476 237 476 262.5 451.5 c 128,-1,13
 288 427 288 427 288 383 c 0,14,15
 288 369 288 369 287 362 c 1,16,17
 281 387 281 387 261.5 401.5 c 128,-1,18
 242 416 242 416 215 416 c 0,19,20
 176 416 176 416 152 386.5 c 128,-1,21
 128 357 128 357 128 308 c 0,22,23
 128 262 128 262 150.5 203 c 128,-1,24
 173 144 173 144 211 83 c 1,25,26
 443 252 443 252 443 365 c 0,27,28
 443 390 443 390 431.5 403 c 128,-1,29
 420 416 420 416 399 416 c 0,30,31
 372 416 372 416 350 400 c 1,32,33
 354 435 354 435 377.5 455.5 c 128,-1,34
 401 476 401 476 438 476 c 0,35,0
 480 476 480 476 503.5 448 c 128,-1,1
EndSplineSet
EndChar

StartChar: w
Encoding: 119 119 401
Width: 717
VWidth: 1000
GlyphClass: 2
Flags: W
AnchorPoint: "Anchor-6" 0 0 basechar 0
AnchorPoint: "Anchor-5" 388 470 basechar 0
AnchorPoint: "Anchor-4" 0 0 basechar 0
AnchorPoint: "Anchor-3" 300 0 basechar 0
LayerCount: 2
Fore
SplineSet
600 473 m 0,1,2
 655 473 655 473 686 441.5 c 128,-1,3
 717 410 717 410 717 355 c 0,4,5
 717 276 717 276 647.5 187.5 c 128,-1,6
 578 99 578 99 435 -6 c 1,7,8
 374 61 374 61 332 123 c 1,9,10
 266 63 266 63 165 -6 c 1,11,12
 31 103 31 103 31 227 c 0,13,14
 31 312 31 312 87.5 378.5 c 128,-1,15
 144 445 144 445 240 475 c 1,16,17
 183 432 183 432 149 366 c 128,-1,18
 115 300 115 300 115 234 c 0,19,20
 115 154 115 154 176 83 c 1,21,22
 252 137 252 137 298 180 c 1,23,24
 260 256 260 256 260 320 c 0,25,26
 260 389 260 389 297.5 432.5 c 128,-1,27
 335 476 335 476 395 476 c 0,28,29
 440 476 440 476 464.5 450 c 128,-1,30
 489 424 489 424 489 377 c 0,31,32
 489 285 489 285 384 172 c 1,33,34
 403 136 403 136 443 83 c 1,35,36
 539 162 539 162 586 227.5 c 128,-1,37
 633 293 633 293 633 351 c 0,38,39
 633 393 633 393 610.5 425 c 128,-1,40
 588 457 588 457 550 467 c 1,41,0
 577 473 577 473 600 473 c 0,1,2
351 388 m 128,-1,43
 336 362 336 362 336 322 c 0,44,45
 336 284 336 284 353 236 c 1,46,47
 415 310 415 310 415 374 c 0,48,49
 415 414 415 414 389 414 c 0,50,42
 366 414 366 414 351 388 c 128,-1,43
EndSplineSet
EndChar

StartChar: x
Encoding: 120 120 406
Width: 615
VWidth: 1000
GlyphClass: 2
Flags: W
AnchorPoint: "Anchor-6" 0 0 basechar 0
AnchorPoint: "Anchor-5" 367 470 basechar 0
AnchorPoint: "Anchor-4" 0 0 basechar 0
AnchorPoint: "Anchor-3" 249 0 basechar 0
LayerCount: 2
Fore
SplineSet
642.5 461 m 128,-1,1
 660 446 660 446 660 424 c 0,2,3
 660 405 660 405 647 387.5 c 128,-1,4
 634 370 634 370 611 358 c 1,5,6
 613 370 613 370 613 375 c 0,7,8
 613 393 613 393 604 402.5 c 128,-1,9
 595 412 595 412 581 412 c 0,10,11
 561 412 561 412 526.5 375.5 c 128,-1,12
 492 339 492 339 409 231 c 0,13,14
 407 229 407 229 407 228 c 0,15,16
 431 144 431 144 445 107 c 128,-1,17
 459 70 459 70 475.5 53.5 c 128,-1,18
 492 37 492 37 518 37 c 0,19,20
 529 37 529 37 535 38 c 1,21,22
 513 -6 513 -6 462 -6 c 0,23,24
 434 -6 434 -6 415 9.5 c 128,-1,25
 396 25 396 25 380.5 57.5 c 128,-1,26
 365 90 365 90 346 152 c 1,27,28
 275 65 275 65 220.5 28.5 c 128,-1,29
 166 -8 166 -8 94 -8 c 0,30,31
 31 -8 31 -8 -3.5 18 c 128,-1,32
 -38 44 -38 44 -38 93 c 0,33,34
 -38 140 -38 140 -8 170 c 128,-1,35
 22 200 22 200 70 200 c 0,36,37
 111 200 111 200 139.5 177 c 128,-1,38
 168 154 168 154 176 115 c 1,39,40
 160 126 160 126 139 132 c 128,-1,41
 118 138 118 138 98 138 c 0,42,43
 70 138 70 138 53 126.5 c 128,-1,44
 36 115 36 115 36 95 c 0,45,46
 36 77 36 77 52 66.5 c 128,-1,47
 68 56 68 56 99 56 c 0,48,49
 136 56 136 56 167.5 73 c 128,-1,50
 199 90 199 90 233.5 127 c 128,-1,51
 268 164 268 164 322 233 c 1,52,-1
 316 254 l 2,53,54
 295 326 295 326 284.5 355 c 128,-1,55
 274 384 274 384 262.5 397 c 128,-1,56
 251 410 251 410 232 410 c 0,57,58
 196 410 196 410 169 378 c 1,59,60
 199 476 199 476 271 476 c 0,61,62
 295 476 295 476 311.5 462.5 c 128,-1,63
 328 449 328 449 344.5 414 c 128,-1,64
 361 379 361 379 382 311 c 1,65,66
 436 381 436 381 466.5 414 c 128,-1,67
 497 447 497 447 524 461.5 c 128,-1,68
 551 476 551 476 585 476 c 0,69,0
 625 476 625 476 642.5 461 c 128,-1,1
EndSplineSet
EndChar

StartChar: y
Encoding: 121 121 407
Width: 553
VWidth: 1000
GlyphClass: 2
Flags: W
AnchorPoint: "Anchor-6" 0 0 basechar 0
AnchorPoint: "Anchor-5" 336 470 basechar 0
AnchorPoint: "Anchor-4" 0 0 basechar 0
AnchorPoint: "Anchor-3" 89 -357 basechar 0
LayerCount: 2
Fore
SplineSet
367 -102 m 2,0,1
 366 -110 366 -110 362 -119 c 1,2,3
 426 -146 426 -146 483 -192 c 1,4,5
 457 -173 457 -173 350 -156 c 1,6,7
 313 -254 313 -254 246.5 -305.5 c 128,-1,8
 180 -357 180 -357 89 -357 c 0,9,10
 34 -357 34 -357 -4.5 -339 c 128,-1,11
 -43 -321 -43 -321 -71 -281 c 1,12,13
 -82 -254 -82 -254 -82 -225 c 0,14,15
 -82 -183 -82 -183 -51.5 -150 c 128,-1,16
 -21 -117 -21 -117 35 -98.5 c 128,-1,17
 91 -80 91 -80 164 -80 c 0,18,19
 226 -80 226 -80 287 -94 c 1,20,-1
 342 126 l 1,21,22
 286 68 286 68 235.5 34 c 128,-1,23
 185 0 185 0 154 0 c 0,24,25
 137 0 137 0 116 11.5 c 128,-1,26
 95 23 95 23 81 42 c 128,-1,27
 67 61 67 61 67 81 c 0,28,29
 67 86 67 86 69 94 c 2,30,-1
 141 386 l 2,31,32
 142 389 142 389 142 394 c 0,33,34
 142 403 142 403 136.5 408 c 128,-1,35
 131 413 131 413 122 413 c 0,36,37
 87 413 87 413 31 376 c 1,38,39
 72 422 72 422 113 449 c 128,-1,40
 154 476 154 476 186 476 c 0,41,42
 207 476 207 476 220 464 c 128,-1,43
 233 452 233 452 233 431 c 0,44,45
 233 423 233 423 230 412 c 2,46,-1
 149 86 l 1,47,48
 198 92 198 92 256.5 129 c 128,-1,49
 315 166 315 166 366 222 c 1,50,-1
 420 438 l 2,51,52
 430 476 430 476 471 476 c 0,53,54
 504 476 504 476 504 451 c 0,55,56
 504 448 504 448 502 438 c 2,57,-1
 367 -102 l 2,0,1
193 -254 m 128,-1,59
 243 -217 243 -217 270 -148 c 1,60,61
 232 -146 232 -146 212 -146 c 0,62,63
 109 -146 109 -146 54.5 -172 c 128,-1,64
 0 -198 0 -198 0 -241 c 0,65,66
 0 -250 0 -250 1.5 -258 c 128,-1,67
 3 -266 3 -266 5 -270 c 0,68,69
 24 -291 24 -291 76 -291 c 0,70,58
 143 -291 143 -291 193 -254 c 128,-1,59
EndSplineSet
EndChar

StartChar: z
Encoding: 122 122 416
Width: 463
VWidth: 1000
GlyphClass: 2
Flags: W
AnchorPoint: "Anchor-6" 0 0 basechar 0
AnchorPoint: "Anchor-5" 291 470 basechar 0
AnchorPoint: "Anchor-4" 0 0 basechar 0
AnchorPoint: "Anchor-3" 173 0 basechar 0
LayerCount: 2
Fore
SplineSet
385.5 139 m 128,-1,1
 419 114 419 114 419 71 c 0,2,3
 419 36 419 36 396.5 15 c 128,-1,4
 374 -6 374 -6 336 -6 c 0,5,6
 304 -6 304 -6 288 14 c 1,7,8
 292 13 292 13 299 13 c 0,9,10
 315 13 315 13 325 23 c 128,-1,11
 335 33 335 33 335 49 c 0,12,13
 335 73 335 73 311.5 85.5 c 128,-1,14
 288 98 288 98 246 98 c 0,15,16
 185 98 185 98 129.5 73.5 c 128,-1,17
 74 49 74 49 19 -6 c 1,18,-1
 -68 -6 l 1,19,-1
 173 239 l 1,20,-1
 103 239 l 1,21,-1
 119 303 l 1,22,-1
 237 303 l 1,23,-1
 309 376 l 1,24,25
 271 362 271 362 239 362 c 0,26,27
 180 362 180 362 141.5 397.5 c 128,-1,28
 103 433 103 433 97 494 c 1,29,30
 157 426 157 426 270 426 c 0,31,32
 321 426 321 426 365.5 439 c 128,-1,33
 410 452 410 452 441 476 c 1,34,-1
 495 476 l 1,35,-1
 322 303 l 1,36,-1
 397 303 l 1,37,-1
 381 239 l 1,38,-1
 259 239 l 1,39,-1
 147 127 l 1,40,41
 224 164 224 164 295 164 c 0,42,0
 352 164 352 164 385.5 139 c 128,-1,1
EndSplineSet
EndChar

StartChar: fl
Encoding: 64258 64258 422
Width: 665
VWidth: 1000
GlyphClass: 3
Flags: W
LayerCount: 2
Fore
SplineSet
527 84 m 2,0,1
 525 78 525 78 525 73 c 0,2,3
 525 57 525 57 547 57 c 0,4,5
 582 57 582 57 638 94 c 1,6,7
 597 48 597 48 556 21 c 128,-1,8
 515 -6 515 -6 483 -6 c 0,9,10
 462 -6 462 -6 449 6 c 128,-1,11
 436 18 436 18 436 39 c 0,12,13
 436 48 436 48 439 58 c 2,14,-1
 591 666 l 2,15,16
 593 672 593 672 593 677 c 0,17,18
 593 693 593 693 571 693 c 0,19,20
 558 693 558 693 537 686 c 1,21,22
 539 672 539 672 539 664 c 0,23,24
 539 614 539 614 494 590.5 c 128,-1,25
 449 567 449 567 381 567 c 1,26,27
 415 577 415 577 434.5 600 c 128,-1,28
 454 623 454 623 454 651 c 0,29,30
 454 673 454 673 442 684.5 c 128,-1,31
 430 696 430 696 408 696 c 0,32,33
 379 696 379 696 357 676 c 128,-1,34
 335 656 335 656 327 621 c 2,35,-1
 290 470 l 1,36,-1
 455 470 l 1,37,-1
 439 406 l 1,38,-1
 274 406 l 1,39,-1
 147 -102 l 1,40,-1
 143 -118 l 1,41,42
 205 -144 205 -144 263 -192 c 1,43,44
 246 -182 246 -182 210.5 -172 c 128,-1,45
 175 -162 175 -162 131 -155 c 1,46,47
 97 -255 97 -255 38.5 -306 c 128,-1,48
 -20 -357 -20 -357 -102 -357 c 0,49,50
 -203 -357 -203 -357 -255 -281 c 1,51,52
 -266 -254 -266 -254 -266 -226 c 0,53,54
 -266 -184 -266 -184 -234.5 -151 c 128,-1,55
 -203 -118 -203 -118 -150 -99 c 128,-1,56
 -97 -80 -97 -80 -33 -80 c 0,57,58
 18 -80 18 -80 67 -92 c 1,59,-1
 192 406 l 1,60,-1
 78 406 l 1,61,-1
 94 470 l 1,62,-1
 208 470 l 1,63,-1
 245 621 l 2,64,65
 261 685 261 685 307 722.5 c 128,-1,66
 353 760 353 760 418 760 c 0,67,68
 457 760 457 760 486.5 745.5 c 128,-1,69
 516 731 516 731 530 705 c 1,70,71
 591 756 591 756 635 756 c 0,72,73
 656 756 656 756 669 744 c 128,-1,74
 682 732 682 732 682 711 c 0,75,76
 682 703 682 703 679 692 c 2,77,-1
 527 84 l 2,0,1
-15 -254 m 128,-1,79
 27 -217 27 -217 52 -147 c 1,80,81
 39 -146 39 -146 13 -146 c 0,82,83
 -83 -146 -83 -146 -133.5 -172 c 128,-1,84
 -184 -198 -184 -198 -184 -241 c 0,85,86
 -184 -250 -184 -250 -182.5 -258 c 128,-1,87
 -181 -266 -181 -266 -179 -270 c 0,88,89
 -160 -291 -160 -291 -114 -291 c 0,90,78
 -57 -291 -57 -291 -15 -254 c 128,-1,79
EndSplineSet
Ligature2: "'liga' Standard Ligatures lookup 13 subtable" f l
EndChar

StartChar: ordfeminine
Encoding: 170 170 423
Width: 414
VWidth: 1000
GlyphClass: 2
Flags: W
AnchorPoint: "Anchor-6" 0 0 basechar 0
AnchorPoint: "Anchor-5" 330 702 basechar 0
AnchorPoint: "Anchor-4" 382 375 basechar 0
AnchorPoint: "Anchor-3" 245 364 basechar 0
LayerCount: 2
Fore
SplineSet
469 432 m 1,1,2
 439 399 439 399 409.5 379.5 c 128,-1,3
 380 360 380 360 357 360 c 0,4,5
 341 360 341 360 332 369 c 128,-1,6
 323 378 323 378 323 393 c 0,7,8
 323 396 323 396 325 406 c 2,9,-1
 332 434 l 1,10,11
 281 357 281 357 220 357 c 0,12,13
 189 357 189 357 165.5 376 c 128,-1,14
 142 395 142 395 121 431 c 1,15,16
 114 470 114 470 114 496 c 0,17,18
 114 594 114 594 167.5 652 c 128,-1,19
 221 710 221 710 311 710 c 0,20,21
 365 710 365 710 406 688.5 c 128,-1,22
 447 667 447 667 468 630 c 1,23,24
 440 645 440 645 407 653.5 c 128,-1,25
 374 662 374 662 341 662 c 0,26,27
 262 662 262 662 218 614 c 128,-1,28
 174 566 174 566 174 481 c 0,29,30
 174 458 174 458 179 425 c 1,31,32
 190 414 190 414 199.5 409 c 128,-1,33
 209 404 209 404 223 404 c 0,34,35
 259 404 259 404 294 439 c 128,-1,36
 329 474 329 474 358 536 c 1,37,-1
 372 590 l 2,38,39
 378 618 378 618 408 618 c 0,40,41
 431 618 431 618 431 599 c 0,42,43
 431 593 431 593 430 590 c 2,44,-1
 389 424 l 2,45,46
 388 422 388 422 388 417 c 0,47,48
 388 405 388 405 403 405 c 0,49,0
 429 405 429 405 469 432 c 1,1,2
EndSplineSet
EndChar

StartChar: ordmasculine
Encoding: 186 186 424
Width: 417
VWidth: 1000
GlyphClass: 2
Flags: W
AnchorPoint: "Anchor-6" 432 527 basechar 0
AnchorPoint: "Anchor-5" 326 704 basechar 0
AnchorPoint: "Anchor-4" 270 373 basechar 0
AnchorPoint: "Anchor-3" 241 366 basechar 0
LayerCount: 2
Fore
SplineSet
167 382 m 128,-1,1
 133 405 133 405 117 443 c 0,2,3
 110 467 110 467 110 493 c 0,4,5
 110 556 110 556 149.5 610.5 c 128,-1,6
 189 665 189 665 256 696 c 1,7,8
 215 660 215 660 192.5 606.5 c 128,-1,9
 170 553 170 553 170 488 c 0,10,11
 170 469 170 469 174 437 c 1,12,13
 198 406 198 406 247 406 c 0,14,15
 318 406 318 406 358 469 c 128,-1,16
 398 532 398 532 396 638 c 1,17,18
 378 664 378 664 350 664 c 0,19,20
 327 664 327 664 312.5 647 c 128,-1,21
 298 630 298 630 298 601 c 0,22,23
 298 578 298 578 308.5 558 c 128,-1,24
 319 538 319 538 339 524 c 1,25,26
 294 529 294 529 267 553.5 c 128,-1,27
 240 578 240 578 240 615 c 0,28,29
 240 656 240 656 271 683 c 128,-1,30
 302 710 302 710 344 710 c 0,31,32
 381 710 381 710 409 689 c 128,-1,33
 437 668 437 668 452 630 c 1,34,35
 455 611 455 611 455 585 c 0,36,37
 455 518 455 518 427.5 466.5 c 128,-1,38
 400 415 400 415 353.5 387 c 128,-1,39
 307 359 307 359 251 359 c 0,40,0
 201 359 201 359 167 382 c 128,-1,1
EndSplineSet
EndChar

StartChar: uni207F
Encoding: 8319 8319 425
Width: 395
VWidth: 1000
GlyphClass: 2
Flags: W
AnchorPoint: "Anchor-6" 0 0 basechar 0
AnchorPoint: "Anchor-5" 316 338 basechar 0
AnchorPoint: "Anchor-4" 0 0 basechar 0
AnchorPoint: "Anchor-3" 231 0 basechar 0
LayerCount: 2
Fore
SplineSet
110 379 m 0,1,2
 110 384 110 384 111 387 c 2,3,-1
 176 642 l 2,4,5
 177 644 177 644 177 648 c 0,6,7
 177 654 177 654 173 657.5 c 128,-1,8
 169 661 169 661 162 661 c 0,9,10
 138 661 138 661 96 635 c 1,11,12
 126 668 126 668 155.5 687.5 c 128,-1,13
 185 707 185 707 208 707 c 0,14,15
 223 707 223 707 232.5 698 c 128,-1,16
 242 689 242 689 242 674 c 0,17,18
 242 671 242 671 240 661 c 2,19,-1
 227 612 l 1,20,21
 271 657 271 657 309 683.5 c 128,-1,22
 347 710 347 710 368 710 c 0,23,24
 387 710 387 710 408.5 691.5 c 128,-1,25
 430 673 430 673 430 651 c 0,26,27
 430 645 430 645 429 642 c 2,28,-1
 374 424 l 1,29,-1
 373 417 l 2,30,31
 373 405 373 405 389 405 c 0,32,33
 414 405 414 405 454 432 c 1,34,35
 424 398 424 398 395 379 c 128,-1,36
 366 360 366 360 343 360 c 0,37,38
 327 360 327 360 318 368.5 c 128,-1,39
 309 377 309 377 309 392 c 0,40,41
 309 396 309 396 311 406 c 2,42,-1
 371 648 l 1,43,44
 337 643 337 643 293 615 c 128,-1,45
 249 587 249 587 210 543 c 1,46,-1
 171 387 l 2,47,48
 165 360 165 360 134 360 c 0,49,0
 110 360 110 360 110 379 c 0,1,2
EndSplineSet
EndChar

StartChar: uni0394
Encoding: 916 916 426
Width: 541
VWidth: 1000
Flags: W
LayerCount: 2
Fore
SplineSet
329 503 m 1,0,-1
 458 0 l 1,1,-1
 -35 0 l 1,2,-1
 329 503 l 1,0,-1
361 66 m 1,3,-1
 291 340 l 1,4,-1
 93 66 l 1,5,-1
 361 66 l 1,3,-1
EndSplineSet
EndChar

StartChar: uni03A9
Encoding: 937 937 427
Width: 715
VWidth: 1000
Flags: W
LayerCount: 2
Fore
SplineSet
643.5 243 m 128,-1,1
 599 135 599 135 521 66 c 1,2,-1
 644 66 l 1,3,-1
 628 0 l 1,4,-1
 403 0 l 1,5,-1
 420 68 l 1,6,7
 501 105 501 105 548.5 218 c 128,-1,8
 596 331 596 331 596 490 c 0,9,10
 596 537 596 537 591 577 c 1,11,12
 567 604 567 604 520.5 623 c 128,-1,13
 474 642 474 642 430 642 c 0,14,15
 349 642 349 642 289 593 c 128,-1,16
 229 544 229 544 196.5 453.5 c 128,-1,17
 164 363 164 363 164 242 c 0,18,19
 164 177 164 177 198 129.5 c 128,-1,20
 232 82 232 82 289 68 c 1,21,-1
 272 0 l 1,22,-1
 17 0 l 1,23,-1
 34 66 l 1,24,-1
 141 66 l 1,25,26
 108 101 108 101 90 148 c 128,-1,27
 72 195 72 195 72 247 c 0,28,29
 72 387 72 387 115 492 c 128,-1,30
 158 597 158 597 238 653.5 c 128,-1,31
 318 710 318 710 425 710 c 0,32,33
 504 710 504 710 567.5 676.5 c 128,-1,34
 631 643 631 643 671 581 c 1,35,36
 688 532 688 532 688 473 c 0,37,0
 688 351 688 351 643.5 243 c 128,-1,1
EndSplineSet
EndChar

StartChar: uni03BC
Encoding: 956 956 428
Width: 549
VWidth: 1000
Flags: W
LayerCount: 2
Fore
SplineSet
-60 -423 m 0,1,2
 -60 -420 -60 -420 -58 -410 c 2,3,-1
 141 386 l 2,4,5
 142 389 142 389 142 394 c 0,6,7
 142 403 142 403 136.5 408 c 128,-1,8
 131 413 131 413 122 413 c 0,9,10
 87 413 87 413 31 376 c 1,11,12
 72 422 72 422 113 449 c 128,-1,13
 154 476 154 476 186 476 c 0,14,15
 207 476 207 476 220 464 c 128,-1,16
 233 452 233 452 233 431 c 0,17,18
 233 423 233 423 230 412 c 2,19,-1
 146 76 l 1,20,21
 194 82 194 82 253 120.5 c 128,-1,22
 312 159 312 159 364 216 c 1,23,-1
 420 438 l 2,24,25
 430 476 430 476 471 476 c 0,26,27
 504 476 504 476 504 451 c 0,28,29
 504 448 504 448 502 438 c 2,30,-1
 413 84 l 2,31,32
 411 78 411 78 411 73 c 0,33,34
 411 57 411 57 433 57 c 0,35,36
 468 57 468 57 524 94 c 1,37,38
 483 48 483 48 442 21 c 128,-1,39
 401 -6 401 -6 369 -6 c 0,40,41
 347 -6 347 -6 335 6.5 c 128,-1,42
 323 19 323 19 323 40 c 0,43,44
 323 51 323 51 325 58 c 2,45,-1
 340 120 l 1,46,47
 284 61 284 61 232 25.5 c 128,-1,48
 180 -10 180 -10 150 -10 c 0,49,50
 140 -10 140 -10 125 -5 c 1,51,-1
 24 -410 l 2,52,53
 15 -448 15 -448 -27 -448 c 0,54,0
 -60 -448 -60 -448 -60 -423 c 0,1,2
EndSplineSet
EndChar

StartChar: pi
Encoding: 960 960 429
Width: 497
VWidth: 1000
Flags: W
LayerCount: 2
Fore
SplineSet
343 84 m 2,0,1
 341 78 341 78 341 73 c 0,2,3
 341 57 341 57 363 57 c 0,4,5
 398 57 398 57 454 94 c 1,6,7
 413 48 413 48 372 21 c 128,-1,8
 331 -6 331 -6 299 -6 c 0,9,10
 278 -6 278 -6 265 6 c 128,-1,11
 252 18 252 18 252 39 c 0,12,13
 252 48 252 48 255 58 c 2,14,-1
 341 406 l 1,15,-1
 216 406 l 1,16,-1
 123 32 l 2,17,18
 114 -6 114 -6 72 -6 c 0,19,20
 39 -6 39 -6 39 19 c 0,21,22
 39 22 39 22 41 32 c 2,23,-1
 134 406 l 1,24,-1
 55 406 l 1,25,-1
 71 470 l 1,26,-1
 548 470 l 1,27,-1
 532 406 l 1,28,-1
 423 406 l 1,29,-1
 343 84 l 2,0,1
EndSplineSet
EndChar

StartChar: uni0E01
Encoding: 3585 3585 430
Width: 528
VWidth: 1000
GlyphClass: 2
Flags: W
AnchorPoint: "Anchor-8" 512 470 basechar 0
AnchorPoint: "Anchor-7" 394 0 basechar 0
LayerCount: 2
Fore
SplineSet
42 19 m 0,1,2
 42 22 42 22 44 32 c 2,3,-1
 88 206 l 2,4,5
 99 250 99 250 121 279 c 128,-1,6
 143 308 143 308 178 326 c 1,7,8
 154 344 154 344 119.5 356 c 128,-1,9
 85 368 85 368 50 371 c 1,10,11
 92 435 92 435 146.5 469.5 c 128,-1,12
 201 504 201 504 260 504 c 0,13,14
 315 504 315 504 376 462.5 c 128,-1,15
 437 421 437 421 510 339 c 1,16,17
 492 337 492 337 483.5 329.5 c 128,-1,18
 475 322 475 322 471 307 c 2,19,-1
 429 140 l 2,20,21
 416 85 416 85 384 45.5 c 128,-1,22
 352 6 352 6 312 -6 c 1,23,-1
 390 307 l 2,24,25
 397 333 397 333 418 343 c 1,26,27
 368 390 368 390 332.5 413 c 128,-1,28
 297 436 297 436 258 436 c 0,29,30
 205 436 205 436 157 395 c 1,31,32
 191 386 191 386 222.5 365.5 c 128,-1,33
 254 345 254 345 273 319 c 1,34,35
 229 302 229 302 204.5 274 c 128,-1,36
 180 246 180 246 168 199 c 2,37,-1
 126 32 l 2,38,39
 117 -6 117 -6 75 -6 c 0,40,0
 42 -6 42 -6 42 19 c 0,1,2
EndSplineSet
EndChar

StartChar: uni0E02
Encoding: 3586 3586 431
Width: 517
VWidth: 1000
GlyphClass: 2
Flags: W
AnchorPoint: "Anchor-8" 501 470 basechar 0
AnchorPoint: "Anchor-7" 383 0 basechar 0
LayerCount: 2
Fore
SplineSet
434.5 449.5 m 128,-1,1
 465 487 465 487 508 500 c 1,2,-1
 415 126 l 2,3,4
 399 59 399 59 365.5 29.5 c 128,-1,5
 332 0 332 0 273 0 c 2,6,-1
 129 0 l 1,7,8
 155 18 155 18 174.5 50.5 c 128,-1,9
 194 83 194 83 205 126 c 2,10,-1
 261 352 l 2,11,12
 264 364 264 364 264 372 c 0,13,14
 264 383 264 383 259 390 c 2,15,-1
 203 454 l 1,16,17
 144 447 144 447 114 422 c 128,-1,18
 84 397 84 397 84 362 c 0,19,20
 84 318 84 318 132 318 c 0,21,22
 156 318 156 318 171.5 328 c 128,-1,23
 187 338 187 338 187 356 c 256,24,25
 187 374 187 374 172 374 c 0,26,27
 155 374 155 374 149 350 c 0,28,29
 144 336 144 336 126 336 c 0,30,31
 115 336 115 336 108 343.5 c 128,-1,32
 101 351 101 351 101 364 c 0,33,34
 101 388 101 388 121.5 404 c 128,-1,35
 142 420 142 420 174 420 c 0,36,37
 205 420 205 420 223 402.5 c 128,-1,38
 241 385 241 385 241 355 c 0,39,40
 241 316 241 316 211 293 c 128,-1,41
 181 270 181 270 131 270 c 0,42,43
 82 270 82 270 54 293.5 c 128,-1,44
 26 317 26 317 26 359 c 0,45,46
 26 420 26 420 85.5 459 c 128,-1,47
 145 498 145 498 252 502 c 1,48,-1
 337 405 l 2,49,50
 346 396 346 396 346 378 c 0,51,52
 346 368 346 368 344 362 c 2,53,-1
 285 126 l 2,54,55
 278 95 278 95 262 66 c 1,56,-1
 273 66 l 2,57,58
 296 66 296 66 310 80.5 c 128,-1,59
 324 95 324 95 333 126 c 2,60,-1
 390 354 l 2,61,0
 404 412 404 412 434.5 449.5 c 128,-1,1
EndSplineSet
EndChar

StartChar: uni0E03
Encoding: 3587 3587 432
Width: 514
VWidth: 1000
GlyphClass: 2
Flags: W
AnchorPoint: "Anchor-8" 498 470 basechar 0
AnchorPoint: "Anchor-7" 380 0 basechar 0
LayerCount: 2
Fore
SplineSet
431.5 449.5 m 128,-1,1
 462 487 462 487 505 500 c 1,2,-1
 412 126 l 2,3,4
 396 59 396 59 362.5 29.5 c 128,-1,5
 329 0 329 0 270 0 c 2,6,-1
 106 0 l 1,7,8
 132 18 132 18 151.5 50.5 c 128,-1,9
 171 83 171 83 182 126 c 2,10,-1
 240 359 l 2,11,12
 250 404 250 404 291 424 c 1,13,14
 284 448 284 448 254 454 c 1,15,-1
 199 417 l 1,16,-1
 144 454 l 1,17,18
 118 454 118 454 103.5 434 c 128,-1,19
 89 414 89 414 89 380 c 0,20,21
 89 328 89 328 133 328 c 0,22,23
 149 328 149 328 158.5 334 c 128,-1,24
 168 340 168 340 168 351 c 0,25,26
 168 365 168 365 155 365 c 0,27,28
 147 365 147 365 138 361 c 128,-1,29
 129 357 129 357 123 357 c 0,30,31
 116 357 116 357 111.5 362 c 128,-1,32
 107 367 107 367 107 375 c 0,33,34
 107 390 107 390 120 398.5 c 128,-1,35
 133 407 133 407 155 407 c 0,36,37
 184 407 184 407 200 392 c 128,-1,38
 216 377 216 377 216 350 c 0,39,40
 216 319 216 319 193 300.5 c 128,-1,41
 170 282 170 282 130 282 c 0,42,43
 82 282 82 282 56.5 308.5 c 128,-1,44
 31 335 31 335 31 381 c 0,45,46
 31 437 31 437 62.5 469.5 c 128,-1,47
 94 502 94 502 148 502 c 1,48,-1
 199 465 l 1,49,-1
 250 502 l 1,50,51
 303 497 303 497 333 471 c 128,-1,52
 363 445 363 445 364 401 c 1,53,54
 348 397 348 397 335.5 384 c 128,-1,55
 323 371 323 371 318 351 c 2,56,-1
 262 126 l 2,57,58
 255 95 255 95 239 66 c 1,59,-1
 270 66 l 2,60,61
 293 66 293 66 307.5 80.5 c 128,-1,62
 322 95 322 95 330 126 c 2,63,-1
 387 354 l 2,64,0
 401 412 401 412 431.5 449.5 c 128,-1,1
EndSplineSet
EndChar

